<?xml version="1.0" encoding="UTF-8"?>
<svg width="433px" height="362px" viewBox="0 0 433 362" version="1.1" xmlns="http://www.w3.org/2000/svg" xmlns:xlink="http://www.w3.org/1999/xlink">
    <!-- Generator: Sketch 45.2 (43514) - http://www.bohemiancoding.com/sketch -->
    <title>Cart</title>
    <desc>Created with Sketch.</desc>
    <defs></defs>
    <g id="Page-1" stroke="none" stroke-width="1" fill="none" fill-rule="evenodd">
        <g id="Cart" transform="translate(27.000000, 27.000000)">
            <path d="M105.5,209.8333 L62.167,3.5003 C61.824,1.8733 60.389,0.7083 58.726,0.7083 L0.5,0.5003" id="Stroke-1" stroke="#FFFFFF" stroke-width="55" stroke-linecap="round" stroke-linejoin="round"></path>
            <path d="M344.369045,288.684523 C344.369045,313.915604 323.915604,334.369045 298.684523,334.369045 C273.453442,334.369045 253,313.915604 253,288.684523 C253,263.453442 273.453442,243 298.684523,243 C323.915604,243 344.369045,263.453442 344.369045,288.684523" id="Fill-3" fill="#FFFFFF"></path>
            <path d="M153.684523,334.369045 C128.453442,334.369045 108,313.915604 108,288.684523 C108,263.453442 128.453442,243 153.684523,243 C178.915604,243 199.369045,263.453442 199.369045,288.684523 C199.369045,313.915604 178.915604,334.369045 153.684523,334.369045 Z" id="Fill-3" fill="#FFFFFF"></path>
            <path d="M354.001342,220.993899 L109.909862,220.296635 C108.582501,220.29237 107.444916,219.346693 107.198634,218.042787 L75.3366499,61.4323646 C75.0136055,59.7254535 76.3239077,58.1443485 78.0617372,58.1443485 L387.409249,57.5238474 C387.935928,57.5238474 388.331471,58.0046825 388.230187,58.5207006 L356.724297,218.760308 C356.46842,220.061015 355.326571,220.998164 354.001342,220.993899 Z" id="Stroke-7" stroke="#FFFFFF" stroke-width="35" fill="#FFFFFF"></path>
        </g>
    </g>
</svg>
