<?xml version="1.0" encoding="UTF-8"?>
<svg width="37px" height="37px" viewBox="0 0 37 37" version="1.1" xmlns="http://www.w3.org/2000/svg" xmlns:xlink="http://www.w3.org/1999/xlink">
    <!-- Generator: Sketch 45.2 (43514) - http://www.bohemiancoding.com/sketch -->
    <title>Group 11</title>
    <desc>Created with Sketch.</desc>
    <defs>
        <circle id="path-1" cx="14.2396804" cy="14.6503981" r="13.8248716"></circle>
        <filter x="-23.5%" y="-23.5%" width="147.0%" height="147.0%" filterUnits="objectBoundingBox" id="filter-2">
            <feMorphology radius="0.5" operator="dilate" in="SourceAlpha" result="shadowSpreadOuter1"></feMorphology>
            <feOffset dx="0" dy="0" in="shadowSpreadOuter1" result="shadowOffsetOuter1"></feOffset>
            <feGaussianBlur stdDeviation="2" in="shadowOffsetOuter1" result="shadowBlurOuter1"></feGaussianBlur>
            <feComposite in="shadowBlurOuter1" in2="SourceAlpha" operator="out" result="shadowBlurOuter1"></feComposite>
            <feColorMatrix values="0 0 0 0 0   0 0 0 0 0   0 0 0 0 0  0 0 0 0.5 0" type="matrix" in="shadowBlurOuter1"></feColorMatrix>
        </filter>
    </defs>
    <g id="Welcome" stroke="none" stroke-width="1" fill="none" fill-rule="evenodd">
        <g id="Group-11" transform="translate(4.000000, 4.000000)">
            <g id="Background">
                <g id="Oval" fill-rule="nonzero">
                    <use fill="black" fill-opacity="1" filter="url(#filter-2)" xlink:href="#path-1"></use>
                    <use stroke="#003366" stroke-width="1" fill="#FFFFFF" fill-rule="evenodd" xlink:href="#path-1"></use>
                </g>
                <path d="M22.4336013,4.12811963 C20.2190478,2.5083881 17.5914738,1.21146757 14.637622,1.21146757 C7.24030934,1.21146757 0.859051215,6.99552504 0.859051215,14.3928377 C0.859051215,18.5303355 2.44921682,22.0961144 5.39705104,24.5530391 C6.40115669,25.3899287 5.90988453,16.8282707 10.1532909,12.304607 C10.7814715,11.634938 16.695956,12.9591551 17.2364197,12.304607 C17.9581706,11.4305046 27.4378118,12.5964484 27.3982246,12.3962796 C27.3049643,11.9247192 27.1694043,11.3220812 26.9766148,10.6606234 C26.7360147,9.83512824 26.208191,8.83582914 25.846785,8.16358019 C24.6350731,5.90968266 22.9790362,4.52705247 22.4336013,4.12811963 Z" id="Oval-3" fill="#FFCC33"></path>
            </g>
            <g id="Cogs" transform="translate(14.628957, 15.233548) rotate(11.000000) translate(-14.628957, -15.233548) translate(4.628957, 5.733548)" fill-rule="nonzero" fill="#4A4A4A">
                <path d="M14.2916686,13.0537643 C14.2916686,12.8163806 14.0677177,12.6606434 12.9928794,12.0907965 C13.0046332,11.9115518 13.0071518,11.7329368 13.0019046,11.5557911 C14.2931379,10.8276883 14.3351155,10.7034344 14.2780259,10.4234433 C14.1092756,9.59690295 13.7944431,8.81527868 13.3425534,8.10144835 C13.3280711,8.07857052 13.3089713,8.05338392 13.2842045,8.02903687 C13.2676233,8.00259093 13.2508322,7.976145 13.2334115,7.94990895 C13.1574319,7.83635935 13.0319187,7.77150384 12.8896144,7.77150384 C12.8205611,7.77150384 12.6965171,7.77150384 11.6388896,8.107745 C11.4925974,7.93962442 11.3370701,7.78136859 11.1731473,7.63402696 C11.592924,6.38183298 11.6227282,6.2334419 11.3481942,6.0476907 C10.6106465,5.54941572 9.79690929,5.24108971 8.9290209,5.05344951 L8.88746301,5.08409321 L8.87612904,5.08409321 C8.86353573,5.08409321 8.85115232,5.08661187 8.83876891,5.08409321 L8.79868023,5.08409321 L8.75880144,5.08409321 C8.52435614,5.08409321 8.45215454,4.992372 7.78282054,6.23365179 C7.68375323,6.22819469 7.58489581,6.13353504 7.4877175,6.13353504 L7.45098704,6.13353504 L7.40754015,6.13353504 C7.31036183,6.13353504 7.2117143,6.18075992 7.1124371,6.18600713 C6.443313,4.94493723 6.37090151,4.96676562 6.13645621,4.96676562 L6.0571184,4.98586546 C6.04389544,4.98859401 6.03088236,4.99698954 6.01765939,4.99992798 L5.96665652,5.01126195 C5.09855824,5.19869226 4.28461116,5.5479465 3.54748322,6.04622148 C3.27294924,6.23176279 3.30275339,6.38099342 3.72253012,7.63318741 C3.55902708,7.78073893 3.40328991,7.93920464 3.25678784,8.10732523 C2.19916036,7.77108406 2.07511634,7.77129395 2.00627296,7.77129395 C1.86396864,7.77129395 1.73866529,7.83635935 1.66226593,7.95011884 C1.66184615,7.95074851 1.66121648,7.95179795 1.66058682,7.9526375 L1.64547486,7.95578583 L1.55354375,8.10081869 C1.10102444,8.81548857 0.78619189,9.59690295 0.617651532,10.4230236 C0.560561897,10.7030146 0.602329682,10.8274784 1.89377279,11.5555812 C1.88810581,11.732727 1.89125413,11.9111321 1.90279799,12.0905866 C0.825021237,12.6619027 0.60253957,12.8172201 0.604008789,13.0554434 L0.588896826,13.0755927 L0.62562729,13.2516891 C0.800464298,14.0880942 1.12453193,14.8764349 1.58901489,15.5957223 C1.63519033,15.6670844 1.74559161,15.7865108 1.96660406,15.7865108 C2.20461746,15.7865108 2.90123695,15.6081057 3.35522548,15.4846914 C3.49039359,15.6305638 3.63374734,15.7697198 3.78444719,15.9009 C3.42616775,17.0036535 3.33969374,17.318486 3.45240379,17.4920637 L3.45576201,17.534671 L3.61758594,17.6417141 C4.35555343,18.1278156 5.16824118,18.4648963 6.03298124,18.6428816 L6.07244025,18.6510672 L6.25336403,18.6500178 L6.3314425,18.5870513 C6.3331216,18.5862117 6.33480071,18.5849524 6.33626993,18.5836931 L6.36901251,18.5681613 L6.41854617,18.5169486 C6.42988014,18.5049849 6.44562177,18.4865148 6.45359753,18.4764401 C6.60219849,18.2988746 6.96005815,17.6467514 7.17078607,17.252791 C7.24991398,17.256569 7.32988145,17.2580382 7.41005881,17.2580382 L7.42013345,17.2576184 L7.44783871,17.2580382 L7.46358034,17.2576184 L7.48540873,17.2576184 C7.5653762,17.2576184 7.64534366,17.2559393 7.72447158,17.252791 C7.9351995,17.6463316 8.29179983,18.2978251 8.43515358,18.4686743 C8.44963588,18.4871444 8.46537751,18.5056146 8.48132902,18.5219859 L8.53065279,18.5708899 L8.5591976,18.5845326 C8.5610866,18.585792 8.56276571,18.6242015 8.56444481,18.6254609 L8.64336284,18.7268369 L8.78272871,18.7268369 L8.82302728,18.7268369 L8.86248629,18.6808714 C9.72722636,18.5028861 10.5399141,18.1467055 11.2699058,17.6654315 L11.4403352,17.5462149 L11.4439033,17.4962615 C11.5559837,17.3228937 11.4690899,17.0047029 11.1114401,15.9036285 C11.2619301,15.7724483 11.4054937,15.632033 11.5406618,15.4863705 C11.9948603,15.6097848 12.69106,15.7873504 12.9292833,15.7873504 C13.1505056,15.7873504 13.260697,15.6675041 13.3070823,15.5961421 C13.7715653,14.8770646 14.095423,14.088514 14.268371,13.2615538 L14.3057312,13.0720246 L14.2916686,13.0537643 Z M7.44846838,14.2322875 C6.07181059,14.2289293 4.9531056,13.1318428 4.9531056,11.757074 C4.9531056,10.3823052 6.07181059,9.28186052 7.44678927,9.28186052 L7.44867826,9.28186052 C8.82344706,9.28186052 9.94194215,10.3823052 9.94194215,11.757074 C9.94194215,13.1318428 8.82344706,14.2289293 7.44846838,14.2322875 Z" id="Shape"></path>
                <path d="M18.2451259,3.21125933 L18.5160918,1.83292244 L18.4184937,1.70048288 C18.0971546,1.26412497 17.6979469,0.90437631 17.2324145,0.63089177 L17.0899003,0.547356201 L15.7205886,0.971960363 L14.8247851,0.105541192 L14.6415525,0.133246456 C14.1275359,0.211324928 13.6221247,0.395187136 13.1803097,0.66552335 L13.0403142,0.751157803 L12.8197215,1.87259134 L11.7312405,2.21030172 L11.6611378,2.35974223 C11.4373968,2.83702838 11.309155,3.36909538 11.2904749,3.89780417 L11.2837585,4.08628393 L12.2353923,4.84398092 L11.9598089,6.2443561 L12.0578268,6.37700554 C12.3718198,6.80223937 12.7787933,7.16891434 13.2340412,7.43736156 L13.3769751,7.5215268 L14.7454473,7.09671275 L15.6607704,7.96397147 L15.8419041,7.93584643 C16.3613778,7.8552493 16.8514671,7.67516508 17.2985294,7.40000143 L17.4381051,7.31415709 L17.6586978,6.19251367 L18.7410921,5.85627251 L18.8111948,5.70704188 C19.0183546,5.26564665 19.1396701,4.7938176 19.1726226,4.30414805 L19.1841664,4.13266925 L18.2451259,3.21125933 Z M15.2359564,5.5389213 C14.4064776,5.5389213 13.7318964,4.86413021 13.7318964,4.03465139 C13.7318964,3.20517257 14.4064776,2.53038147 15.2359564,2.53038147 C16.0654352,2.53038147 16.7400164,3.20517257 16.7400164,4.03465139 C16.7400164,4.86413021 16.0654352,5.5389213 15.2359564,5.5389213 Z" id="Shape"></path>
            </g>
        </g>
    </g>
</svg>