<?xml version="1.0" encoding="UTF-8"?>
<svg width="216px" height="158px" viewBox="0 0 216 158" version="1.1" xmlns="http://www.w3.org/2000/svg" xmlns:xlink="http://www.w3.org/1999/xlink">
    <!-- Generator: Sketch 45.2 (43514) - http://www.bohemiancoding.com/sketch -->
    <title>Delivery Options - Express Delivery  (Stroke FFCC33, Inside White)</title>
    <desc>Created with Sketch.</desc>
    <defs></defs>
    <g id="Page-1" stroke="none" stroke-width="1" fill="none" fill-rule="evenodd">
        <g id="Delivery-Options---Express-Delivery--(Stroke-FFCC33,-Inside-White)" transform="translate(4.000000, 1.000000)" stroke="#FFCC33" stroke-width="3" fill="#FFFFFF" fill-rule="nonzero">
            <path d="M152.248,90.345 C155.514,90.964 158.164,91.994 160.728,93.325 C164.831,95.442 168.914,97.605 173.463,98.678 C173.971,98.799 174.488,99.078 174.875,99.424 C178.521,102.563 182.02,105.888 185.792,108.863 C190.9,112.9 195.644,117.1 197.183,123.828 C197.269,124.194 198.132,124.585 198.65,124.605 C199.838,124.656 200.381,125.205 200.458,126.327 C200.499,126.87 200.489,127.424 200.54,127.962 C200.692,129.374 201.276,130.547 202.784,130.734 C204.439,130.942 206.136,130.983 207.811,130.953 C209.73,130.917 210.299,130.039 209.725,128.181 C209.172,126.373 207.811,125.245 206.338,124.174 C205.241,123.377 203.504,122.422 203.443,121.452 C203.321,119.248 201.777,118.354 200.569,117.186 C197.695,114.418 194.577,111.895 191.754,109.086 C190.302,107.644 189.022,105.907 188.072,104.084 C186.752,101.561 185.254,99.418 182.37,98.59 C182.055,98.499 181.781,98.235 181.512,98.027 C179.07,96.148 176.653,94.249 174.204,92.37 C170.924,89.856 168.1,87.084 168.192,82.494 C168.202,81.95 167.897,81.315 167.562,80.863 C164.81,77.156 163.693,72.845 162.895,68.418 C162.271,65 161.595,61.588 161.092,58.15 C160.9,56.819 160.889,55.367 161.194,54.067 C162.098,50.258 163.205,46.485 164.252,42.713 C164.354,42.358 164.536,41.956 164.8,41.728 C165.998,40.707 167.258,39.753 168.467,38.748 C169.858,37.585 171.29,37.229 172.406,38.027 C175.265,40.078 178.561,40.942 181.892,41.785 C185.172,42.613 188.189,43.999 190.352,46.751 C191.174,47.776 192.201,47.894 193.399,47.878 C195.461,47.848 196.338,46.436 197.335,44.948 C199.441,41.784 200.371,40.733 197.472,37.869 C197.335,37.732 197.289,37.508 197.172,37.351 C194.979,34.655 192.719,32.014 190.611,29.251 C189.387,27.642 187.671,26.266 187.924,23.818 C187.995,23.051 187.462,22.03 186.888,21.437 C185.355,19.817 183.69,18.324 182.003,16.861 C180.932,15.927 180.612,14.952 180.708,13.474 C180.922,10.219 180.835,6.939 180.784,3.669 C180.774,3.141 180.276,2.628 180.013,2.11 C179.627,2.547 179.17,2.933 178.866,3.425 C178.033,4.76 177.322,6.167 176.449,7.472 C176.149,7.919 175.514,8.142 174.905,8.554 C174.676,3.557 173.463,0.891 171.817,0.957 C171.258,3.237 170.751,5.44 170.162,7.629 C169.64,9.549 168.151,10.361 166.334,10.3 C163.81,10.218 161.286,9.909 158.772,9.645 C156.502,9.411 154.329,9.64 152.399,10.996 C152.135,11.179 151.713,11.534 151.759,11.702 C152.226,13.378 150.723,13.134 150.012,13.332 C149.149,13.575 148.154,13.357 147.209,13.332 C146.473,13.311 145.736,13.266 144.711,13.22 C145.188,13.906 145.432,14.256 145.929,14.962 C144.619,15.322 143.533,15.825 142.426,15.876 C140.796,15.952 139.155,15.663 137.521,15.637 C136.81,15.627 135.657,15.236 135.871,16.774 C135.891,16.921 135.307,17.252 134.967,17.333 C134.291,17.48 133.58,17.48 132.901,17.597 C130.392,18.024 128.742,19.608 128.605,22.025 C129.539,21.492 130.417,20.872 131.195,20.151 C132.881,18.582 135.958,18.343 137.41,19.816 C137.105,20.065 136.831,20.354 136.501,20.542 C132.551,22.822 128.234,23.213 123.812,22.802 C122.852,22.716 121.954,22.051 120.989,21.751 C120.4,21.568 119.75,21.578 119.166,21.513 C119.212,22.32 119.242,22.828 119.272,23.33 C118.764,23.264 118.256,23.173 117.749,23.142 C117.211,23.106 116.673,23.137 116.14,23.137 C119.303,26.127 123.356,25.767 127.022,26.656 C127.033,26.808 127.033,26.956 127.033,27.108 C124.123,27.778 121.203,28.454 118.294,29.124 C118.324,29.256 118.359,29.383 118.391,29.51 C119.37,29.698 120.351,29.885 121.661,30.135 C119.945,31.435 118.533,31.024 117.162,30.445 C115.319,29.674 113.639,29.734 111.963,30.938 C111.444,31.309 110.541,31.486 109.932,31.329 C108.073,30.857 106.352,31.308 104.676,31.913 C104.016,32.146 103.533,32.878 102.969,33.381 C103.413,33.68 103.632,33.711 103.771,33.619 C106.719,31.761 109.671,32.202 112.541,33.731 C114.553,34.797 116.441,36.072 118.411,37.214 C119.254,37.702 120.148,38.098 121.021,38.54 C119.574,38.723 118.218,38.692 116.918,38.423 C114.201,37.864 111.515,37.128 108.798,36.544 C108.059,36.392 107.056,35.782 106.48,37.286 C109.92,37.723 113.105,38.647 115.933,40.48 C115.903,40.612 115.872,40.75 115.841,40.881 C114.648,40.754 113.454,40.627 112.267,40.5 C112.242,40.718 112.221,40.937 112.196,41.15 C113.018,41.368 113.842,41.724 114.684,41.775 C116.055,41.851 117.243,42.014 117.355,43.664 C120.991,43.537 124.352,41.48 128.308,42.76 C127.338,44.42 126.566,46.02 125.55,47.452 C123.28,50.641 120.573,53.586 116.715,54.556 C113.465,55.368 109.941,55.714 106.594,55.475 C101.419,55.11 96.308,53.906 91.139,53.373 C87.328,52.982 83.433,52.713 79.638,53.079 C73.732,53.638 68.652,56.481 63.873,59.914 C61.865,61.361 59.686,62.702 57.106,62.829 C53.43,63.007 52.447,62.372 53.767,58.776 C54.694,56.257 54.199,54.902 52.168,53.17 C48.755,50.265 44.99,48.001 40.795,46.457 C36.047,44.716 31.35,42.969 26.105,43.137 C21.045,43.299 16.5,41.867 12.743,38.038 C10.562,35.829 7.589,34.534 4.468,33.864 C4.057,33.777 3.6,33.92 2.775,33.996 C4.483,35.515 6.779,35.484 7.822,37.571 C6.67,37.51 5.722,37.465 4.78,37.414 C4.724,37.617 4.666,37.82 4.602,38.023 C5.45,38.53 6.298,39.028 7.151,39.531 C4.447,39.841 2.824,36.809 0.001,37.306 C4.312,41.135 8.501,44.857 12.907,48.767 C10.665,48.829 9.647,46.335 7.443,47.259 C10.604,51.464 15.778,52.86 19.61,56.384 C18.805,56.785 18.211,57.074 17.422,57.466 C17.884,57.679 18.166,57.908 18.455,57.923 C22.314,58.121 25.719,59.827 29.251,61.117 C32.501,62.301 35.596,63.986 39.189,64.088 C41.769,64.159 44.351,64.246 46.91,64.54 C49.286,64.814 51.673,65.311 53.265,67.384 C53.593,67.811 53.9,68.486 53.801,68.963 C53.509,70.41 53.024,71.812 52.605,73.229 C52.422,73.838 52.069,74.422 52.006,75.041 C51.039,85.116 55.881,92.438 63.403,98.268 C67.635,101.543 72.394,104.133 76.641,107.383 C79.15,109.297 80.564,112.141 81.061,115.432 C81.493,118.255 80.426,120.256 78.644,122.262 C76.996,124.125 77.552,125.116 80.198,125.36 C87.208,126.009 93.078,129.112 98.212,133.749 C103.224,138.278 107.421,143.453 110.463,149.531 C110.782,150.18 111.311,151.126 111.839,151.202 C113.393,151.42 113.545,152.659 114.15,153.634 C114.429,154.091 114.896,154.686 115.343,154.741 C116.856,154.929 118.43,155.087 119.933,154.903 C120.817,154.797 121.934,154.217 122.35,153.502 C122.645,152.999 122.162,151.74 121.65,151.115 C120.507,149.704 119.192,148.409 117.837,147.184 C115.557,145.133 113.084,143.28 110.896,141.137 C109.322,139.598 108.054,137.729 107.532,135.413 C109.215,134.804 109.921,135.87 110.632,136.891 C111.409,137.998 112.282,139.044 113.801,138.425 C114.674,138.07 115.112,138.379 115.528,139.009 C115.802,139.42 116.015,139.882 116.33,140.268 C117.828,142.091 118.742,143.742 121.759,142.193 C122.597,141.761 123.44,141.35 124.282,140.939 C125.461,140.376 125.755,139.501 124.841,138.592 C123.947,137.698 122.846,137.003 121.794,136.281 C120.905,135.667 119.845,135.265 119.063,134.545 C118.093,133.647 117.052,133.24 115.752,133.082 C111.852,132.615 107.941,132.163 104.621,129.695 C102.884,128.411 102.037,126.973 102.234,124.663 C102.894,117.041 103.757,109.393 101.957,101.787 C101.703,100.711 102.333,100.152 103.346,100.162 C104.73,100.178 106.106,100.314 107.49,100.416 C112.959,100.843 118.423,100.883 123.735,99.391 C126.812,98.528 129.747,97.192 132.789,96.211 C133.606,95.947 134.728,95.892 135.485,96.242 C137.181,97.023 138.746,98.115 140.36,99.08 C142.269,100.223 144.178,101.376 146.098,102.514 C148.698,104.052 151.476,105.352 153.857,107.175 C157.219,109.749 158.722,113.147 156.858,117.407 C156.62,117.945 156.559,118.559 156.391,119.133 C155.472,122.241 154.288,125.171 151.165,126.771 C150.968,126.873 150.83,127.106 150.647,127.299 C150.85,127.664 151.028,127.959 151.19,128.264 C152.211,130.173 151.866,130.905 149.728,131.382 C148.717,131.611 147.621,131.661 146.696,132.092 C145.966,132.438 144.909,133.25 144.92,133.829 C144.971,136.449 145.326,139.059 145.641,141.664 C145.732,142.421 146.225,142.594 147.068,142.426 C149.358,141.985 150.212,140.152 151.227,138.46 C152.679,136.059 153.583,133.285 156.102,131.625 C156.432,131.412 156.483,130.762 156.635,130.31 C157.346,128.158 157.914,125.938 158.798,123.851 C160.001,121.018 161.636,118.367 162.718,115.498 C163.581,113.202 164.156,110.739 162.571,108.352 C159.935,104.391 157.3,100.415 154.842,96.337 C153.801,94.59 153.203,92.579 152.248,90.345 Z" id="Shape"></path>
        </g>
    </g>
</svg>