<?xml version="1.0" encoding="UTF-8"?>
<svg width="13px" height="13px" viewBox="0 0 13 13" version="1.1" xmlns="http://www.w3.org/2000/svg" xmlns:xlink="http://www.w3.org/1999/xlink">
    <!-- Generator: Sketch 45.2 (43514) - http://www.bohemiancoding.com/sketch -->
    <title>Shape</title>
    <desc>Created with Sketch.</desc>
    <defs></defs>
    <g id="Welcome" stroke="none" stroke-width="1" fill="none" fill-rule="evenodd" stroke-linecap="round" stroke-linejoin="round">
        <g id="Vendor-App-[Vendor-Side]" transform="translate(-13.000000, -316.000000)" stroke="#000000">
            <g id="Left-Bar" transform="translate(0.000000, 75.000000)">
                <g id="Seller-Info-Section" transform="translate(10.000000, 165.000000)">
                    <g id="Contact" transform="translate(4.000000, 77.000000)">
                        <path d="M11.442797,8.56372739 L11.442797,10.2856451 C11.444109,10.608875 11.3090889,10.9176799 11.0709074,11.136195 C10.832726,11.3547101 10.5134573,11.4626839 10.1915367,11.4335903 C8.42532774,11.2416773 6.72875965,10.6381473 5.23815333,9.67149448 C3.85133691,8.79025362 2.67555868,7.61447539 1.79431783,6.22765897 C0.824291564,4.73028158 0.220624476,3.0254628 0.032221992,1.25131667 C0.003221,0.930392713 0.110438389,0.612056091 0.327683437,0.374069054 C0.544928485,0.136082016 0.85219592,0.00035988608 1.17442743,5.64323778e-05 L2.89634519,5.64323778e-05 C3.47253563,-0.00561450696 3.96364769,0.416741864 4.04429036,0.987289277 C4.11696849,1.5383411 4.25175243,2.07940234 4.44607116,2.60015224 C4.60376152,3.01965447 4.5029031,3.49256841 4.1877835,3.81123439 L3.45883832,4.54017957 C4.27592013,5.97714624 5.46570716,7.16693327 6.90267382,7.98401508 L7.63161901,7.2550699 C7.95028499,6.9399503 8.42319893,6.83909187 8.84270116,6.99678223 C9.36345105,7.19110096 9.9045123,7.3258849 10.4555641,7.39856304 C11.0327295,7.47998698 11.4572553,7.98102616 11.442797,8.56372739 Z" id="Shape"></path>
                    </g>
                </g>
            </g>
        </g>
    </g>
</svg>