<?xml version="1.0" encoding="UTF-8"?>
<svg width="526px" height="488px" viewBox="0 0 526 488" version="1.1" xmlns="http://www.w3.org/2000/svg" xmlns:xlink="http://www.w3.org/1999/xlink">
    <!-- Generator: Sketch 45.2 (43514) - http://www.bohemiancoding.com/sketch -->
    <title>Header - Cart</title>
    <desc>Created with Sketch.</desc>
    <defs>
        <path d="M214.685,383.828 C189.856,383.828 169.656,404.028 169.656,428.857 C169.656,453.686 189.856,473.886 214.685,473.886 C239.514,473.886 259.714,453.686 259.714,428.857 C259.713,404.028 239.513,383.828 214.685,383.828 Z M214.685,448.742 C203.719,448.742 194.798,439.82 194.798,428.855 C194.798,417.889 203.72,408.968 214.685,408.968 C225.65,408.968 234.572,417.89 234.572,428.855 C234.572,439.822 225.65,448.742 214.685,448.742 Z" id="path-1"></path>
        <filter x="-11.7%" y="-11.7%" width="123.3%" height="123.3%" filterUnits="objectBoundingBox" id="filter-2">
            <feOffset dx="0" dy="0" in="SourceAlpha" result="shadowOffsetOuter1"></feOffset>
            <feGaussianBlur stdDeviation="3.5" in="shadowOffsetOuter1" result="shadowBlurOuter1"></feGaussianBlur>
            <feColorMatrix values="0 0 0 0 0   0 0 0 0 0   0 0 0 0 0  0 0 0 0.5 0" type="matrix" in="shadowBlurOuter1"></feColorMatrix>
        </filter>
        <path d="M372.63,383.828 C347.801,383.828 327.601,404.028 327.601,428.857 C327.601,453.686 347.801,473.886 372.63,473.886 C397.459,473.886 417.659,453.686 417.659,428.857 C417.658,404.028 397.458,383.828 372.63,383.828 Z M372.63,448.742 C361.664,448.742 352.743,439.82 352.743,428.855 C352.743,417.889 361.665,408.968 372.63,408.968 C383.596,408.968 392.517,417.89 392.517,428.855 C392.517,439.822 383.595,448.742 372.63,448.742 Z" id="path-3"></path>
        <filter x="-11.7%" y="-11.7%" width="123.3%" height="123.3%" filterUnits="objectBoundingBox" id="filter-4">
            <feOffset dx="0" dy="0" in="SourceAlpha" result="shadowOffsetOuter1"></feOffset>
            <feGaussianBlur stdDeviation="3.5" in="shadowOffsetOuter1" result="shadowBlurOuter1"></feGaussianBlur>
            <feColorMatrix values="0 0 0 0 0   0 0 0 0 0   0 0 0 0 0  0 0 0 0.5 0" type="matrix" in="shadowBlurOuter1"></feColorMatrix>
        </filter>
        <path d="M383.716,146.755 L203.567,146.755 C196.624,146.755 190.996,152.383 190.996,159.326 C190.996,166.269 196.625,171.897 203.567,171.897 L383.716,171.897 C390.659,171.897 396.287,166.269 396.287,159.326 C396.287,152.382 390.659,146.755 383.716,146.755 Z" id="path-5"></path>
        <filter x="-5.1%" y="-41.8%" width="110.2%" height="183.5%" filterUnits="objectBoundingBox" id="filter-6">
            <feOffset dx="0" dy="0" in="SourceAlpha" result="shadowOffsetOuter1"></feOffset>
            <feGaussianBlur stdDeviation="3.5" in="shadowOffsetOuter1" result="shadowBlurOuter1"></feGaussianBlur>
            <feColorMatrix values="0 0 0 0 0   0 0 0 0 0   0 0 0 0 0  0 0 0 0.5 0" type="matrix" in="shadowBlurOuter1"></feColorMatrix>
        </filter>
        <path d="M373.911,212.035 L213.373,212.035 C206.43,212.035 200.802,217.663 200.802,224.606 C200.802,231.549 206.43,237.177 213.373,237.177 L373.91,237.177 C380.853,237.177 386.481,231.549 386.481,224.606 C386.481,217.664 380.853,212.035 373.911,212.035 Z" id="path-7"></path>
        <filter x="-5.7%" y="-41.8%" width="111.3%" height="183.5%" filterUnits="objectBoundingBox" id="filter-8">
            <feOffset dx="0" dy="0" in="SourceAlpha" result="shadowOffsetOuter1"></feOffset>
            <feGaussianBlur stdDeviation="3.5" in="shadowOffsetOuter1" result="shadowBlurOuter1"></feGaussianBlur>
            <feColorMatrix values="0 0 0 0 0   0 0 0 0 0   0 0 0 0 0  0 0 0 0.5 0" type="matrix" in="shadowBlurOuter1"></feColorMatrix>
        </filter>
        <path d="M506.341,90.744 C501.547,84.86 494.443,81.486 486.852,81.486 L95.278,81.486 L87.37,43.097 C85.719,35.089 80.257,28.365 72.756,25.108 L17.579,1.158 C11.209,-1.609 3.806,1.314 1.043,7.682 C-1.723,14.052 1.2,21.456 7.567,24.219 L62.745,48.17 L123.571,343.431 C125.967,355.059 136.323,363.499 148.196,363.499 L449.362,363.499 C456.305,363.499 461.933,357.871 461.933,350.928 C461.933,343.985 456.305,338.357 449.362,338.357 L148.197,338.357 L140.798,302.441 L451.69,302.441 C463.562,302.441 473.919,294.001 476.314,282.373 L511.477,111.698 C513.008,104.266 511.136,96.627 506.341,90.744 Z M451.69,277.301 L135.619,277.301 L100.458,106.627 L486.851,106.628 L451.69,277.301 Z" id="path-9"></path>
        <filter x="-2.1%" y="-2.9%" width="104.1%" height="105.8%" filterUnits="objectBoundingBox" id="filter-10">
            <feOffset dx="0" dy="0" in="SourceAlpha" result="shadowOffsetOuter1"></feOffset>
            <feGaussianBlur stdDeviation="3.5" in="shadowOffsetOuter1" result="shadowBlurOuter1"></feGaussianBlur>
            <feColorMatrix values="0 0 0 0 0   0 0 0 0 0   0 0 0 0 0  0 0 0 0.5 0" type="matrix" in="shadowBlurOuter1"></feColorMatrix>
        </filter>
    </defs>
    <g id="Page-1" stroke="none" stroke-width="1" fill="none" fill-rule="evenodd">
        <g id="Header---Cart" transform="translate(7.000000, 7.000000)" fill-rule="nonzero">
            <g id="Shape">
                <use fill="black" fill-opacity="1" filter="url(#filter-2)" xlink:href="#path-1"></use>
                <use fill="#FFFFFF" fill-rule="evenodd" xlink:href="#path-1"></use>
            </g>
            <g id="Shape">
                <use fill="black" fill-opacity="1" filter="url(#filter-4)" xlink:href="#path-3"></use>
                <use fill="#FFFFFF" fill-rule="evenodd" xlink:href="#path-3"></use>
            </g>
            <g id="Shape">
                <use fill="black" fill-opacity="1" filter="url(#filter-6)" xlink:href="#path-5"></use>
                <use fill="#FFFFFF" fill-rule="evenodd" xlink:href="#path-5"></use>
            </g>
            <g id="Shape">
                <use fill="black" fill-opacity="1" filter="url(#filter-8)" xlink:href="#path-7"></use>
                <use fill="#FFFFFF" fill-rule="evenodd" xlink:href="#path-7"></use>
            </g>
            <g id="Shape">
                <use fill="black" fill-opacity="1" filter="url(#filter-10)" xlink:href="#path-9"></use>
                <use fill="#FFFFFF" fill-rule="evenodd" xlink:href="#path-9"></use>
            </g>
        </g>
    </g>
</svg>