<?xml version="1.0" encoding="UTF-8"?>
<svg viewBox="0 0 100 100" xmlns="http://www.w3.org/2000/svg">
<g transform="translate(1 1)" fill="none" fill-rule="evenodd" opacity=".419">
<path d="m51.543 94.631l-5.16-1.012c-0.552-0.108-0.912-0.643-0.803-1.195l1.65-8.416c0.109-0.552 0.644-0.911 1.196-0.803l5.16 1.012c0.552 0.108 0.911 0.643 0.803 1.195l-1.651 8.416c-0.108 0.552-0.643 0.911-1.195 0.803zm-2.0142 0.7175c-0.047 0.217-0.421 0.321-0.834 0.231s-0.71-0.339-0.662-0.557c0.047-0.217 0.42-0.321 0.834-0.231 0.413 0.09 0.709 0.34 0.662 0.557z" stroke="#000" stroke-width=".1"/>
<path d="m52.417 83.107l-0.309 0.294c-0.092 0.087-0.221 0.125-0.345 0.1l-1.64-0.325c-0.168-0.034-0.312-0.141-0.392-0.291l-0.199-0.374 2.885 0.596zm0.413 13.161l2.314-11.798c0.09-0.459-0.208-0.903-0.667-0.993l-6.719-1.318c-0.458-0.09-0.903 0.209-0.993 0.668l-2.314 11.798c-0.09 0.458 0.209 0.903 0.667 0.993l6.719 1.318c0.459 0.09 0.903-0.209 0.993-0.668z" stroke="#000" stroke-width=".1"/>
<path d="m53.762 83.856c-0.052 0.105-0.179 0.147-0.284 0.095-0.104-0.052-0.147-0.179-0.095-0.284 0.052-0.104 0.179-0.147 0.284-0.095s0.147 0.179 0.095 0.284zm32.732-77.122c-0.188 1.119-1.261 2.221-2.719 2.323-1.42 0.099-2.37-1.119-2.37-2.194s0.891-1.828 2.523-1.677c1.417 0.131 2.74 0.51 2.566 1.548zm2.3779-0.4992c0.188 1.119 1.261 2.221 2.719 2.323 1.42 0.099 2.37-1.119 2.37-2.194s-0.891-1.828-2.523-1.677c-1.417 0.131-2.74 0.51-2.566 1.548z" stroke="#000" stroke-width=".1"/>
<path d="m83.971 4.7234c-2.015-0.189-3.117 0.752-3.117 2.095 0 0.322 0.068 0.653 0.195 0.97l-0.418 0.295c-0.141 0.1-0.192 0.286-0.121 0.444l0.01 0.023c0.092 0.204 0.346 0.276 0.532 0.151l0.38-0.23-0.383-0.68c0.679 1.438 1.599 1.862 2.734 1.768 1.798-0.149 3.127-1.505 3.358-2.902 0.215-1.297-1.419-1.77-3.17-1.934zm10.947 2.4335l-0.441-0.312-0.061 0.157c0.063-0.227 0.097-0.457 0.097-0.683 0-1.342-1.102-2.283-3.117-2.095-1.75 0.164-3.385 0.638-3.17 1.934 0.232 1.398 1.558 2.774 3.358 2.902 1.23 0.087 2.251-0.686 2.849-2.086l-0.286 0.588 0.35 0.213c0.186 0.125 0.44 0.053 0.532-0.151l0.01-0.023c0.071-0.158 0.02-0.344-0.121-0.444zm-7.9644-1.3998s0.551-0.658 1.276-0.121m-1.0896 0.666s0.47-0.658 1.09-0.121" stroke="#000" stroke-width=".1"/>
<path d="m94.684 5.2171c0.029 0.184-0.058 0.35-0.195 0.372s-0.272-0.11-0.301-0.293c-0.029-0.184 0.058-0.351 0.195-0.372 0.137-0.022 0.272 0.109 0.301 0.293zm-13.71 1.0599c-0.013 0.186-0.136 0.328-0.275 0.318-0.138-0.01-0.239-0.168-0.226-0.354 0.013-0.185 0.136-0.328 0.275-0.318 0.138 0.01 0.239 0.168 0.226 0.354zm-41.579 57.017l1.847 2.94 0.154 0.731s0.53 7.711 0.901 9.042c0 0-0.074 1.023 1.918-1.039 0 0 1.678 0.112 2.498-1.025-8e-3 7e-3 1.571 0.114 2.471-1.068 7e-3 7e-3 1.855-8e-3 1.495-0.361-0.324-0.387-4.281-5.548-5.895-7.131-0.241-0.326-0.275-0.404-0.275-0.404l-0.909-3.345s-1.244-0.614-1.149-2.33c-0.369 0.153-0.621 0.254-0.621 0.254s0.379 4.423-2.613 1.097c-0.527 0.26-0.556 0.268-0.556 0.268s1.378 1.181 0.734 2.371z" stroke="#000" stroke-width=".1"/>
<path d="m39.051 61.313s-0.237 0.957-0.694 0.542c-0.305-0.347 0.255-0.887 0.255-0.887l3.932-1.622s1.006-0.14 0.922 0.398c-1e-3 0.019 0.127 0.449-0.95 0.242-0.292 0.138-3.465 1.327-3.465 1.327z" stroke="#000" stroke-width=".1"/>
<polyline points="40.021 60.362 40.094 59.662 40.756 59.352 41.282 59.873" stroke="#000" stroke-width=".1"/>
<path d="m39.754 59.027s-0.119-0.782 0.618-0.478c0 0 0.346 0.402-0.037 0.659-9e-3 -0.01 0.138 0.273 0.138 0.273m-5.8921 35.55l-7.999 2.455c-0.446 0.137-0.917-0.124-1.037-0.575l-2.72-10.204c-0.115-0.434 0.138-0.88 0.57-1.003l7.396-2.114c0.423-0.121 0.866 0.112 1.006 0.528l3.323 9.863c0.147 0.439-0.096 0.914-0.539 1.05z" stroke="#000" stroke-width=".1"/>
<path d="m24.933 85.275c-0.543-1.766 0.372-2.842 1.403-3.085 1.172-0.276 2.282 0.449 2.755 1.933" stroke="#000" stroke-width=".1"/>
<path d="m25.349 85.11c-0.449-1.459 0.256-2.333 1.062-2.519 0.917-0.212 1.798 0.398 2.188 1.625" stroke="#000" stroke-width=".1"/>
<path d="m25.68 84.956c-0.412-1.46 0.131-2.261 0.778-2.382 0.736-0.139 1.47 0.523 1.826 1.752m-4.6804-27.905c-1.243 0.364-2.55-0.36-2.918-1.617 0.368 1.257 1.675 1.981 2.918 1.617s1.952-1.679 1.584-2.936c0.368 1.257-0.341 2.572-1.584 2.936zm1.758-3.026c0.013-0.036-4.72 1.391-4.72 1.391s-2.015 0.325-3.832 3.972c1.709 0.918 2.407 1.391 2.407 1.391l0.845-1.17 2.274 8.046 7.839-2.146-2.232-8.274 1.332 0.56 1.33-2.348s-3.052-2.067-5.243-1.422zm-8.2976 12.891c1.044 3.498-0.945 7.18-4.443 8.224s-7.179-0.945-8.224-4.443c-1.044-3.498 0.945-7.18 4.443-8.224s7.18 0.945 8.224 4.443z" stroke="#000" stroke-width=".1"/>
<path d="m6.0712 72.07l-0.095-0.317 0.288-0.514c0.698-1.219 0.991-1.844 0.825-2.421-0.116-0.387-0.41-0.689-0.98-0.519-0.346 0.103-0.581 0.365-0.714 0.564l-0.273-0.315c0.198-0.302 0.524-0.578 0.965-0.71 0.822-0.245 1.336 0.215 1.499 0.761 0.211 0.705-0.13 1.427-0.703 2.442l-0.221 0.373 3e-3 0.012 1.715-0.512 0.128 0.429-2.437 0.727zm4.1776-2.8202l-0.38-1.274c-0.06-0.2-0.114-0.401-0.161-0.604l-0.018 5e-3c-0.051 0.258-0.096 0.451-0.149 0.658l-0.546 1.577 3e-3 0.011 1.251-0.373zm0.431 1.444l-0.31-1.039-1.773 0.529-0.102-0.34 0.975-2.945 0.558-0.166 0.708 2.372 0.535-0.16 0.121 0.405-0.535 0.16 0.311 1.039-0.488 0.145z" stroke="#000" stroke-width=".1"/>
<polygon points="11.895 70.587 12.262 65.841 12.662 65.722 12.288 70.47" stroke="#000" stroke-width=".1"/>
<polygon points="15.447 65.114 15.549 65.454 14.925 69.426 14.39 69.586 15.038 65.716 15.035 65.704 13.168 66.261 13.04 65.833" stroke="#000" stroke-width=".1"/>
<path d="m94.979 39.179l-2.713-5.223c-0.478-0.922-1.411-1.35-2.585-0.992l-6.98 3.838 5.398-3.016-2.156 0.029-2.719 1.556-0.541 1.442-1.782 0.925c-0.921 0.479-1.281 1.614-0.802 2.536l2.713 5.224c0.479 0.922 1.614 1.281 2.536 0.802l8.829-4.585c0.922-0.479 1.281-1.614 0.802-2.536z" stroke="#000" stroke-width=".1"/>
<path d="m85.732 44.725c-0.335 0.183-0.755 0.059-0.938-0.276l-2.714-4.974c-0.183-0.335-0.06-0.756 0.276-0.938 0.335-0.183 0.755-0.06 0.938 0.275l2.714 4.975c0.183 0.335 0.059 0.755-0.276 0.938zm-1.4641-6.7361c0.029 0.193-0.103 0.372-0.296 0.402-0.192 0.029-0.372-0.103-0.401-0.296-0.03-0.192 0.103-0.372 0.295-0.402 0.193-0.029 0.373 0.103 0.402 0.296zm5.1557 0.7547c0.043 0.283-0.152 0.548-0.435 0.591s-0.548-0.152-0.591-0.435 0.152-0.548 0.435-0.591 0.548 0.152 0.591 0.435z" stroke="#000" stroke-width=".1"/>
<path d="m92.42 38.343c0.301 1.975-1.057 3.82-3.032 4.12-1.975 0.301-3.819-1.057-4.12-3.032-0.3-1.975 1.057-3.819 3.032-4.12 1.975-0.3 3.819 1.057 4.12 3.032z" stroke="#000" stroke-width=".1"/>
<path d="m91.783 38.44c0.247 1.623-0.868 3.139-2.491 3.386s-3.139-0.869-3.386-2.492 0.869-3.138 2.491-3.385c1.623-0.247 3.139 0.868 3.386 2.491z" stroke="#000" stroke-width=".1"/>
<path d="m91.315 38.512c0.208 1.364-0.73 2.639-2.094 2.846-1.365 0.208-2.639-0.73-2.847-2.094-0.207-1.365 0.731-2.639 2.095-2.846 1.364-0.208 2.638 0.73 2.846 2.094zm-5.3803-3.8005l-1.75 0.961c-0.112 0.062-0.253 0.021-0.315-0.091-0.061-0.112-0.02-0.253 0.092-0.315l1.75-0.961c0.112-0.062 0.253-0.021 0.315 0.091 0.061 0.112 0.02 0.253-0.092 0.315z" stroke="#000" stroke-width=".1"/>
<polyline points="80.901 37.739 80.7 37.406 81.793 36.819 81.967 37.158" stroke="#000" stroke-width=".1"/>
<path d="m94.778 26.969l-8.605 1.503c-1.703 0.298-3.325-0.842-3.623-2.545-0.297-1.703 0.842-3.325 2.546-3.623l8.604-1.503c1.704-0.298 3.326 0.842 3.623 2.545 0.298 1.703-0.842 3.325-2.545 3.623z" stroke="#000" stroke-width=".1"/>
<path d="m94.682 26.313l-8.466 1.479c-1.341 0.234-2.617-0.662-2.851-2.003-0.235-1.34 0.662-2.617 2.003-2.851l8.466-1.479c1.34-0.234 2.617 0.662 2.851 2.003 0.234 1.34-0.663 2.617-2.003 2.851zm-10.172-3.8865l3.214-6.523c0.293-0.595 1.081-0.731 1.557-0.269l5.186 5.038" stroke="#000" stroke-width=".1"/>
<path d="m85.385 22.281l2.655-5.218c0.242-0.475 0.889-0.587 1.278-0.219l4.238 4.006" stroke="#000" stroke-width=".1"/>
<path d="m89.125 16.14c-0.077 0.345-0.42 0.563-0.765 0.485-0.346-0.077-0.563-0.42-0.486-0.765 0.078-0.345 0.42-0.563 0.766-0.485 0.345 0.077 0.562 0.42 0.485 0.765zm-3.2764 9.2722c0.092 0.516 0.4 0.836 0.798 0.765 0.403-0.073 0.565-0.497 0.473-1.009-0.085-0.473-0.384-0.838-0.794-0.765-0.403 0.072-0.569 0.497-0.477 1.009zm1.897-0.376c0.154 0.864-0.276 1.481-1.045 1.619-0.782 0.14-1.345-0.368-1.479-1.119-0.141-0.789 0.257-1.47 1.034-1.609 0.81-0.145 1.36 0.382 1.49 1.109zm0.9697-0.2343c0.053 3e-3 0.116-5e-3 0.202-0.02 0.317-0.057 0.483-0.252 0.435-0.522-0.043-0.242-0.237-0.356-0.534-0.303-0.121 0.022-0.201 0.048-0.242 0.067l0.139 0.778zm-0.804-1.09c0.178-0.064 0.432-0.134 0.795-0.199 0.368-0.066 0.642-0.042 0.843 0.067 0.192 0.103 0.344 0.301 0.391 0.559 0.046 0.258-1e-3 0.492-0.131 0.669-0.169 0.228-0.454 0.368-0.806 0.431-0.078 0.014-0.149 0.022-0.205 0.024l0.168 0.942-0.59 0.106-0.465-2.599z" stroke="#000" stroke-width=".1"/>
<polygon points="92.014 24.511 91.046 24.683 91.157 25.309 92.24 25.116 92.328 25.604 90.647 25.904 90.175 23.27 91.8 22.98 91.888 23.468 90.861 23.652 90.959 24.2 91.927 24.026" stroke="#000" stroke-width=".1"/>
<path d="m92.733 25.531l-0.472-2.634 0.696-0.124 0.72 0.867c0.206 0.249 0.421 0.55 0.591 0.826l0.012-2e-3c-0.101-0.341-0.176-0.695-0.247-1.09l-0.138-0.769 0.547-0.098 0.472 2.633-0.626 0.112-0.744-0.915c-0.207-0.253-0.44-0.562-0.624-0.848l-0.011 6e-3c0.078 0.345 0.152 0.715 0.229 1.145l0.142 0.793-0.547 0.098zm-62.009 55.072l-5.074-2.64c-0.389-0.202-0.54-0.682-0.338-1.071l3.509-6.743c0.298-0.573 1.004-0.796 1.577-0.498l4.385 2.282c0.586 0.305 0.814 1.026 0.509 1.612l-3.497 6.72c-0.202 0.389-0.682 0.54-1.071 0.338zm3.6696-9.2181l-3.205-1.668c-0.142-0.073-0.197-0.248-0.123-0.39l0.576-1.107c0.074-0.142 0.249-0.197 0.39-0.123l3.205 1.667c0.142 0.074 0.197 0.249 0.123 0.39l-0.576 1.108c-0.074 0.142-0.248 0.197-0.39 0.123z" stroke="#000" stroke-width=".1"/>
<path d="m31.936 78.167l-4.986-2.594c-0.157-0.082-0.218-0.275-0.136-0.432l1.608-3.091c0.082-0.156 0.275-0.217 0.432-0.136l4.986 2.594c0.156 0.082 0.217 0.275 0.136 0.432l-1.608 3.091c-0.082 0.157-0.275 0.218-0.432 0.136z" stroke="#000" stroke-width=".1"/>
<path d="m32.724 75.541l-4.171-2.17c-0.138-0.072-0.192-0.243-0.12-0.381s0.242-0.192 0.38-0.12l4.171 2.17c0.139 0.072 0.192 0.243 0.12 0.381-0.071 0.138-0.242 0.192-0.38 0.12zm-0.4216 0.8104l-4.171-2.17c-0.138-0.072-0.192-0.243-0.12-0.381s0.242-0.192 0.38-0.12l4.171 2.17c0.139 0.072 0.192 0.243 0.12 0.381-0.071 0.138-0.242 0.192-0.38 0.12zm-0.4217 0.8103l-4.171-2.17c-0.138-0.072-0.192-0.243-0.12-0.381s0.242-0.192 0.38-0.12l4.171 2.17c0.139 0.072 0.192 0.243 0.12 0.381-0.071 0.138-0.242 0.192-0.38 0.12zm10.84-39.629c-0.257 0.6-0.952 0.878-1.552 0.62-0.601-0.257-0.878-0.952-0.621-1.552s0.953-0.878 1.553-0.62c0.6 0.257 0.877 0.952 0.62 1.552z" stroke="#000" stroke-width=".1"/>
<path d="m42.095 37.264c-0.109 0.254-0.404 0.372-0.658 0.263s-0.372-0.404-0.263-0.658 0.404-0.372 0.658-0.263 0.372 0.404 0.263 0.658zm10.361 2.1783c-0.257 0.6-0.952 0.878-1.552 0.62-0.601-0.257-0.878-0.952-0.621-1.552s0.953-0.878 1.553-0.62c0.6 0.257 0.877 0.952 0.62 1.552z" stroke="#000" stroke-width=".1"/>
<path d="m49.858 38.678c0.164-0.833 0.963-1.378 1.786-1.216 0.823 0.161 1.357 0.968 1.193 1.801" stroke="#000" stroke-width=".1"/>
<path d="m51.829 39.174c-0.109 0.254-0.404 0.372-0.658 0.263s-0.372-0.404-0.263-0.658 0.404-0.372 0.658-0.263 0.372 0.404 0.263 0.658zm-9.9202-3.6226c0.634 0.124 1.095 0.632 1.199 1.24l6.886 1.448 1.484-6.424-10.287-2.088-1.226 6.403 0.386 0.081c0.331-0.502 0.938-0.782 1.558-0.66zm8.246 2.4498l1.008-3.953 0.662-0.52 2.081 0.396s0.785 0.76 0.897 2.782c-0.113 0.741-0.477 2.441-0.477 2.441l-1.472-0.281 0.523 0.108 0.548-3.288s0.403-1.45-1.537-1.697c-0.182-0.02-0.69-0.267-0.819 0.818 0.016-0.037-0.502 2.635-0.502 2.635" stroke="#000" stroke-width=".1"/>
<path d="m51.68 35.98l1.757 0.505 0.198-1.245s-0.079-1.247-1.623-0.682c-0.048 0.214-0.332 1.422-0.332 1.422zm-8.7899 0.2496l7.267 1.495m-28.504-7.8778s-1.281-0.127-0.252-0.743c0.522-0.259 3.639-1.37 3.639-1.37s0.989 0.712 2.723-1.403c0.152-0.323 3.406-5.511 3.71-5.617 0.446 0.363 3.063 1.581 1.255 4.668-0.159 0.735-1.004 3.767-0.984 6.028l-0.822-0.207 0.617-4.279s0.493-1.377-1.025 0.044c-0.363 0.255-1.194 1.382-2.569 2.892-0.042 0.056-0.394 1.171-3.012 0.684-0.056-0.041-3.28-0.697-3.28-0.697zm-12.036-14.384l-7.807-2.052c-1.386-0.364-2.13-1.909-1.576-3.27l2.663-6.543c0.255-0.625 0.922-0.957 1.554-0.774l7.862 2.282c0.605 0.176 0.998 0.774 0.932 1.419l-0.699 6.836c-0.151 1.472-1.538 2.468-2.929 2.102z" stroke="#000" stroke-width=".1"/>
<path d="m11.264 6.1732c0.717-2.63-0.155-5.157-1.947-5.646-1.792-0.488-3.826 1.247-4.542 3.877 0 0-0.177 1.915 0.887 0.222" stroke="#000" stroke-width=".1"/>
<path d="m5.6624 4.6462c0.833-1.896 2.234-3.171 3.34-2.804 1.475 0.49 1.895 2.179 1.374 4.089 0 0-0.422 2.443 0.899 0.225m-10.604 2.8837s-0.075 1.935 1.396 2.255c1.145 0.335 3.004 0.848 3.004 0.848l5.516 1.293s1.949 0.399 2.117-1.69" stroke="#000" stroke-width=".1"/>
<polygon points="81.674 91.019 81.26 88.62 90.906 86.715 91.669 91.029 81.976 89.397" stroke="#000" stroke-width=".1"/>
<path d="m81.953 89.445c0.019-0.185 0.184-0.319 0.368-0.3 0.185 0.019 0.319 0.184 0.3 0.368m7.9155-1.9084c0.04 0.181-0.074 0.36-0.255 0.401-0.181 0.04-0.36-0.074-0.401-0.255-0.04-0.181 0.074-0.361 0.255-0.401s0.361 0.074 0.401 0.255zm0.4981 2.435c0.04 0.181-0.074 0.36-0.255 0.401-0.181 0.04-0.36-0.074-0.401-0.255-0.04-0.181 0.074-0.361 0.255-0.401s0.361 0.074 0.401 0.255z" stroke="#000" stroke-width=".1"/>
<polygon points="81.598 90.893 80.196 87.562 88.976 83.136 90.807 86.591 81.175 88.495" stroke="#000" stroke-width=".1"/>
<path d="m81.732 87.871c0.087 0.164 0.026 0.367-0.138 0.454-0.164 0.088-0.367 0.026-0.454-0.138-0.088-0.163-0.026-0.367 0.138-0.454 0.163-0.087 0.367-0.026 0.454 0.138zm7.2333-3.6533c0.087 0.164 0.026 0.367-0.138 0.454-0.164 0.088-0.367 0.026-0.454-0.138-0.088-0.163-0.026-0.367 0.138-0.454 0.163-0.087 0.367-0.026 0.454 0.138zm-6.0684 5.8525c0.087 0.164 0.026 0.367-0.138 0.454-0.164 0.088-0.367 0.026-0.454-0.138-0.088-0.163-0.026-0.367 0.138-0.454 0.163-0.087 0.367-0.026 0.454 0.138zm7.2021-3.6406c0.087 0.164 0.026 0.367-0.138 0.454-0.164 0.088-0.367 0.026-0.454-0.138-0.088-0.163-0.026-0.367 0.138-0.454 0.163-0.087 0.367-0.026 0.454 0.138z" stroke="#000" stroke-width=".1"/>
<polygon points="81.227 93.494 81.952 89.41 91.652 91.022 91.088 95.133" stroke="#000" stroke-width=".1"/>
<path d="m90.994 91.725c-0.026 0.184-0.196 0.311-0.38 0.285-0.183-0.026-0.311-0.196-0.285-0.379 0.026-0.184 0.196-0.312 0.38-0.286 0.183 0.026 0.311 0.196 0.285 0.38zm-8.3532 1.1408c-0.026 0.184-0.196 0.311-0.38 0.285-0.183-0.026-0.311-0.196-0.285-0.379 0.026-0.184 0.196-0.312 0.38-0.286 0.183 0.026 0.311 0.196 0.285 0.38zm7.9623 1.3138c-0.026 0.184-0.196 0.311-0.38 0.285-0.183-0.026-0.311-0.196-0.285-0.379 0.026-0.184 0.196-0.312 0.38-0.286 0.183 0.026 0.311 0.196 0.285 0.38zm-2.6183-1.9683c0 0.82-0.665 1.484-1.484 1.484-0.82 0-1.485-0.664-1.485-1.484s0.665-1.484 1.485-1.484c0.819 0 1.484 0.664 1.484 1.484zm-0.7506-1.9238l0.556 0.092c0.212-0.371 0.263-0.83 0.101-1.261-0.288-0.767-1.144-1.155-1.912-0.867-0.688 0.259-1.07 0.975-0.933 1.673l1.736 0.288m-0.2576-2.6698l0.574-0.109c0.042-0.359-0.045-0.733-0.275-1.047-0.484-0.661-1.412-0.805-2.074-0.321-0.605 0.442-0.776 1.256-0.431 1.898l1.765-0.337c-1e-3 -0.025-7e-3 -0.05-0.022-0.074" stroke="#000" stroke-width=".1"/>
<path d="m86.265 91.277c0.071 0.011 0.122 0.05 0.153 0.115 0.034 0.064 0.045 0.146 0.034 0.246l-0.059 0.374 0.099 0.016 0.14 0.197-0.266-0.042-0.077 0.483c-6e-3 0.038 3e-3 0.075 0.026 0.11 0.024 0.035 0.068 0.058 0.132 0.068 0.083 0.014 0.178-0.019 0.285-0.097 0.11-0.079 0.175-0.169 0.196-0.268l-0.044-3e-3c-0.151-0.024-0.215-0.116-0.189-0.278 9e-3 -0.054 0.034-0.1 0.076-0.137 0.043-0.037 0.105-0.049 0.188-0.036 0.088 0.014 0.156 0.064 0.203 0.149 0.05 0.085 0.066 0.183 0.048 0.292-0.025 0.161-0.118 0.304-0.279 0.43-0.159 0.125-0.331 0.173-0.519 0.143-0.069-0.011-0.137-0.052-0.206-0.123-0.066-0.074-0.102-0.141-0.107-0.2l0.089-0.562-0.171-0.027-0.136-0.196 0.334 0.053 0.054-0.338c0.01-0.069-0.025-0.116-0.106-0.141-0.038-6e-3 -0.064-4e-3 -0.077 6e-3 -0.016-0.039-0.029-0.085-0.04-0.138l2e-3 -0.017c5e-3 -0.031 0.033-0.053 0.084-0.067s0.095-0.018 0.133-0.012m7.6928-1.8259c-0.812 0.111-1.561-0.458-1.671-1.271-0.111-0.812 0.458-1.56 1.271-1.671 0.812-0.11 1.56 0.459 1.671 1.271 0.11 0.812-0.459 1.56-1.271 1.671z" stroke="#000" stroke-width=".1"/>
<path d="m94.682 87.498c2e-3 0.078-0.029 0.14-0.092 0.186-0.062 0.048-0.147 0.077-0.256 0.085l-0.409 0.011 3e-3 0.109-0.182 0.189-8e-3 -0.293-0.53 0.015c-0.042 1e-3 -0.079 0.018-0.112 0.05s-0.049 0.083-0.047 0.153c3e-3 0.091 0.056 0.186 0.16 0.285 0.107 0.101 0.215 0.152 0.325 0.155l-6e-3 -0.047c-4e-3 -0.166 0.082-0.252 0.259-0.257 0.059-1e-3 0.113 0.017 0.161 0.054 0.048 0.038 0.073 0.102 0.076 0.193 2e-3 0.096-0.037 0.178-0.118 0.245-0.082 0.07-0.182 0.107-0.302 0.11-0.176 5e-3 -0.347-0.066-0.513-0.212-0.165-0.144-0.25-0.318-0.256-0.524-2e-3 -0.075 0.028-0.156 0.091-0.244 0.065-0.085 0.129-0.136 0.191-0.154l0.616-0.016-6e-3 -0.188 0.183-0.184 0.01 0.366 0.37-0.01c0.075-2e-3 0.118-0.049 0.129-0.14-1e-3 -0.042-9e-3 -0.069-0.022-0.081 0.038-0.025 0.085-0.048 0.139-0.07l0.019-1e-3c0.034-1e-3 0.063 0.024 0.088 0.076 0.025 0.051 0.038 0.097 0.039 0.139m-8.4939 0.0551c0.018 0 0.033 4e-3 0.049 7e-3 0.036-0.028 0.082-0.046 0.136-0.053 0.028-0.132 0.025-0.255-0.016-0.37-0.041-0.112-0.107-0.196-0.199-0.251-0.09-0.056-0.18-0.068-0.27-0.035-0.086 0.031-0.139 0.075-0.16 0.132-0.02 0.057-0.021 0.114 0 0.17 0.06 0.166 0.168 0.221 0.325 0.165l0.042-0.02c0.026 0.082 0.019 0.174-0.015 0.274 0.032-0.011 0.068-0.019 0.108-0.019zm-0.8427 0.1598c0.032-0.011 0.067-0.019 0.107-0.019 0.017 0 0.033 3e-3 0.048 5e-3 0.011-1e-3 0.021-5e-3 0.033-5e-3 4e-3 0 8e-3 1e-3 0.013 2e-3l-0.139-0.385 0.275-0.1-0.236-0.114-0.103 0.038-0.139-0.386c-0.042-0.1-0.096-0.172-0.161-0.215-0.064-0.046-0.132-0.056-0.205-0.029-0.04 0.014-0.08 0.041-0.121 0.08-0.041 0.04-0.055 0.076-0.044 0.108l7e-3 0.018c0.038 0.044 0.075 0.081 0.11 0.109 8e-3 -0.016 0.031-0.032 0.07-0.046 0.09-0.019 0.148 8e-3 0.174 0.078l0.126 0.349-0.345 0.125 0.232 0.115 0.176-0.064 0.122 0.336zm1.7163 2.5373c0.019 7e-3 0.033 0.016 0.049 0.025 0.048-0.015 0.103-0.017 0.161-5e-3 0.078-0.127 0.12-0.258 0.119-0.392-1e-3 -0.133-0.039-0.245-0.115-0.336-0.073-0.092-0.163-0.137-0.269-0.136-0.101 1e-3 -0.173 0.027-0.216 0.079-0.042 0.052-0.063 0.112-0.063 0.178 2e-3 0.196 0.095 0.293 0.279 0.291l0.052-4e-3c-4e-3 0.095-0.045 0.188-0.117 0.28 0.038 0 0.078 5e-3 0.12 0.02zm-0.9392-0.1429c0.038 0 0.077 5e-3 0.119 0.02 0.018 6e-3 0.033 0.014 0.048 0.022 0.012 3e-3 0.024 3e-3 0.036 7e-3 5e-3 2e-3 9e-3 5e-3 0.013 7e-3l-3e-3 -0.454 0.324-2e-3 -0.205-0.206-0.121 1e-3 -4e-3 -0.454c-7e-3 -0.121-0.036-0.215-0.089-0.284-0.049-0.072-0.117-0.107-0.204-0.106-0.046 0-0.098 0.013-0.155 0.04-0.057 0.026-0.086 0.058-0.086 0.096l1e-3 0.021c0.023 0.061 0.048 0.112 0.074 0.155 0.015-0.014 0.045-0.022 0.091-0.022 0.101 0.013 0.152 0.062 0.152 0.145l4e-3 0.411-0.406 3e-3 0.2 0.206 0.208-2e-3 3e-3 0.396zm8.4809 3.2127c-0.812 0.111-1.561-0.458-1.671-1.271-0.111-0.812 0.458-1.56 1.271-1.671 0.812-0.11 1.56 0.459 1.671 1.271 0.11 0.812-0.459 1.56-1.271 1.671z" stroke="#000" stroke-width=".1"/>
<path d="m95.326 91.367c2e-3 0.078-0.029 0.14-0.092 0.186-0.062 0.048-0.147 0.077-0.256 0.085l-0.409 0.011 3e-3 0.109-0.182 0.189-8e-3 -0.293-0.53 0.015c-0.042 1e-3 -0.079 0.018-0.112 0.05s-0.049 0.083-0.047 0.153c3e-3 0.091 0.056 0.186 0.16 0.285 0.107 0.101 0.215 0.152 0.325 0.155l-6e-3 -0.047c-4e-3 -0.166 0.082-0.252 0.259-0.257 0.059-1e-3 0.113 0.017 0.161 0.054 0.048 0.038 0.073 0.102 0.076 0.193 2e-3 0.096-0.037 0.178-0.118 0.245-0.082 0.07-0.182 0.107-0.302 0.11-0.176 5e-3 -0.347-0.066-0.513-0.212-0.165-0.144-0.25-0.318-0.256-0.524-2e-3 -0.075 0.028-0.156 0.091-0.244 0.065-0.085 0.129-0.136 0.191-0.154l0.616-0.016-6e-3 -0.188 0.183-0.184 0.01 0.366 0.37-0.01c0.075-2e-3 0.118-0.049 0.129-0.14-1e-3 -0.042-9e-3 -0.069-0.022-0.081 0.038-0.025 0.085-0.048 0.139-0.07l0.019-1e-3c0.034-1e-3 0.063 0.024 0.088 0.076 0.025 0.051 0.038 0.097 0.039 0.139m2.1451 1.5305c0.4 0.715 0.145 1.62-0.571 2.02-0.715 0.401-1.62 0.145-2.02-0.57-0.4-0.716-0.145-1.62 0.571-2.021 0.715-0.4 1.62-0.144 2.02 0.571z" stroke="#000" stroke-width=".1"/>
<path d="m95.389 92.94c0.072-0.031 0.141-0.025 0.207 0.018 0.067 0.039 0.125 0.108 0.172 0.206l0.161 0.377 0.1-0.043 0.242 0.101-0.269 0.114 0.208 0.488c0.016 0.039 0.045 0.067 0.087 0.086s0.096 0.015 0.16-0.013c0.084-0.035 0.153-0.12 0.206-0.253 0.055-0.136 0.064-0.256 0.026-0.358l-0.042 0.022c-0.153 0.065-0.264 0.016-0.334-0.147-0.023-0.055-0.026-0.111-8e-3 -0.17 0.017-0.058 0.068-0.105 0.152-0.141 0.088-0.037 0.179-0.031 0.271 0.02 0.095 0.051 0.166 0.131 0.212 0.241 0.07 0.162 0.067 0.347-9e-3 0.555-0.073 0.206-0.204 0.35-0.393 0.43-0.07 0.03-0.157 0.031-0.261 5e-3 -0.103-0.03-0.174-0.07-0.213-0.121l-0.241-0.567-0.173 0.073-0.238-0.102 0.337-0.144-0.145-0.341c-0.029-0.069-0.088-0.092-0.177-0.068-0.039 0.016-0.061 0.033-0.068 0.05-0.037-0.027-0.075-0.061-0.116-0.103l-8e-3 -0.018c-0.013-0.031 0-0.068 0.039-0.11 0.038-0.042 0.077-0.071 0.115-0.087m-0.2411 1.1762c-0.013 0.82-0.688 1.474-1.507 1.461-0.82-0.013-1.474-0.688-1.462-1.507 0.013-0.82 0.688-1.474 1.508-1.461 0.82 0.012 1.474 0.687 1.461 1.507z" stroke="#000" stroke-width=".1"/>
<path d="m93.326 93.107c0.077 0.01 0.134 0.049 0.17 0.119 0.039 0.068 0.054 0.156 0.046 0.265l-0.051 0.407 0.109 0.013 0.159 0.209-0.291-0.036-0.065 0.526c-5e-3 0.041 6e-3 0.081 0.033 0.118 0.026 0.037 0.075 0.06 0.144 0.069 0.091 0.011 0.192-0.027 0.305-0.115 0.116-0.091 0.184-0.19 0.202-0.298l-0.047-2e-3c-0.165-0.02-0.236-0.118-0.215-0.293 8e-3 -0.06 0.034-0.11 0.078-0.152s0.112-0.057 0.202-0.046c0.096 0.012 0.171 0.063 0.225 0.154 0.057 0.091 0.078 0.196 0.063 0.314-0.022 0.176-0.117 0.334-0.287 0.476-0.167 0.141-0.352 0.2-0.556 0.174-0.075-9e-3 -0.151-0.051-0.228-0.126-0.074-0.077-0.115-0.148-0.123-0.212l0.076-0.611-0.186-0.023-0.155-0.208 0.364 0.045 0.045-0.368c0.01-0.075-0.03-0.124-0.119-0.148-0.041-5e-3 -0.069-2e-3 -0.083 9e-3 -0.019-0.042-0.035-0.091-0.049-0.148l2e-3 -0.019c5e-3 -0.033 0.034-0.059 0.088-0.075 0.055-0.017 0.103-0.023 0.144-0.018m-63.582-87.947l-10.136 2.487c-0.276 0.068-0.475 0.315-0.492 0.613l-0.184 3.183c-0.027 0.47 0.393 0.841 0.827 0.732l11.94-3.005c0.433-0.109 0.627-0.632 0.383-1.033l-1.451-2.387-11.524 2.94 11.524-2.94-0.169-0.278c-0.154-0.254-0.444-0.379-0.718-0.312zm-9.8599 7.0327s0.809 0.261 0.457-3.766m0.9152 3.3842s0.809 0.261 0.457-3.766m0.9262 3.428s0.809 0.261 0.457-3.766m1.1333 3.4008s0.834 0.165 0.015-3.794m7.3204 1.9442s-0.593 0.609-2.165-3.115m0.7735 3.4193s-0.593 0.609-2.165-3.115m0.7843 3.463s-0.593 0.609-2.165-3.115m0.5885 3.5359s-0.66 0.536-1.788-3.346" stroke="#000" stroke-width=".1"/>
<polyline points="19.53 12.152 21.115 18.388 33.338 15.3 31.85 9.114" stroke="#000" stroke-width=".1"/>
<polygon points="32.228 14.033 28.619 14.831 27.632 10.364 31.241 9.567" stroke="#000" stroke-width=".1"/>
<polygon points="31.902 13.805 28.818 14.487 27.958 10.592 31.041 9.91" stroke="#000" stroke-width=".1"/>
<polygon points="25.055 16.026 21.473 16.938 20.345 12.505 23.926 11.592" stroke="#000" stroke-width=".1"/>
<polygon points="24.722 15.808 21.662 16.587 20.677 12.722 23.738 11.942" stroke="#000" stroke-width=".1"/>
<polygon points="28.531 16.507 25.907 17.194 24.932 12.904 27.44 12.237" stroke="#000" stroke-width=".1"/>
<polygon points="27.771 14.663 25.754 15.191 25.295 13.203 27.222 12.664" stroke="#000" stroke-width=".1"/>
<path d="m15.289 31.979l-8.692 2.326c-0.355 0.095-0.73-0.06-0.915-0.378l-3.818-6.575c-0.267-0.459-0.03-1.046 0.48-1.192l12.09-3.461c0.503-0.144 1.009 0.217 1.037 0.739l0.421 7.71c0.021 0.384-0.231 0.731-0.603 0.831z" stroke="#000" stroke-width=".1"/>
<path d="m7.066 33.588c-0.143 0.062-0.309-4e-3 -0.371-0.147l-2.261-5.216c-0.062-0.143 4e-3 -0.309 0.147-0.371s0.309 4e-3 0.371 0.147l2.261 5.216c0.062 0.143-4e-3 0.309-0.147 0.371zm7.403-2.0318c0.155-0.016 0.268-0.155 0.252-0.31l-0.589-5.654c-0.016-0.156-0.155-0.268-0.31-0.252s-0.267 0.155-0.251 0.31l0.588 5.654c0.016 0.156 0.155 0.268 0.31 0.252zm-5.592 1.5261c-0.147 0.052-0.308-0.025-0.361-0.172l-1.902-5.357c-0.052-0.147 0.024-0.308 0.171-0.36s0.309 0.024 0.361 0.171l1.903 5.357c0.052 0.147-0.025 0.309-0.172 0.361zm3.7145-1.0089c0.153-0.029 0.254-0.177 0.225-0.33l-1.054-5.586c-0.029-0.153-0.176-0.254-0.329-0.225-0.154 0.029-0.254 0.176-0.225 0.329l1.053 5.587c0.029 0.153 0.177 0.254 0.33 0.225zm-1.834 0.5243c-0.151 0.04-0.305-0.049-0.345-0.2l-1.463-5.494c-0.04-0.15 0.049-0.305 0.2-0.345s0.305 0.049 0.345 0.2l1.463 5.494c0.04 0.15-0.049 0.305-0.2 0.345zm-8.5039-4.5228l13.274-3.809m-11.878 2.4891c-0.23-0.144-0.299-0.447-0.156-0.676l3.005-4.8c0.144-0.23 0.446-0.3 0.676-0.156s0.299 0.447 0.156 0.676l-3.005 4.8c-0.144 0.23-0.446 0.3-0.676 0.156zm10.137-2.8931c0.127-0.24 0.035-0.536-0.205-0.663l-5.007-2.644c-0.24-0.127-0.537-0.035-0.663 0.204-0.127 0.24-0.035 0.537 0.205 0.663l5.007 2.645c0.24 0.126 0.536 0.035 0.663-0.205z" stroke="#000" stroke-width=".1"/>
<polygon points="18.316 37.164 28.739 36.001 29.909 46.316 19.429 47.529" stroke="#000" stroke-width=".1"/>
<polygon points="18.963 37.936 23.65 37.534 23.925 39.788 19.205 40.269" stroke="#000" stroke-width=".1"/>
<path d="m19.462 38.51l3.772-0.412m-3.7213 0.8464l3.772-0.412m-3.6335 0.7448l3.772-0.412m-3.7213 0.8464l3.772-0.412m32.726 26.956c-1.143 1.595-0.777 3.815 0.818 4.959 1.595 1.143 3.815 0.777 4.959-0.818 1.143-1.596 0.777-3.816-0.818-4.959-1.596-1.143-3.816-0.777-4.959 0.818z" stroke="#000" stroke-width=".1"/>
<path d="m56.678 66.598c-0.949 1.324-0.645 3.166 0.679 4.115s3.166 0.645 4.115-0.679 0.645-3.166-0.679-4.115-3.166-0.645-4.115 0.679zm2.5815 5.2805l-1.486 3.469c-0.075 0.177-0.274 0.267-0.457 0.207l-1.532-0.499c-0.191-0.062-0.298-0.264-0.242-0.457l1.078-3.719m2.2312-6.0988l1.333-3.441c0.068-0.175 0.261-0.267 0.445-0.212l1.539 0.461c0.192 0.057 0.306 0.254 0.259 0.445l-0.92 3.679" stroke="#000" stroke-width=".1"/>
<polyline points="62.086 66.343 62.17 64.842 61.827 64.595" stroke="#000" stroke-width=".1"/>
<polyline points="57.891 64.93 58.786 63.722 59.208 63.752" stroke="#000" stroke-width=".1"/>
<polyline points="56.028 70.16 55.898 71.658 56.235 71.915" stroke="#000" stroke-width=".1"/>
<polyline points="60.178 71.699 59.246 72.88 58.826 72.836" stroke="#000" stroke-width=".1"/>
<polygon points="55.911 66.726 55.541 66.585 55.251 67.542 55.518 67.585 55.596 67.616" stroke="#000" stroke-width=".1"/>
<path d="m60.672 70.188l-0.547-0.504m-0.5746-3.0026l0.331-0.678m-3.4223 2.8607l0.686-0.176m1.4731-2.7989l0.095 0.663m-1.3093-0.1449l0.447 0.518m-1.1655 0.5537l0.646 0.24m-0.177 2.2532l0.591-0.617m0.4925 1.3192l0.263-0.679m1.0978 0.7866l-0.186-0.778m2.0931-0.8797l-2.493-0.845m0.4043-1.0488l-0.398 1.004m1.7883-0.2802l0.694-0.172m-1.187-0.6276l0.624-0.421m15.111 10.942l-2.412-7.97-2.312 0.686c-0.435 0.129-0.907 0.115-1.318-0.076-0.516-0.24-0.736-0.622-0.818-0.989-0.139-0.622 0.073-1.312 0.591-1.683 1.481-1.058 2.409 0.892 2.409 0.892l1.163-0.314c-0.45-1.434-1.466-2.467-3.406-1.87-1.434 0.45-2.231 1.977-1.781 3.41l2.818 8.971c0.45 1.434 1.977 2.231 3.41 1.781 1.278-0.402 1.863-1.573 1.656-2.838z" stroke="#000" stroke-width=".1"/>
<path d="m71.475 72.97c0.102 0.022 0.252 0.03 0.394-0.01 0.152-0.042 0.214-0.129 0.187-0.226-0.026-0.093-0.11-0.127-0.304-0.142-0.268-0.019-0.465-0.111-0.526-0.329-0.071-0.254 0.083-0.507 0.429-0.604 0.165-0.046 0.297-0.045 0.395-0.029l2e-3 0.293c-0.067-0.013-0.183-0.026-0.326 0.015-0.144 0.04-0.195 0.125-0.173 0.203 0.026 0.095 0.121 0.114 0.33 0.134 0.286 0.026 0.447 0.129 0.506 0.339 0.069 0.251-0.06 0.516-0.463 0.629-0.167 0.046-0.345 0.048-0.44 0.025l-0.011-0.298zm1.1929 1.558l-0.18-0.291c-0.051-0.081-0.108-0.185-0.154-0.267l-5e-3 1e-3c3e-3 0.094 0.013 0.213 0.014 0.306l1e-3 0.342 0.324-0.091zm-0.301 0.356l3e-3 0.413-0.344 0.096 0.03-1.618 0.436-0.122 0.871 1.366-0.356 0.1-0.22-0.352-0.42 0.117z" stroke="#000" stroke-width=".1"/>
<polygon points="72.286 75.912 72.619 75.819 72.957 77.028 73.54 76.865 73.619 77.149 72.703 77.405" stroke="#000" stroke-width=".1"/>
<polygon points="73.97 78.572 73.431 78.723 73.53 79.077 74.132 78.909 74.21 79.186 73.275 79.447 72.857 77.954 73.762 77.701 73.839 77.978 73.267 78.138 73.354 78.448 73.893 78.297" stroke="#000" stroke-width=".1"/>
<path d="m11.004 96.532c-0.208 0.455-0.711 0.671-1.123 0.482l-8.059-3.692c-0.412-0.189-0.577-0.711-0.369-1.165l5.105-11.143c0.208-0.455 0.711-0.671 1.123-0.482l8.059 3.692c0.412 0.189 0.577 0.711 0.369 1.165l-5.105 11.143z" stroke="#000" stroke-width=".1"/>
<path d="m14.17 87.636c-0.124 0.27-0.422 0.398-0.666 0.286l-7.388-3.384c-0.244-0.112-0.342-0.422-0.218-0.692l0.998-2.178c0.123-0.27 0.422-0.398 0.666-0.286l7.387 3.384c0.245 0.112 0.343 0.422 0.219 0.692l-0.998 2.178zm-1.178 1.7059c-0.15 0.328-0.526 0.478-0.839 0.334-0.313-0.143-0.446-0.526-0.295-0.854 0.15-0.328 0.526-0.477 0.839-0.334 0.313 0.144 0.445 0.526 0.295 0.854zm-0.9003 1.9653c-0.15 0.328-0.526 0.478-0.839 0.334-0.313-0.143-0.446-0.526-0.295-0.854 0.15-0.328 0.526-0.477 0.839-0.334 0.313 0.144 0.445 0.526 0.295 0.854zm-0.8629 1.8835c-0.15 0.328-0.526 0.478-0.839 0.334-0.313-0.143-0.446-0.526-0.295-0.854 0.15-0.328 0.526-0.477 0.839-0.334 0.313 0.144 0.445 0.526 0.295 0.854zm-0.8644 1.7836c-0.15 0.328-0.526 0.478-0.839 0.334-0.313-0.143-0.446-0.526-0.295-0.854 0.15-0.328 0.526-0.477 0.839-0.334 0.313 0.144 0.445 0.526 0.295 0.854zm0.5165-6.5996c-0.15 0.328-0.526 0.478-0.839 0.334-0.313-0.143-0.446-0.526-0.295-0.854 0.15-0.328 0.526-0.477 0.839-0.334 0.313 0.144 0.445 0.526 0.295 0.854zm-0.9004 1.9653c-0.15 0.328-0.526 0.478-0.839 0.334-0.313-0.143-0.446-0.526-0.295-0.854 0.15-0.328 0.526-0.477 0.839-0.334 0.313 0.144 0.445 0.526 0.295 0.854zm-0.8629 1.8835c-0.15 0.328-0.526 0.478-0.839 0.334-0.313-0.143-0.446-0.526-0.295-0.854 0.15-0.328 0.526-0.477 0.839-0.334 0.313 0.144 0.445 0.526 0.295 0.854zm-0.8644 1.7836c-0.15 0.328-0.526 0.478-0.839 0.334-0.313-0.143-0.446-0.526-0.295-0.854 0.15-0.328 0.526-0.477 0.839-0.334 0.313 0.144 0.445 0.526 0.295 0.854zm0.4383-6.6354c-0.15 0.328-0.526 0.478-0.839 0.334-0.313-0.143-0.446-0.526-0.295-0.854 0.15-0.328 0.526-0.477 0.839-0.334 0.313 0.144 0.445 0.526 0.295 0.854zm-0.9004 1.9654c-0.15 0.328-0.526 0.478-0.839 0.334-0.313-0.143-0.446-0.526-0.295-0.854 0.15-0.328 0.526-0.477 0.839-0.334 0.313 0.144 0.445 0.526 0.295 0.854zm-0.8628 1.8834c-0.15 0.328-0.526 0.478-0.839 0.334-0.313-0.143-0.446-0.526-0.295-0.854 0.15-0.328 0.526-0.477 0.839-0.334 0.313 0.144 0.445 0.526 0.295 0.854zm-0.8644 1.7836c-0.15 0.328-0.526 0.478-0.839 0.334-0.313-0.143-0.446-0.526-0.295-0.854 0.15-0.328 0.526-0.477 0.839-0.334 0.313 0.144 0.445 0.526 0.295 0.854zm0.5165-6.5996c-0.15 0.328-0.526 0.478-0.839 0.334-0.313-0.143-0.446-0.526-0.295-0.854 0.15-0.328 0.526-0.477 0.839-0.334 0.313 0.144 0.445 0.526 0.295 0.854zm-0.9004 1.9654c-0.15 0.328-0.526 0.478-0.839 0.334-0.313-0.143-0.446-0.526-0.295-0.854 0.15-0.328 0.526-0.477 0.839-0.334 0.313 0.144 0.445 0.526 0.295 0.854zm-0.8629 1.8834c-0.15 0.328-0.526 0.478-0.839 0.334-0.313-0.143-0.446-0.526-0.295-0.854 0.15-0.328 0.526-0.477 0.839-0.334 0.313 0.144 0.445 0.526 0.295 0.854zm-0.8644 1.7837c-0.15 0.328-0.526 0.478-0.839 0.334-0.313-0.143-0.446-0.526-0.295-0.854 0.15-0.328 0.526-0.477 0.839-0.334 0.313 0.144 0.445 0.526 0.295 0.854z" stroke="#000" stroke-width=".1"/>
<polygon points="10.735 84.403 10.73 84.401 10.355 84.406 10.422 84.094 10.941 84.091 11.254 84.235 10.514 85.85 10.149 85.683" stroke="#000" stroke-width=".1"/>
<path d="m11.046 86.094l0.105-0.229 0.295-0.093c0.497-0.154 0.752-0.256 0.843-0.443 0.061-0.132 0.029-0.273-0.157-0.358-0.14-0.064-0.293-0.05-0.407-0.024l0.017-0.32c0.164-0.036 0.387-0.024 0.606 0.076 0.365 0.168 0.468 0.473 0.334 0.767-0.124 0.27-0.42 0.397-0.749 0.498l-0.206 0.056-2e-3 5e-3 0.609 0.279-0.143 0.311-1.145-0.525zm2.3136-0.3921c-0.05 0.109 0.017 0.224 0.128 0.323 0.099 0.015 0.212-0.029 0.259-0.131 0.045-0.099 0.034-0.225-0.105-0.288-0.13-0.06-0.235-6e-3 -0.282 0.096zm0.074 0.96c0.065-0.142-1e-3 -0.274-0.131-0.382-0.141-0.022-0.254 0.034-0.307 0.151-0.056 0.116-0.017 0.266 0.125 0.331 0.134 0.061 0.261 0.014 0.313-0.1zm-0.84-0.37c0.089-0.194 0.262-0.277 0.473-0.273l4e-3 -8e-3c-0.12-0.151-0.137-0.318-0.072-0.459 0.125-0.274 0.454-0.342 0.777-0.194 0.378 0.173 0.434 0.463 0.344 0.659-0.063 0.14-0.201 0.242-0.396 0.249l-3e-3 7e-3c0.129 0.131 0.206 0.329 0.111 0.538-0.134 0.293-0.47 0.377-0.846 0.205-0.409-0.188-0.492-0.505-0.392-0.724zm61.359-27.686c-0.29-0.122-0.581-0.243-0.87-0.368-0.074-0.032-0.127-0.038-0.172 0.07-0.041 0.099-0.026 0.148 0.056 0.182 0.586 0.244 1.171 0.49 1.756 0.739 0.08 0.033 0.128 0.014 0.17-0.085 0.047-0.107 6e-3 -0.142-0.069-0.172-0.291-0.12-0.581-0.244-0.871-0.366zm-0.26 0.623c-2.208-0.93-4.417-1.861-6.626-2.791-0.268-0.113-0.283-0.19-0.164-0.512 0.07-0.19 0.173-0.278 0.341-0.327 0.337-0.099 0.67-0.225 1.007-0.33 0.074-0.023 0.163-0.023 0.229 5e-3 3.898 1.637 7.794 3.278 11.689 4.923 0.062 0.026 0.12 0.087 0.152 0.152 0.176 0.347 0.344 0.701 0.513 1.053 0.059 0.123-0.01 0.416-0.138 0.573-0.113 0.138-0.228 0.109-0.349 0.058-2.218-0.936-4.436-1.87-6.654-2.804zm6.3234 0.5127l-11.33-4.772c-0.194-0.082-0.286-0.306-0.204-0.5l3.143-7.463c0.082-0.194 0.306-0.285 0.501-0.203l11.329 4.772c0.195 0.081 0.286 0.305 0.204 0.5l-3.143 7.462c-0.082 0.195-0.306 0.286-0.5 0.204z" stroke="#000" stroke-width=".1"/>
<path d="m79.737 59.04l-10.354-4.361c-0.201-0.084-0.294-0.315-0.21-0.515l2.704-6.42c0.084-0.2 0.315-0.294 0.515-0.21l10.354 4.361c0.2 0.085 0.294 0.315 0.21 0.516l-2.704 6.419c-0.084 0.2-0.315 0.294-0.515 0.21z" stroke="#000" stroke-width=".1"/>
<polygon points="60.09 4.902 60.985 12.138 73.763 10.486 72.788 3.23 73.292 3.191 73.093 1.357 59.428 2.886 59.626 4.962" stroke="#000" stroke-width=".1"/>
<polyline points="60.09 4.902 65.673 4.206 65.414 2.231" stroke="#000" stroke-width=".1"/>
<polyline points="67.349 2.012 67.588 3.967 72.828 3.29" stroke="#000" stroke-width=".1"/>
<path d="m65.673 4.2058l0.915 7.195m0.9998-7.4337l0.935 7.175m-5.5674-8.6334s-0.599-3.447 3.367-0.942c0.02 0.021 3.29-3.48 3.445 0.087" stroke="#000" stroke-width=".1"/>
<path d="m63.523 0.7767s0.28 1.33 2.8 0.79c0 0.021 2.801-0.136 2.481-1.527" stroke="#000" stroke-width=".1"/>
<polygon points="67.67 32.406 64.219 39.249 67.67 32.406 63.381 31.648 59.836 38.415 64.05 39.267 67.23 42.37 70.861 35.456" stroke="#000" stroke-width=".1"/>
<polygon points="70.861 35.456 67.23 42.37 71.665 43.214 75.191 36.278" stroke="#000" stroke-width=".1"/>
<path d="m68.117 36.036c0.124-0.068 0.242-0.132 0.358-0.197 0.342-0.192 0.679-0.391 1.025-0.576 0.349-0.186 0.617-0.447 0.783-0.806 0.23-0.498 0.258-0.997-0.052-1.473-0.189-0.289-0.472-0.431-0.82-0.429-0.359 2e-3 -0.657 0.148-0.917 0.391-0.274 0.256-0.45 0.566-0.52 0.928-0.033 0.167-0.027 0.344-0.016 0.516 0.018 0.3 0.051 0.6 0.08 0.9 0.024 0.245 0.052 0.489 0.079 0.746zm2.593-1.925c-0.112 0.466-0.335 0.885-0.729 1.186-0.233 0.178-0.494 0.319-0.747 0.47-0.222 0.133-0.45 0.257-0.677 0.383-0.201 0.112-0.403 0.223-0.607 0.33-0.057 0.03-0.1 0.02-0.107-0.063-0.06-0.616-0.117-1.232-0.187-1.847-0.063-0.562 0.055-1.075 0.377-1.541 0.253-0.366 0.588-0.632 1.015-0.761 0.355-0.107 0.705-0.082 1.034 0.108 0.341 0.196 0.529 0.5 0.625 0.873 0.073 0.284 0.056 0.566 3e-3 0.862z" stroke="#000" stroke-width=".1"/>
<path d="m68.676 33.941c0.057-0.295 0.219-0.499 0.515-0.581 0.204-0.057 0.449 0.094 0.518 0.296 0.118 0.345-0.101 0.808-0.488 0.902-0.355 0.085-0.59-0.213-0.565-0.523 3e-3 -0.031 0.013-0.063 0.02-0.094zm-3.1056-18.004l12.473 2.58c0.569 0.117 0.932 0.677 0.807 1.245l-1.517 6.895c-0.124 0.56-0.676 0.916-1.236 0.796l-12.644-2.703c-0.576-0.123-0.936-0.7-0.794-1.272l1.688-6.772c0.135-0.543 0.675-0.882 1.223-0.769z" stroke="#000" stroke-width=".1"/>
<path d="m67.365 20.08l-1.99-0.325c-0.182-0.03-0.305-0.201-0.276-0.383l0.334-2.046c0.03-0.182 0.202-0.305 0.384-0.275l1.99 0.325c0.182 0.029 0.305 0.201 0.275 0.383l-0.334 2.045c-0.029 0.182-0.201 0.306-0.383 0.276z" stroke="#000" stroke-width=".1"/>
<polygon points="66.608 18.197 65.653 18.041 65.535 18.763 66.498 18.92" stroke="#000" stroke-width=".1"/>
<path d="m66.708 17.54l-0.291-0.048c-0.363-0.059-0.704 0.187-0.764 0.55l0.955 0.155 0.1-0.657zm-1.1725 1.2236c-0.059 0.362 0.187 0.704 0.549 0.763l0.314 0.052 0.1-0.658-0.963-0.157z" stroke="#000" stroke-width=".1"/>
<polygon points="66.498 18.921 67.528 19.089 67.646 18.367 66.608 18.198" stroke="#000" stroke-width=".1"/>
<path d="m67.097 17.604l-0.389-0.064-0.1 0.658 1.038 0.169c0.059-0.362-0.187-0.704-0.549-0.763zm-0.6987 1.9747l0.366 0.06c0.363 0.059 0.705-0.187 0.764-0.549l-1.03-0.169-0.1 0.658zm6.8827 0.3719c-0.072 0.018-0.209 0.021-0.376-0.018-0.386-0.088-0.622-0.399-0.519-0.848 0.098-0.43 0.456-0.654 0.881-0.556 0.171 0.04 0.27 0.1 0.312 0.135l-0.076 0.135c-0.06-0.048-0.15-0.094-0.264-0.12-0.322-0.074-0.582 0.083-0.664 0.442-0.077 0.336 0.066 0.595 0.399 0.672 0.108 0.025 0.223 0.028 0.302 9e-3l5e-3 0.149zm1.0188-0.3176l-0.044-0.426c-9e-3 -0.096-0.012-0.183-0.014-0.266l-3e-3 -1e-3c-0.039 0.077-0.082 0.154-0.127 0.232l-0.225 0.365 0.413 0.096zm-0.482 0.035l-0.241 0.398-0.182-0.041 0.779-1.265 0.214 0.049 0.153 1.478-0.189-0.043-0.047-0.465-0.487-0.111zm1.2652-0.0224l0.18 0.042c0.19 0.043 0.334-0.034 0.37-0.19 0.04-0.177-0.07-0.284-0.257-0.328-0.085-0.02-0.149-0.027-0.178-0.025l-0.115 0.501zm-0.033-0.666c0.093 3e-3 0.223 0.022 0.345 0.051 0.19 0.043 0.303 0.104 0.372 0.202 0.055 0.077 0.07 0.179 0.047 0.285-0.042 0.18-0.182 0.275-0.338 0.29l-1e-3 6e-3c0.097 0.061 0.138 0.174 0.138 0.323 1e-3 0.202 2e-3 0.342 0.019 0.401l-0.184-0.042c-0.013-0.044-0.016-0.169-0.016-0.348 2e-3 -0.199-0.055-0.287-0.213-0.33l-0.167-0.038-0.136 0.593-0.177-0.039 0.311-1.354zm0.9895 1.5043c0.043 0.017 0.107 0.035 0.176 0.051 0.379 0.087 0.633-0.078 0.717-0.448 0.076-0.323-0.06-0.57-0.434-0.656-0.091-0.021-0.162-0.029-0.211-0.03l-0.248 1.083zm0.101-1.253c0.111 9e-3 0.243 0.026 0.383 0.057 0.254 0.059 0.421 0.159 0.516 0.299 0.096 0.14 0.132 0.315 0.081 0.536-0.051 0.224-0.163 0.392-0.32 0.488-0.158 0.099-0.386 0.119-0.652 0.058-0.125-0.029-0.231-0.06-0.317-0.089l0.309-1.349z" stroke="#000" stroke-width=".1"/>
<polygon points="63.975 22.87 63.971 22.869 63.848 22.906 63.844 22.837 64.001 22.79 64.075 22.805 63.943 23.451 63.859 23.434" fill="#000"/>
<path d="m64.179 23.5l0.011-0.053 0.081-0.053c0.198-0.123 0.29-0.192 0.311-0.288 0.014-0.066-6e-3 -0.133-0.103-0.154-0.058-0.011-0.113 8e-3 -0.148 0.027l-0.015-0.067c0.052-0.028 0.122-0.044 0.197-0.027 0.139 0.028 0.178 0.135 0.159 0.227-0.026 0.12-0.13 0.199-0.294 0.301l-0.062 0.038-1e-3 2e-3 0.29 0.06-0.015 0.072-0.411-0.085zm0.5504 9e-3c0.022 0.021 0.075 0.058 0.134 0.07 0.113 0.024 0.164-0.041 0.174-0.094 0.017-0.091-0.057-0.147-0.141-0.165l-0.049-0.01 0.014-0.065 0.048 0.01c0.064 0.013 0.151-3e-3 0.167-0.08 0.01-0.051-0.013-0.104-0.093-0.121-0.052-0.011-0.107 2e-3 -0.139 0.016l-0.01-0.068c0.04-0.017 0.111-0.029 0.181-0.015 0.127 0.027 0.168 0.114 0.152 0.193-0.014 0.066-0.065 0.114-0.15 0.127l-1e-3 2e-3c0.077 0.032 0.129 0.105 0.11 0.195-0.021 0.104-0.12 0.178-0.276 0.146-0.072-0.015-0.132-0.051-0.159-0.078l0.038-0.063zm0.7905 0.0126l0.045-0.216c6e-3 -0.034 0.015-0.067 0.024-0.101l-3e-3 -1e-3c-0.029 0.035-0.05 0.058-0.074 0.085l-0.203 0.187v2e-3l0.211 0.044zm-0.05 0.245l0.036-0.176-0.3-0.063 0.012-0.057 0.372-0.353 0.095 0.02-0.082 0.401 0.09 0.018-0.014 0.069-0.09-0.018-0.037 0.176-0.082-0.017zm0.9523-0.4011l-0.246-0.051-0.059 0.161c0.015 1e-3 0.03 2e-3 0.053 7e-3 0.05 0.01 0.098 0.032 0.132 0.063 0.046 0.039 0.076 0.104 0.059 0.185-0.026 0.127-0.147 0.201-0.286 0.172-0.071-0.015-0.126-0.047-0.154-0.073l0.036-0.062c0.024 0.021 0.072 0.052 0.131 0.064 0.083 0.017 0.164-0.022 0.182-0.109 0.017-0.084-0.028-0.155-0.157-0.181-0.036-7e-3 -0.065-0.01-0.09-0.012l0.106-0.301 0.308 0.063-0.015 0.074zm0.3953 0.4575c0.019-0.092-0.022-0.159-0.102-0.175-0.053-0.012-0.109 0.011-0.143 0.053-7e-3 9e-3 -0.014 0.021-0.017 0.037-0.02 0.107 0.013 0.195 0.103 0.214 0.078 0.015 0.14-0.037 0.159-0.129zm0.102-0.368c-0.018-5e-3 -0.041-8e-3 -0.067-9e-3 -0.141-6e-3 -0.235 0.08-0.271 0.183l3e-3 1e-3c0.039-0.034 0.1-0.058 0.171-0.043 0.114 0.024 0.178 0.123 0.151 0.25-0.024 0.118-0.127 0.211-0.261 0.183-0.138-0.028-0.206-0.155-0.172-0.322 0.026-0.129 0.093-0.22 0.169-0.27 0.065-0.041 0.143-0.06 0.226-0.053 0.028 2e-3 0.049 6e-3 0.065 9e-3l-0.014 0.071z" fill="#000"/>
<polygon points="67.492 23.509 67.48 23.567 67.078 24.097 66.988 24.078 67.386 23.565 67.386 23.563 67.07 23.498 67.084 23.425" fill="#000"/>
<path d="m67.65 23.703c-0.014 0.065 0.028 0.109 0.1 0.145 0.059-8e-3 0.109-0.039 0.121-0.097 0.011-0.053-9e-3 -0.112-0.087-0.128-0.073-0.016-0.122 0.024-0.134 0.08m0.174 0.373c0.016-0.079-0.031-0.128-0.113-0.17-0.08 6e-3 -0.13 0.047-0.143 0.108-0.017 0.065 0.022 0.134 0.104 0.151 0.078 0.016 0.139-0.023 0.152-0.089m-0.348-0.067c0.017-0.082 0.077-0.13 0.164-0.147l-1e-3 -4e-3c-0.064-0.048-0.084-0.11-0.073-0.166 0.022-0.102 0.123-0.154 0.236-0.131 0.126 0.026 0.172 0.118 0.155 0.198-0.011 0.055-0.05 0.107-0.137 0.129l-1e-3 4e-3c0.074 0.048 0.112 0.114 0.095 0.193-0.023 0.112-0.135 0.168-0.258 0.143-0.135-0.028-0.2-0.125-0.18-0.219m0.8661-0.1029c-0.016 0.08 0.021 0.147 0.097 0.162 0.058 0.013 0.111-7e-3 0.141-0.041 6e-3 -6e-3 0.012-0.016 0.015-0.03 0.022-0.11-2e-3 -0.203-0.093-0.222-0.074-0.015-0.141 0.04-0.16 0.131zm-0.107 0.365c0.017 6e-3 0.04 9e-3 0.07 0.012 0.052 4e-3 0.105-8e-3 0.149-0.035 0.05-0.03 0.092-0.08 0.121-0.154l-4e-3 -1e-3c-0.044 0.037-0.102 0.051-0.166 0.038-0.116-0.024-0.173-0.127-0.151-0.238 0.026-0.121 0.137-0.211 0.269-0.183 0.132 0.027 0.192 0.151 0.158 0.316-0.029 0.143-0.098 0.232-0.174 0.281-0.06 0.038-0.135 0.054-0.207 0.047-0.032-1e-3 -0.06-6e-3 -0.081-0.011l0.016-0.072z" fill="#000"/>
<polygon points="68.988 23.902 68.984 23.901 68.86 23.938 68.857 23.868 69.013 23.822 69.088 23.837 68.956 24.483 68.872 24.466" fill="#000"/>
<path d="m69.335 24.228c-0.035 0.168-2e-3 0.274 0.078 0.291 0.088 0.019 0.153-0.077 0.187-0.242 0.033-0.159 0.013-0.272-0.077-0.291-0.076-0.015-0.152 0.066-0.188 0.242m0.354 0.063c-0.045 0.219-0.153 0.324-0.295 0.294-0.128-0.026-0.188-0.161-0.146-0.376 0.045-0.217 0.163-0.317 0.295-0.29 0.136 0.028 0.188 0.166 0.146 0.372" fill="#000"/>
<polygon points="70.008 24.112 70.004 24.112 69.881 24.149 69.877 24.079 70.034 24.033 70.108 24.048 69.976 24.694 69.892 24.677" fill="#000"/>
<polygon points="70.728 24.261 70.726 24.26 70.602 24.298 70.598 24.228 70.755 24.182 70.829 24.197 70.696 24.843 70.613 24.825" fill="#000"/>
<path d="m70.933 24.89l0.011-0.053 0.081-0.053c0.198-0.123 0.29-0.191 0.311-0.288 0.014-0.066-6e-3 -0.133-0.103-0.154-0.058-0.011-0.113 8e-3 -0.147 0.027l-0.016-0.066c0.052-0.029 0.122-0.044 0.197-0.028 0.139 0.028 0.178 0.135 0.159 0.228-0.025 0.119-0.131 0.198-0.295 0.3l-0.061 0.038-1e-3 2e-3 0.29 0.06-0.015 0.072-0.411-0.085z" fill="#000"/>
<polygon points="71.749 24.471 71.748 24.47 71.623 24.507 71.62 24.438 71.775 24.392 71.85 24.406 71.718 25.052 71.633 25.035" fill="#000"/>
<path d="m71.995 25.005c0.021 0.021 0.074 0.058 0.134 0.07 0.112 0.023 0.163-0.041 0.173-0.094 0.016-0.092-0.057-0.147-0.141-0.165l-0.049-0.01 0.014-0.065 0.049 0.01c0.063 0.012 0.15-4e-3 0.166-0.08 0.01-0.052-0.012-0.105-0.093-0.121-0.053-0.011-0.107 2e-3 -0.138 0.016l-0.01-0.068c0.039-0.018 0.11-0.029 0.18-0.015 0.127 0.027 0.168 0.114 0.152 0.193-0.014 0.066-0.065 0.114-0.15 0.127l-1e-3 2e-3c0.077 0.032 0.129 0.105 0.11 0.195-0.021 0.104-0.12 0.178-0.276 0.146-0.072-0.015-0.132-0.051-0.159-0.078l0.039-0.063z" fill="#000"/>
<path d="m38.26 7.4747s-0.721 2.007-2.104 2.991c0 0 4.372 4.836 12.783 4.21 0 0-0.902-1.308 0.143-3.81" stroke="#000" stroke-width=".1"/>
<path d="m49.516 8.6671c-0.845 2.828-3.891 5.258-6.996 4.211-3.094-1.043-4.052-4.798-3.03-7.557m8.1999 1.3047c-0.647-0.343-1.394-0.097-1.81 0.183 0.579-0.08 1.247-0.25 1.909 0.104m-4.3193-1.031c0.019 0.045 0.036 0.089 0.05 0.132-0.038-0.039-0.077-0.079-0.116-0.12" stroke="#000" stroke-width=".1"/>
<path d="m43.922 9.4509c0.924 0.092 0.746-0.679 0.507-0.993 0.036 0.307 0.065 0.813-0.507 0.993zm3.4656-4.427s-0.232 2.364 2.278 3.725c0 0 3.128-5.502-2.711-7.471-5.84-1.969-7.261 1.409-8.079 3.833 0 0 4.2 1.802 8.512-0.087z" stroke="#000" stroke-width=".1"/>
<path d="m38.355 7.464c-0.402-0.059-0.586-0.722-0.41-1.482 0.175-0.759 0.643-1.327 1.046-1.268m10.067 6.2221c0.356 0.196 0.493-0.311 0.813-1.023 0.32-0.71 0.291-1.446-0.065-1.642m-8.7831-1.8283c0.019-2e-3 0.038-4e-3 0.057-7e-3 -0.014-0.015-0.026-0.031-0.039-0.047m0.047-0.137c0.107 0.051 0.234 0.072 0.356 0.074-0.129-0.121-0.191-0.336-0.181-0.477 0.188 0.375 0.445 0.406 0.755 0.411 0.529 0.026 0.89 0.223 1.098 1.067-0.707-1.192-1.637-0.555-2.14-0.745-0.075-0.028-0.141-0.076-0.195-0.15 0.067 0.021 0.149 0.022 0.242 0.011m0.018-0.054c-0.067-0.087-0.112-0.191-0.126-0.274l0.017 0.023c0.043 0.049 0.096 0.086 0.156 0.114m6.563 2.3324c-0.02 5e-3 -0.039 0.01-0.059 0.014 0.014 0.014 0.027 0.027 0.041 0.04m-0.047 0.138c-0.515-0.153-0.87-1.223-2.154-0.702 0.676-0.546 1.083-0.484 1.52-0.185 0.25 0.184 0.473 0.315 0.849 0.13-0.077 0.118-0.257 0.253-0.433 0.27 0.099 0.073 0.213 0.133 0.33 0.157m-0.065 0.192c0.067 0.064 0.133 0.113 0.199 0.137-0.088 0.027-0.169 0.025-0.246 1e-3m0.112-0.33c0.064 0.014 0.128 0.016 0.192 4e-3l0.028-7e-3c-0.062 0.057-0.161 0.111-0.267 0.141m-3.5161 3.0581c-0.161 0.478-0.679 0.735-1.157 0.574-0.479-0.161-0.735-0.68-0.574-1.158s0.679-0.735 1.157-0.573c0.478 0.161 0.735 0.679 0.574 1.157zm-3.7391 39.968s1.445 0.386 3.126 0.526" stroke="#000" stroke-width=".1"/>
<path d="m36.289 49.544s-0.396 2.095-1.606 3.286c0 0 5.081 4.085 13.287 2.14 0 0-1.097-1.15-0.46-3.786" stroke="#000" stroke-width=".1"/>
<path d="m47.592 48.944c-0.388 2.926-3.012 5.806-6.244 5.262-3.22-0.541-4.758-4.098-4.185-6.984m8.3036-0.0054c-0.693-0.237-1.392 0.125-1.758 0.467 0.559-0.171 1.192-0.444 1.901-0.199m-4.4279-0.3365c0.026 0.041 0.05 0.082 0.071 0.122-0.045-0.032-0.089-0.066-0.134-0.1" stroke="#000" stroke-width=".1"/>
<path d="m42.191 50.602c0.927-0.055 0.629-0.788 0.344-1.061 0.084 0.298 0.192 0.793-0.344 1.061zm2.7234-4.9185s0.144 2.371 2.838 3.319c0 0 2.219-5.927-3.857-6.95-6.077-1.022-6.948 2.537-7.372 5.06 0 0 4.431 1.117 8.391-1.429z" stroke="#000" stroke-width=".1"/>
<path d="m36.381 49.518c-0.407 5e-3 -0.693-0.62-0.639-1.399 0.053-0.777 0.426-1.412 0.833-1.417m10.923 4.5551c0.382 0.138 0.438-0.385 0.642-1.138 0.203-0.752 0.059-1.474-0.324-1.612m-8.9615-0.4187c0.018-5e-3 0.036-0.01 0.055-0.016-0.016-0.013-0.031-0.026-0.046-0.04m0.025-0.143c0.114 0.033 0.243 0.034 0.364 0.017-0.147-0.099-0.242-0.302-0.254-0.442 0.244 0.34 0.503 0.33 0.81 0.286 0.526-0.058 0.914 0.08 1.252 0.88-0.886-1.065-1.704-0.289-2.23-0.398-0.079-0.015-0.152-0.052-0.217-0.117 0.07 0.01 0.151-2e-3 0.241-0.027m9e-3 -0.056c-0.079-0.076-0.141-0.171-0.168-0.25l0.021 0.019c0.05 0.041 0.108 0.07 0.172 0.088m6.8488 1.2674c-0.019 8e-3 -0.037 0.016-0.056 0.023 0.015 0.011 0.031 0.022 0.047 0.033m-0.025 0.144c-0.533-0.069-1.052-1.07-2.238-0.354 0.582-0.645 0.994-0.649 1.472-0.422 0.276 0.143 0.516 0.237 0.859-5e-3 -0.057 0.128-0.214 0.289-0.385 0.335 0.109 0.055 0.231 0.097 0.35 0.102m-0.033 0.2c0.076 0.053 0.149 0.091 0.218 0.104-0.083 0.04-0.163 0.051-0.243 0.04m0.058-0.344c0.066 4e-3 0.13-4e-3 0.191-0.027l0.026-0.011c-0.052 0.066-0.141 0.136-0.241 0.182m-4.6265 2.6196l1.586 0.267s-0.057 1.445-0.997 1.446c-0.05-0.026-1.027-0.112-0.589-1.713z" stroke="#000" stroke-width=".1"/>
<path d="m42.416 52.033c-0.112 0.667-0.44 1.168-0.733 1.119-0.293-0.05-0.439-0.63-0.327-1.297m43.909 10.758s0.252 2.117-0.545 3.616c0 0 6.073 2.372 13.316-1.948 0 0-1.391-0.767-1.575-3.472" stroke="#000" stroke-width=".1"/>
<path d="m95.866 58.649c0.509 2.907-1.13 6.443-4.376 6.894-3.234 0.45-5.769-2.48-6.089-5.405m7.919-2.4986c-0.732-0.018-1.29 0.537-1.537 0.973 0.482-0.331 1.004-0.781 1.754-0.76m-4.3247 1.0082c0.037 0.032 0.072 0.064 0.104 0.095-0.052-0.017-0.105-0.036-0.158-0.055" stroke="#000" stroke-width=".1"/>
<path d="m90.806 62.043c0.868-0.33 0.363-0.941 0.01-1.115 0.169 0.258 0.421 0.698-0.01 1.115zm1.5283-5.7016s0.849 2.219 3.703 2.314c0 0 0.338-6.32-5.765-5.471-6.104 0.849-5.866 4.506-5.513 7.04 0 0 4.562-0.266 7.575-3.883z" stroke="#000" stroke-width=".1"/>
<path d="m85.345 62.562c-0.386 0.127-0.847-0.384-1.03-1.142-0.182-0.758-0.017-1.475 0.369-1.602m11.787 1.0652c0.406 0.016 0.302-0.499 0.271-1.278-0.032-0.779-0.387-1.424-0.793-1.44m-6.6654 5.4419s1.951 0.056 3.984-0.764c0 0-0.077 1.155-1.782 1.482s-2.202-0.718-2.202-0.718zm-1.8188-3.1397c0.016-0.01 0.032-0.02 0.047-0.032-0.018-7e-3 -0.037-0.015-0.055-0.024m-0.02-0.144c0.119-2e-3 0.242-0.04 0.353-0.093-0.17-0.05-0.321-0.215-0.375-0.346 0.335 0.252 0.578 0.165 0.858 0.03 0.485-0.213 0.896-0.198 1.459 0.464-1.165-0.75-1.712 0.236-2.247 0.29-0.08 9e-3 -0.16-4e-3 -0.242-0.047 0.07-0.011 0.144-0.047 0.222-0.098m-8e-3 -0.056c-0.099-0.049-0.186-0.121-0.235-0.189l0.025 0.013c0.061 0.024 0.125 0.033 0.19 0.032m6.914-0.8474c-0.015 0.013-0.031 0.026-0.047 0.038 0.019 7e-3 0.037 0.012 0.055 0.018m0.02 0.145c-0.53 0.094-1.325-0.705-2.241 0.334 0.361-0.79 0.753-0.917 1.277-0.844 0.306 0.053 0.564 0.07 0.818-0.263-0.016 0.14-0.117 0.34-0.267 0.435 0.121 0.02 0.25 0.023 0.365-7e-3m0.028 0.2c0.089 0.028 0.17 0.042 0.24 0.034-0.067 0.063-0.141 0.097-0.22 0.111m-0.048-0.345c0.063-0.017 0.122-0.043 0.174-0.083l0.021-0.019c-0.029 0.079-0.093 0.172-0.175 0.246m-92.282-11.034s-0.493 2.074-1.757 3.207c0 0 4.884 4.318 13.172 2.759 0 0-1.042-1.2-0.283-3.803" stroke="#000" stroke-width=".1"/>
<path d="m13.387 48.315c-0.524 2.905-3.28 5.659-6.483 4.965-3.191-0.692-4.562-4.316-3.854-7.172m8.2946 0.3822c-0.681-0.269-1.396 0.059-1.778 0.384 0.566-0.145 1.211-0.387 1.909-0.11m-4.408-0.5427c0.024 0.043 0.046 0.085 0.065 0.125-0.043-0.034-0.086-0.069-0.129-0.105" stroke="#000" stroke-width=".1"/>
<path d="m7.4669 49.758c0.928-0.011 0.665-0.758 0.393-1.044 0.07 0.301 0.155 0.801-0.393 1.044zm3.3988-4.8261s0.033 2.375 2.679 3.448c0 0 2.495-5.817-3.527-7.122-6.023-1.306-7.059 2.209-7.601 4.71 0 0 4.374 1.322 8.449-1.036z" stroke="#000" stroke-width=".1"/>
<path d="m2.1618 48.364c-0.406-0.014-0.663-0.652-0.573-1.427 0.09-0.774 0.492-1.391 0.898-1.377m10.699 5.0607c0.375 0.155 0.455-0.364 0.694-1.107 0.239-0.742 0.128-1.469-0.248-1.625m-8.1297 2.5112s1.752 0.857 3.942 0.854c0 0-0.547 1.146-2.234 0.781-1.687-0.366-1.708-1.635-1.708-1.635zm7.1785-2.8489c-0.367-0.11-0.726-0.203-1.067-0.277-1.782-0.386-2.705-0.168-2.942-0.093l-0.839-0.182c-0.185-0.166-0.934-0.747-2.716-1.133-0.342-0.074-0.707-0.138-1.087-0.19-0.163-0.022-0.31 0.065-0.339 0.201-6e-3 0.025-0.132 0.623-4e-3 1.285 0.183 0.938 0.777 1.542 1.72 1.746 0.632 0.137 1.174 0.077 1.611-0.178 0.376-0.218 0.533-0.58 0.74-0.835 0.028-0.035 0.165-0.123 0.339-0.086 0.173 0.038 0.262 0.175 0.273 0.218 0.082 0.318 0.076 0.713 0.327 1.067 0.293 0.413 0.761 0.692 1.393 0.829 0.943 0.204 1.734-0.099 2.288-0.878 0.391-0.549 0.524-1.146 0.529-1.171 0.03-0.136-0.068-0.276-0.226-0.323z" stroke="#000" stroke-width=".1"/>
<path d="m4.1878 46.216c-0.038 0.02-0.085 0.026-0.13 0.016s-0.086-0.035-0.112-0.068c-0.026-0.034-0.036-0.075-0.028-0.113 9e-3 -0.038 0.035-0.072 0.072-0.092 0.038-0.02 0.085-0.026 0.131-0.016 0.045 0.01 0.085 0.035 0.111 0.069s0.036 0.075 0.028 0.113-0.034 0.071-0.072 0.091zm8.3669 1.8133c-0.038 0.02-0.085 0.026-0.13 0.016s-0.086-0.035-0.112-0.068c-0.026-0.034-0.036-0.075-0.028-0.113 9e-3 -0.038 0.035-0.072 0.072-0.092 0.038-0.02 0.085-0.026 0.131-0.016 0.045 0.01 0.085 0.035 0.111 0.069 0.026 0.033 0.036 0.075 0.028 0.113s-0.035 0.071-0.072 0.091zm-7.681-0.9015c0.018-4e-3 0.037-8e-3 0.055-0.013-0.015-0.014-0.029-0.028-0.043-0.042m0.031-0.142c0.112 0.038 0.241 0.045 0.363 0.034-0.142-0.106-0.228-0.313-0.233-0.454 0.228 0.352 0.487 0.354 0.796 0.324 0.528-0.033 0.909 0.123 1.21 0.938-0.836-1.106-1.689-0.369-2.21-0.502-0.078-0.019-0.149-0.059-0.211-0.127 0.069 0.013 0.151 5e-3 0.242-0.016m0.012-0.055c-0.076-0.08-0.133-0.178-0.156-0.258l0.02 0.02c0.048 0.043 0.105 0.074 0.167 0.096m6.7824 1.5859c-0.019 7e-3 -0.038 0.014-0.057 0.02 0.015 0.013 0.03 0.024 0.045 0.035m-0.031 0.143c-0.529-0.094-1.001-1.118-2.219-0.458 0.611-0.617 1.023-0.601 1.49-0.353 0.269 0.156 0.505 0.261 0.858 0.035-0.063 0.126-0.227 0.279-0.4 0.317 0.106 0.06 0.226 0.107 0.345 0.119m-0.043 0.197c0.074 0.057 0.145 0.098 0.214 0.115-0.085 0.036-0.166 0.043-0.245 0.028m0.074-0.34c0.065 6e-3 0.13 2e-3 0.191-0.018l0.027-0.01c-0.054 0.063-0.147 0.129-0.249 0.17m51.427 45.382s0.187 2.124-0.656 3.598c0 0 5.998 2.557 13.37-1.538 0 0-1.367-0.81-1.468-3.519" stroke="#000" stroke-width=".1"/>
<path d="m73.844 90.262c0.419 2.922-1.328 6.405-4.586 6.756-3.246 0.351-5.69-2.656-5.919-5.59m7.9912-2.2534c-0.731-0.041-1.306 0.497-1.566 0.925 0.492-0.316 1.027-0.749 1.776-0.706m-4.3534 0.8753c0.036 0.033 0.07 0.066 0.101 0.098-0.051-0.019-0.103-0.039-0.156-0.059" stroke="#000" stroke-width=".1"/>
<path d="m68.681 93.498c0.877-0.303 0.392-0.929 0.044-1.114 0.161 0.263 0.4 0.711-0.044 1.114zm1.7028-5.6519s0.781 2.244 3.63 2.426c0 0 0.532-6.306-5.594-5.645-6.127 0.661-6.001 4.323-5.727 6.867 0 0 4.568-0.125 7.691-3.648z" stroke="#000" stroke-width=".1"/>
<path d="m63.207 93.849c-0.39 0.115-0.835-0.41-0.994-1.173s0.028-1.475 0.418-1.59m11.749 1.427c0.405 0.029 0.317-0.489 0.31-1.269-8e-3 -0.779-0.343-1.435-0.748-1.464m-6.923 4.9472s1.933 0.261 4.01-0.433c0 0-0.158 1.26-1.874 1.445-1.716 0.186-2.136-1.012-2.136-1.012zm5.9133-4.9679c-0.383 0.011-0.753 0.036-1.1 0.074-1.813 0.196-2.62 0.694-2.821 0.839l-0.854 0.092c-0.227-0.098-1.122-0.413-2.935-0.218-0.347 0.038-0.714 0.092-1.09 0.163-0.162 0.03-0.274 0.159-0.259 0.297 2e-3 0.026 0.071 0.633 0.402 1.221 0.469 0.832 1.224 1.218 2.182 1.114 0.643-0.069 1.139-0.297 1.473-0.676 0.288-0.327 0.323-0.719 0.438-1.027 0.016-0.041 0.119-0.168 0.295-0.188 0.177-0.018 0.304 0.084 0.328 0.121 0.179 0.276 0.297 0.652 0.647 0.909 0.408 0.3 0.941 0.416 1.584 0.347 0.959-0.103 1.613-0.641 1.894-1.555 0.198-0.644 0.135-1.252 0.133-1.278-0.015-0.138-0.153-0.24-0.317-0.235z" stroke="#000" stroke-width=".1"/>
<path d="m64.452 91.172c-0.03 0.031-0.073 0.051-0.118 0.056-0.046 5e-3 -0.093-6e-3 -0.128-0.029-0.035-0.024-0.058-0.06-0.062-0.099s0.01-0.079 0.04-0.109c0.029-0.031 0.072-0.052 0.118-0.057s0.092 6e-3 0.128 0.03c0.035 0.024 0.057 0.06 0.062 0.099 4e-3 0.038-0.011 0.078-0.04 0.109zm8.5118-0.9188c-0.03 0.031-0.073 0.051-0.118 0.056-0.046 5e-3 -0.093-6e-3 -0.128-0.029-0.035-0.025-0.058-0.06-0.062-0.099s0.01-0.078 0.04-0.109c0.029-0.031 0.072-0.052 0.118-0.057s0.092 6e-3 0.128 0.03c0.035 0.024 0.057 0.06 0.062 0.099 4e-3 0.038-0.011 0.078-0.04 0.109zm-7.5732 1.5676c0.016-0.01 0.032-0.019 0.048-0.03-0.018-8e-3 -0.036-0.017-0.054-0.026m-0.016-0.145c0.119 1e-3 0.244-0.033 0.356-0.082-0.168-0.055-0.315-0.225-0.365-0.357 0.328 0.262 0.574 0.182 0.858 0.056 0.49-0.198 0.901-0.17 1.444 0.509-1.142-0.786-1.719 0.183-2.255 0.221-0.081 6e-3 -0.16-0.01-0.24-0.055 0.069-9e-3 0.144-0.042 0.224-0.091m-6e-3 -0.056c-0.097-0.052-0.182-0.127-0.23-0.196l0.026 0.013c0.059 0.026 0.123 0.038 0.188 0.038m6.937-0.6342c-0.016 0.013-0.031 0.025-0.048 0.037 0.018 7e-3 0.036 0.013 0.054 0.019m0.016 0.146c-0.532 0.077-1.303-0.746-2.251 0.265 0.386-0.779 0.781-0.893 1.303-0.805 0.304 0.063 0.561 0.088 0.826-0.238-0.021 0.14-0.128 0.337-0.28 0.427 0.12 0.024 0.248 0.031 0.364 4e-3m0.022 0.201c0.088 0.031 0.169 0.047 0.239 0.041-0.069 0.062-0.143 0.094-0.223 0.105m-0.038-0.347c0.064-0.014 0.124-0.039 0.177-0.077l0.022-0.018c-0.032 0.077-0.099 0.169-0.183 0.24m-6.9868-37.712c-1.588 3.259-5.519 4.614-8.778 3.026-3.259-1.589-4.614-5.519-3.025-8.778 1.588-3.26 5.518-4.614 8.777-3.026 3.26 1.589 4.615 5.519 3.026 8.778z" stroke="#000" stroke-width=".1"/>
<path d="m64.729 52.986c-1.43 2.934-4.967 4.153-7.9 2.723-2.934-1.43-4.153-4.967-2.723-7.9 1.429-2.934 4.967-4.153 7.9-2.723 2.934 1.429 4.153 4.966 2.723 7.9z" stroke="#000" stroke-width=".1"/>
<path d="m64.139 52.698c-1.271 2.608-4.415 3.691-7.022 2.42-2.608-1.27-3.692-4.414-2.421-7.022s4.415-3.691 7.023-2.42c2.607 1.27 3.691 4.414 2.42 7.022z" stroke="#000" stroke-width=".1"/>
<path d="m63.548 52.41c-1.112 2.282-3.863 3.23-6.145 2.118-2.281-1.112-3.229-3.863-2.117-6.145 1.112-2.281 3.863-3.23 6.144-2.118 2.282 1.112 3.23 3.863 2.118 6.145z" stroke="#000" stroke-width=".1"/>
<path d="m63.156 52.254c-1 2.052-3.475 2.905-5.528 1.905-2.052-1-2.905-3.475-1.905-5.527 1.001-2.053 3.475-2.906 5.528-1.906 2.052 1.001 2.905 3.476 1.905 5.528z" stroke="#000" stroke-width=".1"/>
<path d="m60.797 48.788c0.137-0.282 0.421-0.427 0.634-0.323l0.06 0.03c0.213 0.103 0.274 0.416 0.136 0.698m-2.6443-1.2892c0.137-0.282 0.421-0.427 0.634-0.323l0.06 0.03c0.213 0.103 0.274 0.416 0.136 0.698m-0.8866 4.3182c-0.137 0.282-0.077 0.595 0.136 0.698l0.061 0.03c0.212 0.103 0.496-0.041 0.633-0.323m-2.6443-1.2892c-0.137 0.282-0.077 0.595 0.136 0.698l0.061 0.03c0.212 0.103 0.496-0.041 0.633-0.323" stroke="#000" stroke-width=".1"/>
<polyline points="57.753 47.989 56.883 48.289 57.183 49.159" stroke="#000" stroke-width=".1"/>
<polyline points="60.503 51.501 60.539 51.519 60.713 52.023 60.209 52.197 56.738 50.506 56.333 51.336 60.143 53.193 60.143 53.193 61.013 52.893" stroke="#000" stroke-width=".1"/>
<path d="m58.688 50.617l0.984 0.479" stroke="#000" stroke-width=".1"/>
<polyline points="57.183 49.159 57.478 50.014 57.484 50.029 57.858 50.212" stroke="#000" stroke-width=".1"/>
<polyline points="61.013 52.893 61.883 52.593 61.583 51.723" stroke="#000" stroke-width=".1"/>
<polyline points="60.907 50.67 61.283 50.853 61.582 51.723" stroke="#000" stroke-width=".1"/>
<path d="m59.093 49.786l0.984 0.479" stroke="#000" stroke-width=".1"/>
<polyline points="57.753 47.989 58.623 47.689 58.623 47.689 62.433 49.546 62.028 50.376 58.557 48.685 58.053 48.859 58.243 49.41" stroke="#000" stroke-width=".1"/>
<polygon points="58.358 51.295 58.688 50.618 59.672 51.097 59.342 51.774 60.172 52.179 60.502 51.502 60.908 50.669 61.238 49.992 60.408 49.587 60.078 50.264 59.094 49.785 59.424 49.108 58.594 48.703 58.263 49.38 57.858 50.213 57.528 50.89" stroke="#000" stroke-width=".1"/>
<path d="m48.745 25.891c0.275-0.944 0.536-1.879 0.801-2.797l0.173-0.596c1e-3 1e-3 1e-3 2e-3 2e-3 2e-3 0.05-0.171 0.104-0.358 0.159-0.546 0.265-0.91 0.531-1.82 0.792-2.731 0.025-0.089 0.069-0.135 0.154-0.163 0.469-0.153 0.95-0.257 1.441-0.288 0.434-0.028 0.872-0.037 1.307-0.019 0.609 0.025 1.212 0.115 1.801 0.278 0.026 7e-3 0.049 9e-3 0.071 9e-3 0.077 0.017 0.15 0.033 0.21 0.046 0 5e-3 1e-3 0.01 1e-3 0.015 0.05 6e-3 0.101 0.016 0.151 0.021l-0.069 0.252c-3e-3 5e-3 -7e-3 0.01-0.011 0.014 2e-3 2e-3 4e-3 4e-3 6e-3 5e-3l-0.072 0.267c-4e-3 9e-3 -7e-3 0.018-9e-3 0.027-0.208 0.722-0.419 1.442-0.629 2.163-0.337 1.16-0.675 2.32-1.009 3.481l-0.188 0.622c-9e-3 0.019-0.018 0.039-0.025 0.051-9e-3 1e-3 -0.016 1e-3 -0.025 2e-3 -0.065-0.016-0.229-0.055-0.439-0.102-6e-3 -5e-3 -0.012-0.01-0.019-0.015-3e-3 3e-3 -7e-3 6e-3 -0.01 8e-3 -0.366-0.081-0.858-0.182-1.216-0.221 0 1e-3 0 2e-3 -1e-3 3e-3 -0.49-0.062-0.984-0.09-1.481-0.075-0.626 0.019-1.245 0.101-1.866 0.287zm-0.778-0.457c-0.419-0.42-0.888-0.777-1.388-1.096-0.443-0.281-0.907-0.522-1.388-0.726-0.378-0.16-0.772-0.285-1.162-0.418-0.085-0.029-0.11-0.058-0.083-0.148 0.648-2.222 1.295-4.445 1.939-6.668 0.026-0.089 0.062-0.109 0.15-0.081 0.589 0.185 1.163 0.405 1.712 0.689 0.76 0.393 1.46 0.872 2.064 1.483 0.137 0.138 0.261 0.29 0.384 0.442 0.029 0.036 0.045 0.105 0.032 0.148-0.256 0.886-0.516 1.771-0.776 2.655h-1e-3l-0.447 1.539c-0.241 0.829-0.483 1.66-0.727 2.5-0.112-0.115-0.209-0.218-0.309-0.319zm-3.968-5.894l0.052-0.178c4e-3 -9e-3 8e-3 -0.017 0.011-0.026 0.25-0.852 0.498-1.705 0.745-2.558 0.054-0.185-0.021-0.308-0.208-0.363-0.189-0.055-0.321 7e-3 -0.375 0.19-0.194 0.664-0.386 1.329-0.578 1.993h-2e-3l-0.477 1.641c0 1e-3 -1e-3 2e-3 -1e-3 3e-3 -0.357 1.223-0.715 2.447-1.067 3.672-0.132 0.458 0.095 0.873 0.55 1.016 0.364 0.115 0.732 0.219 1.099 0.326 1.114 0.324 2.227 0.648 3.341 0.968 0.101 0.029 0.149 0.078 0.18 0.177 0.087 0.289 0.271 0.515 0.529 0.66 0.467 0.264 1.006 0.235 1.42-0.121 0.066-0.057 0.122-0.061 0.2-0.037 0.238 0.073 0.478 0.139 0.718 0.207 0.012 3e-3 0.024 5e-3 0.037 8e-3l0.423 0.123c0 1e-3 1e-3 3e-3 2e-3 5e-3 3e-3 -1e-3 6e-3 -1e-3 9e-3 -2e-3l0.226 0.066c0.031 0.01 0.054 0.018 0.077 0.025 0.963 0.282 1.926 0.566 2.891 0.84 0.142 0.041 0.303 0.06 0.449 0.038 0.356-0.052 0.559-0.285 0.658-0.625 0.695-2.398 1.394-4.796 2.091-7.194 0.012-0.042 0.025-0.086 0.03-0.13 0.017-0.135-0.06-0.249-0.191-0.287-0.132-0.039-0.264 0.022-0.318 0.15-0.019 0.045-0.031 0.092-0.044 0.138-0.632 2.173-1.264 4.347-1.897 6.52-0.145 0.498-0.583 0.74-1.08 0.598-0.286-0.082-0.571-0.166-0.856-0.249-0.289-0.084-0.578-0.168-0.866-0.252v1e-3l-0.792-0.231c-0.012-4e-3 -0.022-0.01-0.035-0.013-0.193-0.053-0.384-0.109-0.576-0.164l-0.071-0.021c-0.22-0.064-0.44-0.129-0.66-0.193-0.034-0.01-0.066-0.027-0.099-0.041 0.975-0.196 1.941-0.16 2.902-0.013 0.318 0.058 0.85 0.174 1.683 0.409 0.019-0.066 0.035-0.122 0.052-0.178 0.659-2.266 1.318-4.532 1.977-6.798 0.01-0.034 0.02-0.067 0.028-0.1 0.077-0.254 0.176-0.586 0.212-0.724-0.08-0.054-0.547-0.162-0.88-0.235-0.23-0.053-0.459-0.109-0.69-0.154-0.686-0.135-1.379-0.19-2.078-0.168-0.71 0.022-1.406 0.122-2.079 0.355-0.061 0.021-0.095 6e-3 -0.131-0.041-0.522-0.661-1.17-1.176-1.878-1.619-0.427-0.268-0.871-0.512-1.345-0.686-0.54-0.198-1.088-0.375-1.631-0.563-0.069-0.024-0.101-5e-3 -0.119 0.066-0.039 0.151-0.086 0.3-0.129 0.45-0.691 2.373-1.381 4.745-2.071 7.118-0.04 0.138-0.041 0.139 0.099 0.176 0.802 0.217 1.576 0.508 2.305 0.909 0.343 0.188 0.673 0.402 0.997 0.623 0.233 0.159 0.445 0.349 0.667 0.526-5e-3 0.01-0.01 0.019-0.015 0.029-0.031-5e-3 -0.062-6e-3 -0.092-0.015-1.302-0.378-2.605-0.756-3.906-1.14-0.107-0.031-0.214-0.093-0.297-0.167-0.269-0.241-0.34-0.545-0.24-0.888 0.329-1.136 0.659-2.27 0.989-3.405 9e-3 -0.031 0.016-0.063 0.024-0.1l0.047-0.161c2e-3 0 3e-3 -1e-3 4e-3 -1e-3 -1e-3 -2e-3 -1e-3 -3e-3 -2e-3 -4e-3l0.043-0.15 9e-3 -0.031z" stroke="#000" stroke-width=".1"/>
<path d="m54.707 21.484c-0.11-0.017-0.218-0.036-0.327-0.05-0.375-0.049-0.749-0.114-1.125-0.141-0.412-0.029-0.827-0.03-1.241-0.031-0.374-1e-3 -0.746 0.037-1.108 0.135-0.264 0.072-0.25 0.013-0.13 0.295 0.022 0.052 0.041 0.061 0.098 0.046 0.157-0.042 0.316-0.081 0.476-0.103 0.574-0.081 1.151-0.086 1.726-0.033 0.497 0.046 0.992 0.122 1.487 0.189 0.075 0.01 0.114-1e-3 0.12-0.081 5e-3 -0.07 0.015-0.14 0.024-0.226zm-2.7791-1.2947c0.242-0.028 0.486-0.045 0.73-0.048 0.629-6e-3 1.255 0.049 1.878 0.141 0.179 0.026 0.357 0.056 0.538 0.084 8e-3 -0.024 0.016-0.038 0.017-0.051 0.011-0.081 0.02-0.162 0.032-0.26-0.157-0.025-0.302-0.053-0.449-0.07-0.46-0.053-0.919-0.119-1.381-0.149-0.558-0.035-1.117-0.027-1.671 0.065-0.175 0.029-0.347 0.079-0.533 0.122 0.05 0.116 0.09 0.206 0.123 0.283 0.245-0.041 0.479-0.09 0.716-0.117zm2.3244 3.0361c0.013-0.107 0.025-0.207 0.04-0.327-0.567-0.067-1.117-0.148-1.67-0.191-0.579-0.045-1.161-0.047-1.738 0.042-0.206 0.032-0.409 0.084-0.627 0.13 0.049 0.116 0.087 0.206 0.126 0.297 1.295-0.317 2.577-0.144 3.869 0.049zm-1.0318 1.3399c0.201 0.028 0.402 0.061 0.613 0.094 0.014-0.104 0.027-0.199 0.041-0.3-0.037-0.011-0.061-0.022-0.087-0.025-0.543-0.066-1.086-0.144-1.632-0.193-0.597-0.054-1.196-0.044-1.79 0.056-0.172 0.029-0.342 0.076-0.523 0.118 0.036 0.086 0.065 0.145 0.085 0.208 0.025 0.075 0.066 0.083 0.141 0.071 0.36-0.057 0.72-0.13 1.083-0.151 0.693-0.04 1.383 0.025 2.069 0.122zm-7.6794-5.5254c-0.041 0.079-0.019 0.114 0.063 0.147 0.211 0.083 0.421 0.167 0.623 0.269 0.364 0.183 0.728 0.367 1.078 0.574 0.305 0.18 0.599 0.381 0.883 0.592 0.212 0.158 0.4 0.347 0.608 0.531 0.069-0.047 0.153-0.103 0.257-0.173-0.957-1.026-2.179-1.587-3.427-2.142-0.033 0.08-0.055 0.143-0.085 0.202zm3.0792 3.381c-0.021-0.029-0.037-0.054-0.056-0.076-0.39-0.449-0.871-0.788-1.378-1.085-0.408-0.24-0.834-0.45-1.257-0.664-0.231-0.117-0.471-0.213-0.721-0.325-0.043 0.105-0.081 0.198-0.119 0.291 1.195 0.531 2.364 1.071 3.281 2.03 0.082-0.056 0.164-0.112 0.25-0.171zm-3.8282-0.7122c-0.03 0.071-0.051 0.133-0.082 0.191-0.039 0.074-0.02 0.107 0.057 0.14 0.292 0.127 0.584 0.255 0.871 0.395 0.246 0.12 0.491 0.244 0.723 0.388 0.355 0.221 0.705 0.449 1.042 0.694 0.198 0.144 0.368 0.327 0.558 0.499 0.074-0.049 0.156-0.104 0.247-0.165-0.296-0.376-0.663-0.655-1.046-0.913-0.739-0.497-1.535-0.889-2.37-1.229zm4.5278-2.0599c0.044-0.03 0.088-0.06 0.134-0.092-0.035-0.043-0.061-0.079-0.09-0.112-0.412-0.455-0.91-0.801-1.436-1.102-0.443-0.254-0.906-0.472-1.363-0.7-0.168-0.083-0.343-0.151-0.527-0.231-0.042 0.104-0.077 0.192-0.116 0.289 1.191 0.527 2.361 1.07 3.28 2.029 0.034-0.023 0.076-0.052 0.118-0.081zm34.45 52.996c-0.313-0.194-0.535-0.407-0.527-0.83 5e-3 -0.288 0.346-0.639 0.934-0.965 0.558-0.309 1.23-0.533 1.619-0.61 0.642-0.127 0.971 0.037 1.108 0.145-0.76 0.281-1.443 0.825-2.07 1.376-0.26 0.228-0.492 0.417-0.717 0.599-0.12 0.098-0.235 0.191-0.347 0.285z" stroke="#000" stroke-width=".1"/>
<path d="m85.357 76.428c-0.119-0.454-0.094-0.843-6e-3 -0.992 0.077-0.133 0.106-0.129 0.211-0.115 0.302 0.039 0.783 0.305 1.119 0.502 0.336 0.196 0.804 0.485 0.986 0.728 0.064 0.085 0.081 0.108 3e-3 0.241-0.087 0.149-0.413 0.362-0.867 0.481-0.447 0.117-0.837 0.093-0.977 0.011s-0.352-0.409-0.469-0.856" fill="#000"/>
<path d="m87.377 79.65c-0.6-0.045-1.29-0.282-2.102-0.724l0.728-1.246c0.293 0.047 0.589-0.013 0.73-0.05 0.2-0.052 0.686-0.214 0.906-0.59 0.18-0.307 0.164-0.631-0.046-0.911-0.14-0.186-0.357-0.356-0.749-0.585s-0.647-0.335-0.878-0.366c-0.346-0.045-0.636 0.099-0.816 0.407-0.22 0.376-0.122 0.879-0.07 1.078 0.037 0.142 0.13 0.43 0.315 0.661l-0.729 1.246c-0.783-0.49-1.329-0.976-1.662-1.477-0.524-0.788-0.521-1.613 0.011-2.522 0.455-0.778 0.913-1.15 1.547-1.665 0.219-0.178 0.467-0.38 0.737-0.616 1.482-1.302 2.562-1.845 4.026-0.989 1.463 0.855 1.52 2.063 1.113 3.993-0.074 0.352-0.128 0.667-0.176 0.945-0.138 0.805-0.238 1.387-0.692 2.165-0.532 0.909-1.249 1.316-2.193 1.246zm4.4835-2.7976c-0.365 0.215-0.66 0.125-0.982-0.052 0.027-0.143 0.052-0.29 0.078-0.443 0.049-0.285 0.099-0.58 0.171-0.918 0.172-0.816 0.311-1.679 0.183-2.479 0.161 0.067 0.466 0.273 0.67 0.895 0.123 0.377 0.258 1.072 0.263 1.71 4e-3 0.672-0.135 1.141-0.383 1.287z" stroke="#000" stroke-width=".1"/>
<path d="m86.778 73.334c-0.22-0.129-0.505-0.052-0.636 0.171-0.13 0.223-0.057 0.509 0.163 0.638 0.221 0.128 0.505 0.052 0.636-0.171 0.131-0.224 0.057-0.509-0.163-0.638m2.0231 1.1785c-0.222-0.13-0.509-0.053-0.641 0.172-0.131 0.225-0.058 0.513 0.165 0.643 0.221 0.13 0.508 0.053 0.64-0.172s0.058-0.513-0.164-0.643" fill="#000"/>
</g>
</svg>
