<?xml version="1.0" encoding="UTF-8"?>
<svg width="23px" height="23px" viewBox="0 0 23 23" version="1.1" xmlns="http://www.w3.org/2000/svg" xmlns:xlink="http://www.w3.org/1999/xlink">
    <!-- Generator: Sketch 45.2 (43514) - http://www.bohemiancoding.com/sketch -->
    <title>shopping-cart</title>
    <desc>Created with Sketch.</desc>
    <defs></defs>
    <g id="Welcome" stroke="none" stroke-width="1" fill="none" fill-rule="evenodd">
        <g id="Vendor-App-Home" transform="translate(-940.000000, -34.000000)" fill="#FFFFFF">
            <g id="shopping-cart" transform="translate(940.000000, 34.539960)">
                <path d="M0.902212844,17.9482768 L1.82362171,17.9482768 C1.19015311,19.0808419 1.34372126,20.5397392 2.30352215,21.4995401 C2.86020668,22.0562246 3.60885138,22.3633609 4.41508413,22.3633609 C5.22131688,22.3633609 5.95076557,22.0562246 6.52664611,21.4995401 C7.08333063,20.9428556 7.39046691,20.1942109 7.39046691,19.3879781 C7.39046691,18.8696857 7.25609479,18.3897852 7.00654655,17.9482768 L10.711378,17.9482768 C10.0779094,19.0808419 10.2314776,20.5397392 11.1912785,21.4995401 C11.747963,22.0562246 12.4966077,22.3633609 13.3028404,22.3633609 C14.1090732,22.3633609 14.8385219,22.0562246 15.4144024,21.4995401 C15.9710869,20.9428556 16.2782232,20.1942109 16.2782232,19.3879781 C16.2782232,18.8696857 16.1438511,18.3897852 15.8943029,17.9482768 L16.8924958,17.9482768 C17.3340042,17.9482768 17.6795325,17.6027485 17.6795325,17.1612401 C17.6795325,16.7197316 17.3340042,16.3742033 16.8924958,16.3742033 L1.68924958,16.3742033 L1.68924958,14.8385219 L18.9656657,14.8385219 C19.3111941,14.8385219 19.6183304,14.6081697 19.7143104,14.2626413 L22.3249689,4.72222042 C22.3825569,4.4918682 22.3441649,4.24231997 22.1905968,4.05035979 C22.0370286,3.85839961 21.8066764,3.7432235 21.5763242,3.7432235 L1.68924958,3.7432235 L1.68924958,0.883016826 C1.68924958,0.441508413 1.34372126,0.0959800898 0.902212844,0.0959800898 C0.460704431,0.0959800898 0.115176108,0.441508413 0.115176108,0.883016826 L0.115176108,4.51106422 L0.115176108,14.0514851 L0.115176108,17.142044 C0.115176108,17.6027485 0.460704431,17.9482768 0.902212844,17.9482768 Z M12.2854515,18.3897852 C12.5541957,18.121041 12.8997241,17.9674728 13.2836444,17.9674728 C13.6675648,17.9674728 14.0130931,18.121041 14.2818374,18.3897852 C14.5505816,18.6585295 14.7041498,19.0040578 14.7041498,19.3879781 C14.7041498,19.7718985 14.5505816,20.1174268 14.2818374,20.3861711 C13.7443489,20.9236596 12.82294,20.9236596 12.2854515,20.3861711 C11.728767,19.8294866 11.728767,18.9464697 12.2854515,18.3897852 Z M3.4168912,18.3897852 C3.68563545,18.121041 4.03116377,17.9674728 4.41508413,17.9674728 C4.79900449,17.9674728 5.14453281,18.121041 5.41327706,18.3897852 C5.68202132,18.6585295 5.83558946,19.0040578 5.83558946,19.3879781 C5.83558946,19.7718985 5.68202132,20.1174268 5.41327706,20.3861711 C4.87578856,20.9236596 3.9543797,20.9236596 3.4168912,20.3861711 C2.86020668,19.8294866 2.86020668,18.9464697 3.4168912,18.3897852 L3.4168912,18.3897852 Z M1.68924958,5.29810096 L20.5397392,5.29810096 L18.3513932,13.2836444 L1.68924958,13.2836444 L1.68924958,5.29810096 Z" id="Shape" fill-rule="nonzero"></path>
                <polygon id="Rectangle" points="1 4.46003958 21.614845 4.46003958 19.3298421 13.4600396 1 13.4600396"></polygon>
            </g>
        </g>
    </g>
</svg>