<?xml version="1.0" encoding="UTF-8"?>
<svg width="37px" height="37px" viewBox="0 0 37 37" version="1.1" xmlns="http://www.w3.org/2000/svg" xmlns:xlink="http://www.w3.org/1999/xlink">
    <!-- Generator: Sketch 45.2 (43514) - http://www.bohemiancoding.com/sketch -->
    <title>Shopping Cart</title>
    <desc>Created with Sketch.</desc>
    <defs>
        <circle id="path-1" cx="14.5182223" cy="14.2074818" r="13.8248716"></circle>
        <filter x="-23.5%" y="-23.5%" width="147.0%" height="147.0%" filterUnits="objectBoundingBox" id="filter-2">
            <feMorphology radius="0.5" operator="dilate" in="SourceAlpha" result="shadowSpreadOuter1"></feMorphology>
            <feOffset dx="0" dy="0" in="shadowSpreadOuter1" result="shadowOffsetOuter1"></feOffset>
            <feGaussianBlur stdDeviation="2" in="shadowOffsetOuter1" result="shadowBlurOuter1"></feGaussianBlur>
            <feComposite in="shadowBlurOuter1" in2="SourceAlpha" operator="out" result="shadowBlurOuter1"></feComposite>
            <feColorMatrix values="0 0 0 0 0   0 0 0 0 0   0 0 0 0 0  0 0 0 0.5 0" type="matrix" in="shadowBlurOuter1"></feColorMatrix>
        </filter>
    </defs>
    <g id="Welcome" stroke="none" stroke-width="1" fill="none" fill-rule="evenodd">
        <g id="SH-Seller-Store" transform="translate(-791.000000, -35.000000)" fill-rule="nonzero">
            <g id="Top-Bar" transform="translate(-1.000000, 0.000000)">
                <g id="Cart" transform="translate(795.957400, 36.082996)">
                    <g id="SH-Shopping-Cart-Tooltip" transform="translate(0.036001, 0.286464)">
                        <g id="Shopping-Cart" transform="translate(0.000000, 3.000000)">
                            <g id="Oval">
                                <use fill="black" fill-opacity="1" filter="url(#filter-2)" xlink:href="#path-1"></use>
                                <use stroke="#003366" stroke-width="1" fill="#FFFFFF" fill-rule="evenodd" xlink:href="#path-1"></use>
                            </g>
                            <g id="SH-Shopping-Cart" transform="translate(6.783352, 5.743737)">
                                <g id="Shape">
                                    <g id="path-1-link" fill="#000000">
                                        <path d="M0.716353265,13.8538977 L1.44794809,13.8538977 C0.944976647,14.7025693 1.06690912,15.7957732 1.82898705,16.5149864 C2.27099227,16.93213 2.86541306,17.1622783 3.50555853,17.1622783 C4.14570399,17.1622783 4.72488323,16.93213 5.18213,16.5149864 C5.62413521,16.0978428 5.86800014,15.5368565 5.86800014,14.9327174 C5.86800014,14.5443424 5.76130923,14.1847357 5.56316896,13.8538977 L8.5047898,13.8538977 C8.00181838,14.7025693 8.12375089,15.7957732 8.88582879,16.5149864 C9.32783403,16.93213 9.92225483,17.1622783 10.5624002,17.1622783 C11.2025458,17.1622783 11.781725,16.93213 12.2389717,16.5149864 C12.6809769,16.0978428 12.9248418,15.5368565 12.9248418,14.9327174 C12.9248418,14.5443424 12.818151,14.1847357 12.6200107,13.8538977 L13.4125717,13.8538977 C13.7631276,13.8538977 14.0374757,13.594981 14.0374757,13.2641429 C14.0374757,12.9333048 13.7631276,12.6743881 13.4125717,12.6743881 L1.34125717,12.6743881 L1.34125717,11.523647 L15.0586601,11.523647 C15.3330082,11.523647 15.5768731,11.3510359 15.6530809,11.0921191 L17.7259329,3.94314017 C17.7716576,3.77052901 17.7411744,3.58353358 17.619242,3.43969095 C17.4973095,3.29584831 17.3144108,3.20954273 17.1315121,3.20954273 L1.34125717,3.20954273 L1.34125717,1.06628748 C1.34125717,0.735449418 1.06690912,0.476532676 0.716353265,0.476532676 C0.365797412,0.476532676 0.0914493534,0.735449418 0.0914493534,1.06628748 L0.0914493534,3.78491327 L0.0914493534,10.9338922 L0.0914493534,13.2497586 C0.0914493534,13.594981 0.365797412,13.8538977 0.716353265,13.8538977 Z M9.75459767,14.1847357 C9.96797941,13.9833561 10.2423276,13.8682819 10.5471587,13.8682819 C10.8519899,13.8682819 11.1263379,13.9833561 11.3397198,14.1847357 C11.5531016,14.3861155 11.6750341,14.6450322 11.6750341,14.9327174 C11.6750341,15.2204027 11.5531016,15.4793194 11.3397198,15.6806992 C10.9129561,16.0834585 10.1813613,16.0834585 9.75459767,15.6806992 C9.31259243,15.2635555 9.31259243,14.6018794 9.75459767,14.1847357 Z M2.71299747,14.1847357 C2.92637929,13.9833561 3.20072735,13.8682819 3.50555853,13.8682819 C3.81038971,13.8682819 4.08473776,13.9833561 4.29811959,14.1847357 C4.51150141,14.3861155 4.63343388,14.6450322 4.63343388,14.9327174 C4.63343388,15.2204027 4.51150141,15.4793194 4.29811959,15.6806992 C3.87135594,16.0834585 3.13976112,16.0834585 2.71299747,15.6806992 C2.27099227,15.2635555 2.27099227,14.6018794 2.71299747,14.1847357 L2.71299747,14.1847357 Z M1.34125717,4.37466807 L16.3084679,4.37466807 L14.5709303,10.3585216 L1.34125717,10.3585216 L1.34125717,4.37466807 Z" id="path-1"></path>
                                    </g>
                                    <g id="path-1-link" fill="#4A4A4A">
                                        <path d="M0.716353265,13.8538977 L1.44794809,13.8538977 C0.944976647,14.7025693 1.06690912,15.7957732 1.82898705,16.5149864 C2.27099227,16.93213 2.86541306,17.1622783 3.50555853,17.1622783 C4.14570399,17.1622783 4.72488323,16.93213 5.18213,16.5149864 C5.62413521,16.0978428 5.86800014,15.5368565 5.86800014,14.9327174 C5.86800014,14.5443424 5.76130923,14.1847357 5.56316896,13.8538977 L8.5047898,13.8538977 C8.00181838,14.7025693 8.12375089,15.7957732 8.88582879,16.5149864 C9.32783403,16.93213 9.92225483,17.1622783 10.5624002,17.1622783 C11.2025458,17.1622783 11.781725,16.93213 12.2389717,16.5149864 C12.6809769,16.0978428 12.9248418,15.5368565 12.9248418,14.9327174 C12.9248418,14.5443424 12.818151,14.1847357 12.6200107,13.8538977 L13.4125717,13.8538977 C13.7631276,13.8538977 14.0374757,13.594981 14.0374757,13.2641429 C14.0374757,12.9333048 13.7631276,12.6743881 13.4125717,12.6743881 L1.34125717,12.6743881 L1.34125717,11.523647 L15.0586601,11.523647 C15.3330082,11.523647 15.5768731,11.3510359 15.6530809,11.0921191 L17.7259329,3.94314017 C17.7716576,3.77052901 17.7411744,3.58353358 17.619242,3.43969095 C17.4973095,3.29584831 17.3144108,3.20954273 17.1315121,3.20954273 L1.34125717,3.20954273 L1.34125717,1.06628748 C1.34125717,0.735449418 1.06690912,0.476532676 0.716353265,0.476532676 C0.365797412,0.476532676 0.0914493534,0.735449418 0.0914493534,1.06628748 L0.0914493534,3.78491327 L0.0914493534,10.9338922 L0.0914493534,13.2497586 C0.0914493534,13.594981 0.365797412,13.8538977 0.716353265,13.8538977 Z M9.75459767,14.1847357 C9.96797941,13.9833561 10.2423276,13.8682819 10.5471587,13.8682819 C10.8519899,13.8682819 11.1263379,13.9833561 11.3397198,14.1847357 C11.5531016,14.3861155 11.6750341,14.6450322 11.6750341,14.9327174 C11.6750341,15.2204027 11.5531016,15.4793194 11.3397198,15.6806992 C10.9129561,16.0834585 10.1813613,16.0834585 9.75459767,15.6806992 C9.31259243,15.2635555 9.31259243,14.6018794 9.75459767,14.1847357 Z M2.71299747,14.1847357 C2.92637929,13.9833561 3.20072735,13.8682819 3.50555853,13.8682819 C3.81038971,13.8682819 4.08473776,13.9833561 4.29811959,14.1847357 C4.51150141,14.3861155 4.63343388,14.6450322 4.63343388,14.9327174 C4.63343388,15.2204027 4.51150141,15.4793194 4.29811959,15.6806992 C3.87135594,16.0834585 3.13976112,16.0834585 2.71299747,15.6806992 C2.27099227,15.2635555 2.27099227,14.6018794 2.71299747,14.1847357 L2.71299747,14.1847357 Z M1.34125717,4.37466807 L16.3084679,4.37466807 L14.5709303,10.3585216 L1.34125717,10.3585216 L1.34125717,4.37466807 Z" id="path-1"></path>
                                    </g>
                                </g>
                                <polygon id="Rectangle" fill="#4A4A4A" points="0.79399586 3.74667868 17.1620975 3.74667868 15.3478146 10.4907009 0.79399586 10.4907009"></polygon>
                            </g>
                        </g>
                    </g>
                </g>
            </g>
        </g>
    </g>
</svg>