<?xml version="1.0" encoding="UTF-8"?>
<svg width="29px" height="29px" viewBox="0 0 29 29" version="1.1" xmlns="http://www.w3.org/2000/svg" xmlns:xlink="http://www.w3.org/1999/xlink">
    <!-- Generator: Sketch 45.2 (43514) - http://www.bohemiancoding.com/sketch -->
    <title>shopping-cart</title>
    <desc>Created with Sketch.</desc>
    <defs>
        <path d="M0.902212844,18.4882368 L1.82362171,18.4882368 C1.19015311,19.6208019 1.34372126,21.0796992 2.30352215,22.0395001 C2.86020668,22.5961846 3.60885138,22.9033209 4.41508413,22.9033209 C5.22131688,22.9033209 5.95076557,22.5961846 6.52664611,22.0395001 C7.08333063,21.4828156 7.39046691,20.7341709 7.39046691,19.9279381 C7.39046691,19.4096457 7.25609479,18.9297452 7.00654655,18.4882368 L10.711378,18.4882368 C10.0779094,19.6208019 10.2314776,21.0796992 11.1912785,22.0395001 C11.747963,22.5961846 12.4966077,22.9033209 13.3028404,22.9033209 C14.1090732,22.9033209 14.8385219,22.5961846 15.4144024,22.0395001 C15.9710869,21.4828156 16.2782232,20.7341709 16.2782232,19.9279381 C16.2782232,19.4096457 16.1438511,18.9297452 15.8943029,18.4882368 L16.8924958,18.4882368 C17.3340042,18.4882368 17.6795325,18.1427085 17.6795325,17.7012001 C17.6795325,17.2596916 17.3340042,16.9141633 16.8924958,16.9141633 L1.68924958,16.9141633 L1.68924958,15.3784819 L18.9656657,15.3784819 C19.3111941,15.3784819 19.6183304,15.1481297 19.7143104,14.8026013 L22.3249689,5.26218042 C22.3825569,5.0318282 22.3441649,4.78227997 22.1905968,4.59031979 C22.0370286,4.39835961 21.8066764,4.2831835 21.5763242,4.2831835 L1.68924958,4.2831835 L1.68924958,1.42297683 C1.68924958,0.981468413 1.34372126,0.63594009 0.902212844,0.63594009 C0.460704431,0.63594009 0.115176108,0.981468413 0.115176108,1.42297683 L0.115176108,5.05102422 L0.115176108,14.5914451 L0.115176108,17.682004 C0.115176108,18.1427085 0.460704431,18.4882368 0.902212844,18.4882368 Z M12.2854515,18.9297452 C12.5541957,18.661001 12.8997241,18.5074328 13.2836444,18.5074328 C13.6675648,18.5074328 14.0130931,18.661001 14.2818374,18.9297452 C14.5505816,19.1984895 14.7041498,19.5440178 14.7041498,19.9279381 C14.7041498,20.3118585 14.5505816,20.6573868 14.2818374,20.9261311 C13.7443489,21.4636196 12.82294,21.4636196 12.2854515,20.9261311 C11.728767,20.3694466 11.728767,19.4864297 12.2854515,18.9297452 Z M3.4168912,18.9297452 C3.68563545,18.661001 4.03116377,18.5074328 4.41508413,18.5074328 C4.79900449,18.5074328 5.14453281,18.661001 5.41327706,18.9297452 C5.68202132,19.1984895 5.83558946,19.5440178 5.83558946,19.9279381 C5.83558946,20.3118585 5.68202132,20.6573868 5.41327706,20.9261311 C4.87578856,21.4636196 3.9543797,21.4636196 3.4168912,20.9261311 C2.86020668,20.3694466 2.86020668,19.4864297 3.4168912,18.9297452 L3.4168912,18.9297452 Z M1.68924958,5.83806096 L20.5397392,5.83806096 L18.3513932,13.8236044 L1.68924958,13.8236044 L1.68924958,5.83806096 Z" id="path-1"></path>
        <filter x="-20.2%" y="-20.2%" width="140.5%" height="140.4%" filterUnits="objectBoundingBox" id="filter-2">
            <feOffset dx="0" dy="0" in="SourceAlpha" result="shadowOffsetOuter1"></feOffset>
            <feGaussianBlur stdDeviation="1.5" in="shadowOffsetOuter1" result="shadowBlurOuter1"></feGaussianBlur>
            <feColorMatrix values="0 0 0 0 0   0 0 0 0 0   0 0 0 0 0  0 0 0 0.5 0" type="matrix" in="shadowBlurOuter1"></feColorMatrix>
        </filter>
    </defs>
    <g id="Page-1" stroke="none" stroke-width="1" fill="none" fill-rule="evenodd">
        <g id="shopping-cart" transform="translate(3.000000, 3.000000)" fill-rule="nonzero">
            <g id="Shape">
                <use fill="black" fill-opacity="1" filter="url(#filter-2)" xlink:href="#path-1"></use>
                <use fill="#FFFFFF" fill-rule="evenodd" xlink:href="#path-1"></use>
            </g>
            <polygon id="Rectangle" fill="#FFFFFF" points="1 4.99999958 21.614845 4.99999958 19.3298421 13.9999996 1 13.9999996"></polygon>
        </g>
    </g>
</svg>