<?xml version="1.0" encoding="utf-8"?>
<!-- Generator: Adobe Illustrator 19.2.0, SVG Export Plug-In . SVG Version: 6.00 Build 0)  -->
<svg version="1.1" id="Layer_1" xmlns="http://www.w3.org/2000/svg" xmlns:xlink="http://www.w3.org/1999/xlink" x="0px" y="0px"
	 viewBox="0 0 505 505" style="enable-background:new 0 0 505 505;" xml:space="preserve">
<style type="text/css">
	.st0{fill:#324A5E;}
	.st1{fill:#ACB3BA;}
	.st2{fill:#2B3B4E;}
	.st3{fill:#FF7058;}
	.st4{fill:#54C0EB;}
	.st5{fill:#E6E9EE;}
	.st6{fill:#FFFFFF;}
	.st7{fill:#F1543F;}
</style>
<title>Stepper - Delivery</title>
<desc>Created with Sketch.</desc>
<g id="Page-1">
	<g id="Stepper---Delivery">
		<circle id="Oval_1_" class="st0" cx="345.8" cy="345.4" r="36.6"/>
		<g id="Group" transform="translate(320.000000, 320.000000)">
			<circle id="Oval_2_" class="st1" cx="25.8" cy="25.4" r="10.2"/>
			<path id="Shape" class="st1" d="M29.7,10.8c-2,0.8-6.3,0.8-7.9,0c-2-1.2-5.1-6.3-3.9-8.3c2-3.2,13.8-3.2,15.8,0
				C34.9,4.5,31.7,9.6,29.7,10.8z"/>
			<path id="Shape_1_" class="st1" d="M21.5,40c2-0.8,6.3-0.8,7.9,0c2,1.2,5.1,6.3,3.9,8.3c-2,3.2-13.8,3.2-15.8,0
				C16.3,46.3,19.5,40.8,21.5,40z"/>
			<path id="Shape_2_" class="st1" d="M40,29.3c-0.8-2-0.8-6.3,0-7.9c1.2-2,6.3-5.1,8.3-3.9c3.2,2,3.2,13.8,0,15.8
				C46.7,34.5,41.2,31.3,40,29.3z"/>
			<path id="Shape_3_" class="st1" d="M11.2,21.5c0.8,2,0.8,6.3,0,7.9c-1.2,2-6.3,5.1-8.3,3.9c-3.2-2-3.2-13.8,0-15.8
				C4.5,16,10,19.1,11.2,21.5z"/>
		</g>
		<circle id="Oval_3_" class="st2" cx="345.8" cy="345.4" r="3.9"/>
		<rect id="Rectangle-path" x="90.6" y="122.5" class="st3" width="181.2" height="167"/>
		<polygon id="Shape_4_" class="st4" points="401.7,215.4 346.6,122.5 281.6,122.5 281.6,289.5 401.7,289.5 		"/>
		<polygon id="Shape_5_" class="st5" points="378.5,215 335.2,142.2 301.3,142.2 301.3,215 		"/>
		<rect id="Rectangle-path_1_" x="301.3" y="233.2" class="st0" width="21.3" height="6.7"/>
		<path id="Shape_6_" class="st6" d="M388.3,244.2c0,7.5,5.9,13.4,13.4,13.4v-26.8C394.2,230.8,388.3,236.7,388.3,244.2z"/>
		<path id="Shape_7_" class="st7" d="M397.4,252.8c0,2.4,2,4.3,4.3,4.3v-8.7C399.4,248.5,397.4,250.5,397.4,252.8z"/>
		<g id="Group_1_" transform="translate(90.000000, 289.000000)">
			<path id="Shape_8_" class="st0" d="M315.7,0.5H0.6V56h20.9c0-24.4,20.1-44.1,44.5-44.1s44.1,19.7,44.5,44.1h101.2
				c0-24.4,20.1-44.1,44.5-44.1c24.4,0,44.1,19.7,44.5,44.1h15.8V0.5H315.7z"/>
			<circle id="Oval_4_" class="st0" cx="66" cy="56.4" r="36.6"/>
		</g>
		<g id="Group_2_" transform="translate(130.000000, 320.000000)">
			<circle id="Oval_5_" class="st1" cx="26" cy="25.4" r="10.2"/>
			<path id="Shape_9_" class="st1" d="M29.9,10.8c-2,0.8-6.3,0.8-7.9,0c-2-1.2-5.1-6.3-3.9-8.3c2-3.2,13.8-3.2,15.8,0
				C35,4.5,31.9,9.6,29.9,10.8z"/>
			<path id="Shape_10_" class="st1" d="M22,40c2-0.8,6.3-0.8,7.9,0c2,1.2,5.1,6.3,3.9,8.3c-2,3.2-13.8,3.2-15.8,0
				C16.5,46.3,19.7,40.8,22,40z"/>
			<path id="Shape_11_" class="st1" d="M40.5,29.3c-0.8-2-0.8-6.3,0-7.9c1.2-2,6.3-5.1,8.3-3.9c3.2,2,3.2,13.8,0,15.8
				C46.8,34.5,41.3,31.3,40.5,29.3z"/>
			<path id="Shape_12_" class="st1" d="M11.4,21.5c0.8,2,0.8,6.3,0,7.9c-1.2,2-6.3,5.1-8.3,3.9c-3.2-2-3.2-13.8,0-15.8
				C5.1,16,10.2,19.1,11.4,21.5z"/>
		</g>
		<circle id="Oval_6_" class="st2" cx="156" cy="345.4" r="3.9"/>
	</g>
</g>
</svg>
