<svg xmlns="http://www.w3.org/2000/svg" viewBox="0 0 512 512">
  <path d="M469.78 401.37H42.22c-18.89 0-34.204-15.314-34.204-34.205V110.63c0-18.89 15.314-34.205 34.205-34.205H469.78c18.89 0 34.205 15.314 34.205 34.205v256.534c0 18.89-15.314 34.206-34.204 34.206z" fill="#E4EAF8"/>
  <path d="M153.386 290.205c-47.227 0-85.51 38.285-85.51 85.512 0 8.94 1.38 17.553 3.926 25.653h163.17c2.544-8.1 3.926-16.714 3.926-25.653 0-47.228-38.285-85.512-85.512-85.512z" fill="#D5DCED"/>
  <path d="M256 367.165H50.772c-4.722 0-8.55-3.83-8.55-8.55V119.18c0-4.722 3.828-8.55 8.55-8.55H256c4.722 0 8.55 3.828 8.55 8.55v239.432c0 4.722-3.828 8.55-8.55 8.55z" fill="#AFB9D2"/>
  <path d="M68.307 367.165h170.158c-4.292-43.21-40.74-76.96-85.08-76.96s-80.787 33.75-85.078 76.96z" fill="#959CB5"/>
  <path d="M221.795 332.96c4.722 0 8.55-3.83 8.55-8.55v-21.88c0-7.36-4.71-13.896-11.693-16.224l-33.78-11.26c-3.485-1.162-5.838-4.42-5.846-8.094l-.032-15.206c5.338-2.67 8.9-7.928 9.395-13.876l1.867-20.362c3.58-3.135 5.884-7.684 5.884-12.815v-51.307h-59.857c-14.168 0-25.653 11.485-25.653 25.653v25.652c0 5.13 2.307 9.68 5.884 12.815l1.868 20.362c.495 5.946 4.056 11.206 9.395 13.875l-.032 15.206c-.007 3.675-2.36 6.934-5.847 8.095l-33.78 11.26c-6.983 2.328-11.693 8.863-11.693 16.225v21.878c0 4.722 3.83 8.55 8.55 8.55h136.82z" fill="#E4EAF8"/>
  <path d="M84.977 332.96h136.818c1.745 0 3.275-.65 4.628-1.55-15-24.67-42.053-41.206-73.037-41.206S95.348 306.74 80.348 331.41c1.354.9 2.884 1.55 4.63 1.55z" fill="#D5DCED"/>
  <circle cx="315.858" cy="221.795" r="17.102" fill="#9BF57D"/>
  <g fill="#FFDC64">
    <circle cx="384.267" cy="221.795" r="17.102"/>
    <circle cx="452.676" cy="221.795" r="17.102"/>
  </g>
  <circle cx="153.386" cy="375.716" r="59.858" fill="#9BF57D"/>
  <path d="M469.78 68.41H42.22C18.94 68.41 0 87.35 0 110.63v256.534c0 23.28 18.94 42.22 42.22 42.22h52.27c11.715 20.415 33.718 34.206 58.896 34.206s47.18-13.79 58.897-34.205h257.495c23.28 0 42.22-18.94 42.22-42.22V110.63c.002-23.28-18.94-42.22-42.22-42.22zM108.407 324.943h-23.43c-.296 0-.535-.24-.535-.534v-21.878c0-3.918 2.497-7.38 6.212-8.62l33.78-11.26c6.76-2.252 11.312-8.555 11.328-15.682l.032-15.206c.006-3.043-1.71-5.827-4.432-7.188-2.817-1.408-4.73-4.233-4.996-7.438l-1.868-20.362c-.19-2.047-1.155-3.943-2.702-5.297-2.03-1.78-3.15-4.19-3.15-6.786V179.04c0-9.724 7.912-17.636 17.637-17.636h51.84v43.29c0 2.596-1.12 5.006-3.15 6.785-1.547 1.353-2.513 3.25-2.7 5.296l-1.875 20.43c-.262 3.138-2.174 5.962-4.99 7.37-2.722 1.362-4.44 4.146-4.433 7.19l.032 15.205c.014 7.127 4.566 13.43 11.328 15.684l33.78 11.26c3.714 1.238 6.21 4.7 6.21 8.62v21.877c0 .295-.238.535-.533.535h-23.43c-11.987-10.63-27.737-17.102-44.98-17.102s-32.99 6.472-44.977 17.1zm103.26 16.033h10.128c9.136 0 16.568-7.432 16.568-16.568v-21.88c0-10.828-6.903-20.404-17.176-23.83l-33.78-11.258c-.217-.073-.364-.276-.365-.506l-.022-10.867c5.318-4.27 8.782-10.614 9.353-17.466l1.607-17.512c3.96-4.55 6.18-10.365 6.18-16.4v-51.306c0-4.427-3.59-8.017-8.017-8.017h-59.858c-18.566 0-33.67 15.104-33.67 33.67v25.652c0 6.034 2.22 11.85 6.18 16.4l1.6 17.442c.576 6.905 4.042 13.262 9.358 17.532l-.022 10.867c0 .23-.147.433-.365.506l-33.78 11.26c-10.272 3.423-17.175 13-17.175 23.83v21.877c0 9.136 7.432 16.568 16.568 16.568h10.128c-3.345 5.59-5.91 11.696-7.54 18.17H50.773c-.295 0-.534-.24-.534-.533v-239.43c0-.294.24-.534.534-.534H256c.295 0 .534.24.534.534v239.432c0 .294-.24.534-.534.534h-36.792c-1.632-6.475-4.196-12.582-7.54-18.17zm-58.282 86.58c-28.585 0-51.84-23.256-51.84-51.84 0-28.586 23.255-51.842 51.84-51.842s51.84 23.256 51.84 51.84c.002 28.587-23.254 51.842-51.84 51.842zm342.58-60.392c0 14.44-11.747 26.188-26.187 26.188H218.92c1.516-5.628 2.34-11.537 2.34-17.637 0-.178-.013-.356-.015-.534H256c9.136 0 16.568-7.432 16.568-16.568V119.182c0-9.136-7.432-16.568-16.568-16.568H50.772c-9.136 0-16.568 7.432-16.568 16.568v239.432c0 9.136 7.432 16.568 16.568 16.568h34.753c0 .178-.014.356-.014.534 0 6.1.823 12.01 2.34 17.637H42.22c-14.44 0-26.187-11.748-26.187-26.188V110.63c0-14.44 11.748-26.188 26.188-26.188H469.78c14.44 0 26.188 11.748 26.188 26.188v256.535z"/>
  <path d="M173.13 353.197l-26.115 28.49-14.066-12.057c-3.364-2.882-8.423-2.493-11.305.87s-2.493 8.422.87 11.303l19.952 17.102c1.51 1.293 3.365 1.93 5.214 1.93 2.173 0 4.335-.878 5.913-2.6l31.354-34.205c2.992-3.263 2.77-8.334-.493-11.326-3.262-2.992-8.332-2.77-11.324.493zM298.756 135.75h119.716c4.427 0 8.017-3.59 8.017-8.018 0-4.427-3.59-8.017-8.018-8.017H298.756c-4.427 0-8.017 3.59-8.017 8.017 0 4.428 3.588 8.017 8.016 8.017zM298.756 169.954h162.472c4.427 0 8.017-3.59 8.017-8.017s-3.59-8.017-8.017-8.017H298.756c-4.427 0-8.017 3.59-8.017 8.017s3.588 8.017 8.016 8.017zM461.228 273.637H350.063c-4.427 0-8.017 3.59-8.017 8.017s3.59 8.017 8.017 8.017h111.165c4.427 0 8.017-3.588 8.017-8.016s-3.59-8.017-8.017-8.017zM315.858 273.637h-17.102c-4.427 0-8.017 3.59-8.017 8.017s3.588 8.017 8.016 8.017h17.102c4.427 0 8.017-3.588 8.017-8.016s-3.59-8.017-8.017-8.017zM435.574 307.84h-85.51c-4.428 0-8.018 3.59-8.018 8.018 0 4.427 3.59 8.017 8.017 8.017h85.51c4.428 0 8.018-3.59 8.018-8.017s-3.59-8.017-8.016-8.017zM315.858 307.84h-17.102c-4.427 0-8.017 3.59-8.017 8.018 0 4.427 3.588 8.017 8.016 8.017h17.102c4.427 0 8.017-3.59 8.017-8.017s-3.59-8.017-8.017-8.017zM435.574 342.046h-85.51c-4.428 0-8.018 3.59-8.018 8.017s3.59 8.017 8.017 8.017h85.51c4.428 0 8.018-3.59 8.018-8.017 0-4.428-3.59-8.017-8.016-8.017zM315.858 342.046h-17.102c-4.427 0-8.017 3.59-8.017 8.017s3.588 8.017 8.016 8.017h17.102c4.427 0 8.017-3.59 8.017-8.017 0-4.428-3.59-8.017-8.017-8.017zM315.858 196.676c-13.85 0-25.12 11.268-25.12 25.12 0 13.85 11.27 25.118 25.12 25.118 13.85 0 25.12-11.268 25.12-25.12 0-13.85-11.27-25.118-25.12-25.118zm0 34.205c-5.01 0-9.086-4.075-9.086-9.085s4.076-9.086 9.086-9.086 9.086 4.075 9.086 9.085-4.076 9.086-9.086 9.086zM359.148 221.795c0 13.85 11.268 25.12 25.12 25.12 13.85 0 25.118-11.27 25.118-25.12 0-13.85-11.268-25.12-25.12-25.12-13.85 0-25.118 11.27-25.118 25.12zm34.205 0c0 5.01-4.076 9.086-9.086 9.086s-9.086-4.075-9.086-9.085 4.077-9.086 9.087-9.086 9.086 4.076 9.086 9.085zM452.676 196.676c-13.85 0-25.12 11.268-25.12 25.12 0 13.85 11.27 25.118 25.12 25.118s25.12-11.268 25.12-25.12c0-13.85-11.27-25.118-25.12-25.118zm0 34.205c-5.01 0-9.086-4.075-9.086-9.085s4.076-9.086 9.086-9.086 9.086 4.075 9.086 9.085-4.076 9.086-9.086 9.086z"/>
</svg>
