<svg xmlns="http://www.w3.org/2000/svg" viewBox="0 0 512.001 512.001">
  <path d="M257.816 325.213l-123.452-123.45L2.56 480.22c-.12.263-7.05 17.345 2.413 26.808 9.497 9.497 26.68 2.473 26.812 2.412l278.453-131.802-34.013-34.015" fill="#FC3842"/>
  <path d="M206.646 274.043c-39.676 49.46-60.588 112.56-56.056 179.163l159.65-75.567c-41.39-41.394-27.568-27.57-103.594-103.597z" fill="#FC5162"/>
  <path d="M23.433 511.62c1.727-11.233 101.25-215.73 134.028-286.76l-23.096-23.098L2.56 480.222c-.902 1.97-6.897 19 3.374 27.687 6.803 5.79 16.503 3.71 17.5 3.71z" fill="#EF2235"/>
  <circle cx="193.338" cy="99.249" r="15.049" fill="#FFCA54"/>
  <circle cx="423.118" cy="159.953" r="15.049" fill="#00CDB3"/>
  <path d="M310.24 377.638l32.546-15.132-193.258-193.258-15.164 32.513" fill="#FFCA54"/>
  <path d="M206.646 274.043L310.24 377.64l32.546-15.133L229.42 249.143c-8.12 7.79-15.725 16.112-22.774 24.9z" fill="#FCD27C"/>
  <path d="M113.98 244.823L75.06 327.05c16.628 7.19 36.665 4.002 50.252-9.586 21.735-21.736 16.118-58.49-11.33-72.64z" fill="#FFCA54"/>
  <path d="M113.98 244.823c-19.33 40.844-37.718 79.69-38.92 82.228 10.65 4.605 22.694 4.93 33.553 1.013l27.432-57.956c-3.87-10.972-11.834-20.01-22.064-25.284z" fill="#F9B24B"/>
  <path d="M185.665 402.617l-.036-.02c-14.288-15.855-31.83-14.863-31.83-14.863l.004.018c-42.23-1.696-64.012 50.66-32.337 79.238l75.96-35.953c-.508-10.66-4.73-20.69-11.762-28.42z" fill="#FFCA54"/>
  <path d="M49.706 380.617l-17.84 37.686c8.79 10.064 24.01 10.316 33.2 1.126 14.096-14.096 4.45-38.18-15.36-38.813z" fill="#F9B24B"/>
  <circle cx="186.575" cy="325.423" r="19.45" fill="#FFCA54"/>
  <path d="M157.46 224.86l14.927-32.004c-.176-.403-.334-.813-.477-1.226-6.71-6.71-2.178-2.18-22.38-22.382l-.17.364-14.994 32.15 23.095 23.097z" fill="#F9B24B"/>
  <path d="M298.757 208.74c-1.382-4.313.995-8.93 5.31-10.312 12.644-4.05 42.295-17.132 44.55-51.058 1.334-20.125 8.71-36.077 21.92-47.412 24.014-20.603 58.47-17.88 59.926-17.753 4.512.39 7.854 4.366 7.463 8.88-.39 4.508-4.352 7.848-8.86 7.466-.29-.023-29.215-2.195-47.92 13.924-9.694 8.353-15.13 20.46-16.162 35.983-2.057 30.965-22.436 54.872-55.915 65.595-4.298 1.378-8.928-.983-10.313-5.31z" fill="#F9B732"/>
  <g fill="#FF4B4E">
    <circle cx="313.661" cy="143.759" r="10.651"/>
    <circle cx="260.576" cy="18.687" r="10.651"/>
  </g>
  <g fill="#00CDB3">
    <path d="M372.145 307.793c-.143-4.528 3.412-8.314 7.94-8.456l16.342-.514c4.53-.17 8.313 3.412 8.455 7.94.143 4.53-3.412 8.315-7.942 8.457l-16.34.514c-4.486.148-8.313-3.38-8.455-7.94zM224.066 71.045c-4.527-.142-8.082-3.928-7.94-8.456l.513-16.34c.142-4.53 3.92-8.103 8.456-7.942 4.528.142 8.083 3.928 7.94 8.457l-.513 16.34c-.145 4.617-4.052 8.108-8.457 7.94z"/>
  </g>
  <path d="M308.85 83.846c-.143-4.528 3.41-8.314 7.94-8.457l16.34-.515c4.524-.157 8.313 3.412 8.455 7.94.143 4.53-3.412 8.315-7.94 8.457l-16.34.514c-4.422.17-8.312-3.34-8.456-7.94z" fill="#57BAE5"/>
  <g fill="#F9B732">
    <path d="M505.224 191.832c-40.8-7.206-53.72 19.572-63.15 39.126-9.386 19.45-14.555 30.17-38.63 19.993-22.345-9.44-40.983-10.587-55.404-3.41-11.5 5.725-15.72 14.72-16.166 15.725-2.396 5.44 1.616 11.512 7.502 11.512 3.152 0 6.16-1.827 7.51-4.896.094-.21 9.76-20.89 50.172-3.818 37.298 15.763 49.64-6.94 59.79-27.976 9.473-19.636 16.953-35.147 45.522-30.098 4.464.793 8.717-2.19 9.505-6.65.787-4.462-2.19-8.717-6.65-9.506zM310.665.13c-4.46.787-7.44 5.043-6.65 9.504 8.07 45.69-39.284 39.37-57.44 64.514-7.586 10.51-7.794 23.855-.635 40.798 16.568 39.21-2.66 49.587-3.9 50.207-.895.39-9.03 4.132-6.23 10.38 3.963 8.838 12.928 4.596 12.928 4.596 9.27-4.086 32.46-23.89 12.313-71.57-10.173-24.075-.09-28.94 19.993-38.63C300.597 60.5 327.376 47.58 320.17 6.78c-.788-4.46-5.042-7.433-9.505-6.65z"/>
  </g>
  <path d="M361.062 335.292c-17.685-17.685-166.378-166.37-184.35-184.35-6.584-6.583-17.257-6.583-23.84 0-6.584 6.582-6.584 17.255 0 23.84l184.35 184.35c6.584 6.582 17.256 6.582 23.84 0 6.582-6.583 6.582-17.257 0-23.84z" fill="#57BAE5"/>
  <path d="M337.222 359.13c6.583 6.582 17.255 6.582 23.84 0 6.582-6.58 6.582-17.255 0-23.84L254.056 228.286c-9.06 6.748-17.653 14.084-25.742 21.937L337.222 359.13z" fill="#70D1F2"/>
  <path d="M149.358 169.612c1.666 3.813 1.64 3.297 22.572 24.226l.457-.98c-5.34-12.216 4.924-25.482 18.1-23.38l-.01-.018s5.29.546 1.558-3.19l-15.323-15.33c-6.965-6.963-18.497-6.544-24.885 1.16-4.03 4.822-5.028 11.674-2.47 17.512z" fill="#34A9D1"/>
</svg>
