<?xml version="1.0" encoding="UTF-8"?>
<svg width="505px" height="505px" viewBox="0 0 505 505" version="1.1" xmlns="http://www.w3.org/2000/svg" xmlns:xlink="http://www.w3.org/1999/xlink">
    <!-- Generator: Sketch 45.2 (43514) - http://www.bohemiancoding.com/sketch -->
    <title>Stepper - Delivery</title>
    <desc>Created with Sketch.</desc>
    <defs></defs>
    <g id="Page-1" stroke="none" stroke-width="1" fill="none" fill-rule="evenodd">
        <g id="Stepper---Delivery" fill-rule="nonzero">
            <circle id="Oval" fill="#FFFFFF" cx="252.062" cy="252.062" r="252.062"></circle>
            <circle id="Oval" fill="#324A5E" cx="345.797" cy="345.403" r="36.628"></circle>
            <g id="Group" transform="translate(320.000000, 320.000000)" fill="#ACB3BA">
                <circle id="Oval" cx="25.797" cy="25.403" r="10.24"></circle>
                <path d="M29.735,10.831 C27.766,11.619 23.433,11.619 21.858,10.831 C19.889,9.649 16.738,4.529 17.92,2.56 C19.889,-0.591 31.705,-0.591 33.674,2.56 C34.855,4.529 31.705,9.649 29.735,10.831 Z" id="Shape"></path>
                <path d="M21.465,39.975 C23.434,39.187 27.767,39.187 29.342,39.975 C31.311,41.157 34.462,46.277 33.28,48.246 C31.311,51.397 19.495,51.397 17.526,48.246 C16.345,46.277 19.495,40.763 21.465,39.975 Z" id="Shape"></path>
                <path d="M39.975,29.342 C39.187,27.373 39.187,23.04 39.975,21.465 C41.157,19.496 46.277,16.345 48.246,17.527 C51.397,19.496 51.397,31.312 48.246,33.281 C46.671,34.462 41.157,31.311 39.975,29.342 Z" id="Shape"></path>
                <path d="M11.225,21.465 C12.013,23.434 12.013,27.767 11.225,29.342 C10.043,31.311 4.923,34.462 2.954,33.28 C-0.197,31.311 -0.197,19.495 2.954,17.526 C4.529,15.951 10.043,19.102 11.225,21.465 Z" id="Shape"></path>
            </g>
            <circle id="Oval" fill="#2B3B4E" cx="345.797" cy="345.403" r="3.938"></circle>
            <rect id="Rectangle-path" fill="#FF7058" x="90.585" y="122.486" width="181.169" height="166.991"></rect>
            <polygon id="Shape" fill="#54C0EB" points="401.723 215.434 346.585 122.486 281.6 122.486 281.6 289.477 401.723 289.477"></polygon>
            <polygon id="Shape" fill="#E6E9EE" points="378.486 215.04 335.163 142.178 301.292 142.178 301.292 215.04"></polygon>
            <rect id="Rectangle-path" fill="#324A5E" x="301.292" y="233.157" width="21.268" height="6.695"></rect>
            <path d="M388.332,244.185 C388.332,251.668 394.24,257.576 401.723,257.576 L401.723,230.794 C394.24,230.794 388.332,236.702 388.332,244.185 Z" id="Shape" fill="#FFFFFF"></path>
            <path d="M397.391,252.849 C397.391,255.212 399.36,257.181 401.723,257.181 L401.723,248.516 C399.36,248.517 397.391,250.486 397.391,252.849 Z" id="Shape" fill="#F1543F"></path>
            <g id="Group" transform="translate(90.000000, 289.000000)" fill="#324A5E">
                <path d="M315.662,0.477 L0.585,0.477 L0.585,56.009 L21.459,56.009 C21.459,31.591 41.545,11.898 65.964,11.898 C90.383,11.898 110.075,31.59 110.469,56.009 L211.687,56.009 C211.687,31.591 231.773,11.898 256.192,11.898 C280.61,11.898 300.303,31.59 300.697,56.009 L316.451,56.009 L316.451,0.477 L315.662,0.477 Z" id="Shape"></path>
                <circle id="Oval" cx="65.963" cy="56.403" r="36.628"></circle>
            </g>
            <g id="Group" transform="translate(130.000000, 320.000000)" fill="#ACB3BA">
                <circle id="Oval" cx="25.963" cy="25.403" r="10.24"></circle>
                <path d="M29.902,10.831 C27.933,11.619 23.6,11.619 22.025,10.831 C20.056,9.649 16.905,4.529 18.087,2.56 C20.056,-0.591 31.872,-0.591 33.841,2.56 C35.022,4.529 31.871,9.649 29.902,10.831 Z" id="Shape"></path>
                <path d="M22.025,39.975 C23.994,39.187 28.327,39.187 29.902,39.975 C31.871,41.157 35.022,46.277 33.84,48.246 C31.871,51.397 20.055,51.397 18.086,48.246 C16.511,46.277 19.662,40.763 22.025,39.975 Z" id="Shape"></path>
                <path d="M40.535,29.342 C39.747,27.373 39.747,23.04 40.535,21.465 C41.717,19.496 46.837,16.345 48.806,17.527 C51.957,19.496 51.957,31.312 48.806,33.281 C46.837,34.462 41.323,31.311 40.535,29.342 Z" id="Shape"></path>
                <path d="M11.391,21.465 C12.179,23.434 12.179,27.767 11.391,29.342 C10.209,31.311 5.089,34.462 3.12,33.28 C-0.031,31.311 -0.031,19.495 3.12,17.526 C5.089,15.951 10.209,19.102 11.391,21.465 Z" id="Shape"></path>
            </g>
            <circle id="Oval" fill="#2B3B4E" cx="155.963" cy="345.403" r="3.938"></circle>
        </g>
    </g>
</svg>