<svg xmlns="http://www.w3.org/2000/svg" viewBox="0 0 57 57">
  <path d="M22 51V35c0-3.314 4.253-6 9.5-6 1.237 0 2.416.154 3.5.426V0H3v56h23.253C23.69 54.925 22 53.088 22 51" fill="#6E8C61"/>
  <path d="M8 21.094C10.3 17.438 14.36 15 19 15s8.7 2.437 11 6.094v-10.12c-.165.016-.33.026-.5.026-3.038 0-5.5-2.463-5.5-5.5 0-.17.01-.335.025-.5h-10.05c.015.165.025.33.025.5 0 3.037-2.462 5.5-5.5 5.5-.17 0-.335-.01-.5-.025v10.12zM22 43v-2.356c-.963.23-1.966.356-3 .356-4.64 0-8.7-2.437-11-6.094v10.12c.165-.016.33-.026.5-.026 3.038 0 5.5 2.462 5.5 5.5 0 .17-.01.335-.025.5H22v-8zM27 5.5C27 4.12 28.12 3 29.5 3S32 4.12 32 5.5 30.88 8 29.5 8 27 6.88 27 5.5M6 5.5C6 4.12 7.12 3 8.5 3S11 4.12 11 5.5 9.88 8 8.5 8 6 6.88 6 5.5M6 50.5C6 49.12 7.12 48 8.5 48s2.5 1.12 2.5 2.5S9.88 53 8.5 53 6 51.88 6 50.5" fill="#E9E8D3"/>
  <path d="M41 35c0 3.314-4.253 6-9.5 6S22 38.314 22 35s4.253-6 9.5-6 9.5 2.686 9.5 6" fill="#FCC62D"/>
  <path d="M31.5 53c-5.247 0-9.5-2.686-9.5-6v4c0 3.314 4.253 6 9.5 6s9.5-2.686 9.5-6v-4c0 3.314-4.253 6-9.5 6" fill="#D19D18"/>
  <path d="M31.5 49c-5.247 0-9.5-2.686-9.5-6v4c0 3.314 4.253 6 9.5 6s9.5-2.686 9.5-6v-4c0 3.314-4.253 6-9.5 6" fill="#E4AF18"/>
  <path d="M31.5 45c-5.247 0-9.5-2.686-9.5-6v4c0 3.314 4.253 6 9.5 6s9.5-2.686 9.5-6v-4c0 3.314-4.253 6-9.5 6" fill="#D19D18"/>
  <path d="M31.5 41c-5.247 0-9.5-2.686-9.5-6v4c0 3.314 4.253 6 9.5 6s9.5-2.686 9.5-6v-4c0 3.314-4.253 6-9.5 6" fill="#E4AF18"/>
  <path d="M54 23c0 3.314-4.253 6-9.5 6S35 26.314 35 23s4.253-6 9.5-6 9.5 2.686 9.5 6" fill="#FCC62D"/>
  <path d="M24.92 30.68C27.017 26.93 25 23 25 23c-.853-.25-3.352.496-3.64 1.306C20.475 23.496 19.297 23 18 23c-1.625 0-2.313 1.7-2.807 1.87-.242.084-.493.126-.744.13-.747.012-1.445-.373-1.947-.924l-3.726-4.09C7.043 22.197 6 24.975 6 28c0 3.026 1.043 5.804 2.776 8.013l3.693-4.06c.606-.665 1.5-1.07 2.387-.914.126.022.25.053.375.095.32.108 1.893 1.783 2.238 1.822 1.048 2.47 3.334 1.482 4.903.39.468-1.03 1.355-1.945 2.546-2.668" fill="#E9E8D3"/>
  <path d="M44.5 53c-1.356 0-2.642-.182-3.81-.505-.454 1.117-1.4 2.106-2.69 2.872C39.7 56.377 41.982 57 44.5 57c5.247 0 9.5-2.686 9.5-6v-4c0 3.314-4.253 6-9.5 6" fill="#E4AF18"/>
  <path d="M44.5 49c-1.237 0-2.416-.154-3.5-.426V51c0 .517-.115 1.016-.31 1.495 1.168.323 2.454.505 3.81.505 5.247 0 9.5-2.686 9.5-6v-4c0 3.314-4.253 6-9.5 6" fill="#D19D18"/>
  <path d="M44.5 45c-1.237 0-2.416-.154-3.5-.426v4c1.084.272 2.263.426 3.5.426 5.247 0 9.5-2.686 9.5-6v-4c0 3.314-4.253 6-9.5 6" fill="#E4AF18"/>
  <path d="M44.5 41c-1.237 0-2.416-.154-3.5-.426v4c1.084.272 2.263.426 3.5.426 5.247 0 9.5-2.686 9.5-6v-4c0 3.314-4.253 6-9.5 6" fill="#D19D18"/>
  <path d="M44.5 37c-1.237 0-2.416-.154-3.5-.426v4c1.084.272 2.263.426 3.5.426 5.247 0 9.5-2.686 9.5-6v-4c0 3.314-4.253 6-9.5 6" fill="#E4AF18"/>
  <path d="M44.5 33c-1.648 0-3.198-.266-4.55-.732.667.82 1.05 1.747 1.05 2.732v1.574c1.084.272 2.263.426 3.5.426 5.247 0 9.5-2.686 9.5-6v-4c0 3.314-4.253 6-9.5 6" fill="#D19D18"/>
  <path d="M44.5 29c-5.247 0-9.5-2.686-9.5-6v4c0 .985.383 1.912 1.05 2.732 1.67.577 3.03 1.464 3.9 2.536 1.352.466 2.902.732 4.55.732 5.247 0 9.5-2.686 9.5-6v-4c0 3.314-4.253 6-9.5 6" fill="#E4AF18"/>
  <path d="M44 17.016V0h-3v17.426c.936-.235 1.945-.375 3-.41" fill="#607B53"/>
  <path d="M41 17.426V0h-3v18.633c.864-.514 1.878-.926 3-1.207" fill="#546949"/>
  <path d="M38 18.632V.002h-3v23c0-1.726 1.157-3.275 3-4.37" fill="#607B53"/>
</svg>
