<svg width="505" height="505" viewBox="0 0 505 505" xmlns="http://www.w3.org/2000/svg">
  <title>
    Stepper - Delivery
  </title>
  <g fill-rule="nonzero" fill="none">
    <circle fill="#FFF" cx="252.062" cy="252.062" r="252.062"/>
    <circle fill="#324A5E" cx="345.797" cy="345.403" r="36.628"/>
    <g transform="translate(320 320)" fill="#ACB3BA">
      <circle cx="25.797" cy="25.403" r="10.24"/>
      <path d="M29.735 10.83c-1.97.79-6.302.79-7.877 0-1.97-1.18-5.12-6.3-3.938-8.27 1.97-3.15 13.785-3.15 15.754 0 1.18 1.97-1.97 7.09-3.94 8.27zM21.465 39.975c1.97-.788 6.302-.788 7.877 0 1.97 1.182 5.12 6.302 3.938 8.27-1.97 3.152-13.785 3.152-15.754 0-1.18-1.968 1.97-7.482 3.94-8.27zM39.975 29.342c-.788-1.97-.788-6.302 0-7.877 1.182-1.97 6.302-5.12 8.27-3.938 3.152 1.97 3.152 13.785 0 15.754-1.574 1.182-7.088-1.97-8.27-3.938zM11.225 21.465c.788 1.97.788 6.302 0 7.877-1.182 1.97-6.302 5.12-8.27 3.938-3.152-1.97-3.152-13.785 0-15.754 1.574-1.575 7.088 1.576 8.27 3.94z"/>
    </g>
    <circle fill="#2B3B4E" cx="345.797" cy="345.403" r="3.938"/>
    <path fill="#FF7058" d="M90.585 122.486h181.17v166.99H90.584z"/>
    <path fill="#54C0EB" d="M401.723 215.434l-55.138-92.948H281.6v166.99h120.123"/>
    <path fill="#E6E9EE" d="M378.486 215.04l-43.323-72.862h-33.87v72.862"/>
    <path fill="#324A5E" d="M301.292 233.157h21.268v6.695h-21.268z"/>
    <path d="M388.332 244.185c0 7.483 5.908 13.39 13.39 13.39v-26.78c-7.482 0-13.39 5.907-13.39 13.39z" fill="#FFF"/>
    <path d="M397.39 252.85c0 2.362 1.97 4.33 4.333 4.33v-8.664c-2.363 0-4.332 1.97-4.332 4.333z" fill="#F1543F"/>
    <g transform="translate(90 289)" fill="#324A5E">
      <path d="M315.662.477H.585V56.01H21.46c0-24.42 20.085-44.112 44.504-44.112 24.42 0 44.11 19.692 44.505 44.11h101.217c0-24.417 20.086-44.11 44.505-44.11 24.418 0 44.11 19.692 44.505 44.11h15.754V.48h-.788z"/>
      <circle cx="65.963" cy="56.403" r="36.628"/>
    </g>
    <g transform="translate(130 320)" fill="#ACB3BA">
      <circle cx="25.963" cy="25.403" r="10.24"/>
      <path d="M29.902 10.83c-1.97.79-6.302.79-7.877 0-1.97-1.18-5.12-6.3-3.938-8.27 1.97-3.15 13.785-3.15 15.754 0 1.182 1.97-1.97 7.09-3.938 8.27zM22.025 39.975c1.97-.788 6.302-.788 7.877 0 1.97 1.182 5.12 6.302 3.938 8.27-1.97 3.152-13.785 3.152-15.754 0-1.575-1.968 1.576-7.482 3.94-8.27zM40.535 29.342c-.788-1.97-.788-6.302 0-7.877 1.182-1.97 6.302-5.12 8.27-3.938 3.152 1.97 3.152 13.785 0 15.754-1.968 1.182-7.482-1.97-8.27-3.938zM11.39 21.465c.79 1.97.79 6.302 0 7.877-1.18 1.97-6.3 5.12-8.27 3.938-3.15-1.97-3.15-13.785 0-15.754 1.97-1.575 7.09 1.576 8.27 3.94z"/>
    </g>
    <circle fill="#2B3B4E" cx="155.963" cy="345.403" r="3.938"/>
  </g>
</svg>
