<?xml version="1.0" encoding="UTF-8"?>
<svg width="38px" height="37px" viewBox="0 0 38 37" version="1.1" xmlns="http://www.w3.org/2000/svg" xmlns:xlink="http://www.w3.org/1999/xlink">
    <!-- Generator: Sketch 45.2 (43514) - http://www.bohemiancoding.com/sketch -->
    <title>Store Icon</title>
    <desc>Created with Sketch.</desc>
    <defs>
        <circle id="path-1" cx="14.2073848" cy="14.2073848" r="14.2073848"></circle>
        <filter x="-22.9%" y="-22.9%" width="145.8%" height="145.8%" filterUnits="objectBoundingBox" id="filter-2">
            <feMorphology radius="0.5" operator="dilate" in="SourceAlpha" result="shadowSpreadOuter1"></feMorphology>
            <feOffset dx="0" dy="0" in="shadowSpreadOuter1" result="shadowOffsetOuter1"></feOffset>
            <feGaussianBlur stdDeviation="2" in="shadowOffsetOuter1" result="shadowBlurOuter1"></feGaussianBlur>
            <feComposite in="shadowBlurOuter1" in2="SourceAlpha" operator="out" result="shadowBlurOuter1"></feComposite>
            <feColorMatrix values="0 0 0 0 0   0 0 0 0 0   0 0 0 0 0  0 0 0 0.5 0" type="matrix" in="shadowBlurOuter1"></feColorMatrix>
        </filter>
    </defs>
    <g id="Welcome" stroke="none" stroke-width="1" fill="none" fill-rule="evenodd">
        <g id="Seller-Dashboard/Products" transform="translate(-795.000000, -33.000000)" fill-rule="nonzero">
            <g id="Top-Bar" transform="translate(0.000000, -1.000000)">
                <g id="Store-Icon" transform="translate(800.000000, 38.197614)">
                    <g id="Store" transform="translate(0.036997, 0.294390)">
                        <g id="Oval">
                            <use fill="black" fill-opacity="1" filter="url(#filter-2)" xlink:href="#path-1"></use>
                            <use stroke="#003366" stroke-width="1" fill="#FFFFFF" fill-rule="evenodd" xlink:href="#path-1"></use>
                        </g>
                    </g>
                    <g transform="translate(5.558444, 5.247687)" fill="#4A4A4A">
                        <circle id="Oval" cx="3.81268616" cy="1.89263072" r="1"></circle>
                        <circle id="Oval" cx="2.93487965" cy="2.77043723" r="1"></circle>
                        <circle id="Oval" cx="9.95733175" cy="2.77043723" r="1"></circle>
                        <circle id="Oval" cx="10.8351383" cy="1.89263072" r="1"></circle>
                        <circle id="Oval" cx="11.7129448" cy="2.77043723" r="1"></circle>
                        <circle id="Oval" cx="8.20171872" cy="4.52605025" r="1"></circle>
                        <circle id="Oval" cx="6.4461057" cy="4.52605025" r="1"></circle>
                        <circle id="Oval" cx="15.2241708" cy="4.52605025" r="1"></circle>
                        <circle id="Oval" cx="7.32391221" cy="5.40385677" r="1"></circle>
                        <circle id="Oval" cx="8.20171872" cy="6.28166328" r="1"></circle>
                        <circle id="Oval" cx="5.56829919" cy="5.40385677" r="1"></circle>
                        <circle id="Oval" cx="6.4461057" cy="6.28166328" r="1"></circle>
                        <circle id="Oval" cx="16.1019773" cy="5.40385677" r="1"></circle>
                        <circle id="Oval" cx="14.3463643" cy="5.40385677" r="1"></circle>
                        <circle id="Oval" cx="15.2241708" cy="6.28166328" r="1"></circle>
                        <path d="M17.4171442,3.54253448 C17.4171442,3.49747375 17.407781,3.45475383 17.3911026,3.41583774 C17.3899322,3.38745533 17.3852506,3.35878032 17.3773503,3.33098311 L16.1715368,0.701074801 C15.9760785,0.275046041 15.5465385,0 15.0774973,0 L12.6872301,0 L12.0923699,0 L9.22428344,0 L8.6390791,0 L5.77099262,0 L5.1761324,0 L2.78586527,0 C2.31711659,0 1.88786921,0.275046041 1.69211835,0.700782199 L0.503275734,3.28270376 L0.487475217,3.32483847 C0.476063732,3.36492497 0.474015517,3.40618187 0.476356334,3.44714618 C0.457044591,3.49220691 0.446218311,3.54194928 0.446218311,3.59403247 L0.446218311,5.55944125 C0.446218311,5.96937689 0.552725501,6.35473395 0.738820482,6.69005604 L0.738820482,8.84097459 C0.604516085,8.98815349 0.504738745,9.17220025 0.466700463,9.37643657 C0.434514224,9.55112006 0.4447553,9.73604463 0.496838486,9.91160594 C0.525220897,10.0075794 0.50269053,10.1240351 0.435977235,10.222642 C0.129622762,10.6755902 0.0672984993,11.3073183 0.281483288,11.7945009 C0.313669527,11.8682367 0.354048627,11.9375834 0.401450178,12.0016632 C0.46904128,12.0926625 0.493034658,12.2135072 0.465822656,12.324696 C0.450607343,12.3846795 0.440366267,12.4464185 0.434806826,12.507865 C0.410813448,12.7700365 0.46494485,13.0246004 0.507957369,13.2288367 C0.553310705,13.4438993 0.622072215,13.769273 0.863176404,13.9764353 C0.991921359,14.0873315 1.14992653,14.1449741 1.32431743,14.15463 L1.32431743,15.2153129 L0.466993065,15.2153129 L0.318643764,15.2214575 L0.138986031,15.4423722 L0.491279045,17.5561303 L2.14916295,17.5561303 L2.74226755,17.5561303 L10.6872943,17.5561303 L15.9541334,17.5561303 L17.1245421,17.5561303 L17.1245421,6.69005604 C17.310637,6.35444135 17.4171442,5.96937689 17.4171442,5.55944125 L17.4171442,3.54253448 Z M16.6092696,6.41296178 C16.5996138,6.43051791 16.5884949,6.44719623 16.5782538,6.46416716 C16.5393377,6.52853964 16.4969104,6.58998609 16.4512645,6.64792132 C16.4503867,6.64879913 16.4498014,6.64996954 16.4489236,6.65084734 C16.4038629,6.70790477 16.3552909,6.76145097 16.3043782,6.81177854 C16.2935519,6.82231222 16.2818478,6.83196809 16.2707289,6.84220916 C16.2534654,6.85830228 16.2353241,6.87263979 16.2174753,6.8878551 C16.170659,6.78837037 16.0711742,6.71843845 15.9541334,6.71843845 C15.792617,6.71843845 15.6615312,6.84952422 15.6615312,7.01104062 C15.6615312,7.07892432 15.6884506,7.13832256 15.7270741,7.18806493 C15.710981,7.19450218 15.6945952,7.20006162 15.6785021,7.20591366 C15.6407564,7.21966596 15.6030108,7.23283306 15.5643873,7.24395195 C15.5374679,7.2518522 15.5102559,7.25828945 15.4830439,7.2650193 C15.440324,7.27526038 15.3970188,7.28345324 15.3531285,7.29047569 C15.3300129,7.29427952 15.3068974,7.29837595 15.2834892,7.30100937 C15.2153129,7.30978743 15.1462588,7.31505427 15.0763269,7.31505427 C14.8463415,7.31505427 14.6271825,7.26940833 14.4255796,7.18865013 C14.4642031,7.13890777 14.4911225,7.07950953 14.4911225,7.01162582 C14.4911225,6.85010942 14.3600367,6.71902365 14.1985203,6.71902365 C14.0806017,6.71902365 13.9805317,6.78954077 13.934008,6.88990332 C13.7602023,6.74038361 13.616242,6.55750725 13.5114904,6.35151532 C13.5726443,6.29796913 13.613316,6.22159996 13.613316,6.13381931 C13.613316,5.98137358 13.4953973,5.85994368 13.3461702,5.84648398 C13.3306623,5.75285128 13.3207138,5.65746297 13.3207138,5.55973385 L13.3207138,4.67110106 C13.4822302,4.67110106 13.613316,4.54001528 13.613316,4.37849889 C13.613316,4.21698249 13.4822302,4.08589671 13.3207138,4.08589671 L13.3207138,3.80382822 L13.3786491,3.80382822 L16.8319399,3.80382822 L16.8319399,4.08560411 C16.6704235,4.08560411 16.5393377,4.21668988 16.5393377,4.37820628 C16.5393377,4.53972268 16.6704235,4.67080845 16.8319399,4.67080845 L16.8319399,5.55944125 C16.8319399,5.65746297 16.8219914,5.75285128 16.8064835,5.84619137 C16.657549,5.85965107 16.5393377,5.98108098 16.5393377,6.13352671 C16.5393377,6.22130736 16.5797168,6.29767652 16.6411633,6.35122272 C16.6338482,6.36526763 16.6279962,6.38019034 16.6203885,6.39423524 L16.6092696,6.41296178 Z M7.17606824,6.71902365 C7.01455184,6.71902365 6.88346607,6.85010942 6.88346607,7.01162582 C6.88346607,7.1576343 6.99231408,7.27350476 7.13217792,7.29544993 C7.05083451,7.30686141 6.9683207,7.31505427 6.88346607,7.31505427 C5.91524549,7.31505427 5.12785305,6.52766183 5.12785305,5.55944125 L5.12785305,5.2560128 L5.12785305,3.80382822 L8.6390791,3.80382822 L8.6390791,5.55944125 C8.6390791,6.37404569 8.08079415,7.05873477 7.32734356,7.25594863 C7.41044258,7.20445065 7.46867041,7.1163774 7.46867041,7.01162582 C7.46867041,6.84981682 7.33787724,6.71902365 7.17606824,6.71902365 Z M2.58016594,7.30159457 C2.55675777,7.29866855 2.5336422,7.29457212 2.51052663,7.29106089 C2.4666363,7.28403844 2.42333118,7.27584558 2.38061126,7.26560451 C2.35339926,7.25916726 2.32618726,7.25243741 2.29926786,7.24453715 C2.26064437,7.23341827 2.22260609,7.21995857 2.18515301,7.20620627 C2.15881882,7.19655039 2.13219202,7.18835753 2.10673563,7.17753125 C2.05143382,7.15412308 1.99759502,7.12778888 1.94521923,7.09911387 C1.91859243,7.08448376 1.89313605,7.06780544 1.86738705,7.05171232 C1.83578602,7.03210797 1.80447759,7.01191842 1.77404696,6.99026586 C1.75093139,6.97388014 1.72840102,6.95690922 1.70616326,6.93935309 C1.66724717,6.90862986 1.62950149,6.87644362 1.59321882,6.84220916 C1.58239254,6.83196809 1.57068845,6.82260482 1.56015478,6.81207114 C1.509242,6.76174357 1.46067004,6.70819737 1.4153167,6.65113995 C1.41443889,6.65026214 1.41385369,6.64909173 1.41297588,6.64821393 C1.36732994,6.5902787 1.32490263,6.52883224 1.28598654,6.46445976 C1.27574547,6.44748884 1.26462658,6.43081051 1.25497071,6.41325438 L1.24385183,6.39452784 C1.10837702,6.145816 1.03142265,5.86140669 1.03142265,5.55944125 L1.03142265,3.80382822 L4.48471347,3.80382822 L4.5426487,3.80382822 L4.5426487,5.55944125 C4.5426487,6.52766183 3.75525626,7.31505427 2.78703568,7.31505427 C2.71710376,7.31505427 2.64834225,7.30978743 2.58016594,7.30159457 Z M9.22428344,3.80382822 L12.7355095,3.80382822 L12.7355095,5.55944125 C12.7355095,6.52766183 11.948117,7.31505427 10.9798965,7.31505427 C10.0116759,7.31505427 9.22428344,6.52766183 9.22428344,5.55944125 L9.22428344,3.80382822 Z M15.0774973,0.585204342 C15.3183089,0.585204342 15.5392235,0.72653119 15.6398786,0.945397614 L16.6850536,3.21862388 L13.3207138,3.21862388 L13.2724345,3.21862388 L13.0330859,1.90191411 L12.7937373,0.585204342 L15.0774973,0.585204342 Z M9.22428344,0.585204342 L9.75535638,0.585204342 C9.62046678,0.611245935 9.51688561,0.724482975 9.51688561,0.866980232 C9.51688561,1.02849663 9.64797138,1.1595824 9.80948778,1.1595824 C9.97100418,1.1595824 10.10209,1.02849663 10.10209,0.866980232 C10.10209,0.724482975 9.99821618,0.611245935 9.86361918,0.585204342 L11.511262,0.585204342 C11.3763724,0.611245935 11.2727912,0.724482975 11.2727912,0.866980232 C11.2727912,1.02849663 11.403877,1.1595824 11.5653934,1.1595824 C11.7269098,1.1595824 11.8579956,1.02849663 11.8579956,0.866980232 C11.8579956,0.724482975 11.7541218,0.611245935 11.6195248,0.585204342 L12.1991697,0.585204342 L12.3598083,1.4688629 C12.2398414,1.50543817 12.1508904,1.61253056 12.1508904,1.74449414 C12.1508904,1.90601054 12.2819761,2.03709631 12.4434925,2.03709631 C12.4502224,2.03709631 12.4557818,2.03358509 12.4625117,2.03329249 L12.6775743,3.21862388 L9.22428344,3.21862388 L9.22428344,0.585204342 Z M5.66477803,0.585204342 L8.6390791,0.585204342 L8.6390791,3.21862388 L5.18608088,3.21862388 L5.42542945,1.90191411 L5.66477803,0.585204342 Z M1.74654236,1.9815019 C1.79365131,2.01398074 1.84778271,2.03738892 1.90922917,2.03738892 C2.07074556,2.03738892 2.20183134,1.90630314 2.20183134,1.74478675 C2.20183134,1.60931194 2.10819864,1.50046393 1.98325751,1.46710728 L2.2237765,0.945105012 C2.30687552,0.763984268 2.47395136,0.641383959 2.66531317,0.602760472 C2.56495063,0.649284217 2.49443351,0.74935416 2.49443351,0.866980232 C2.49443351,1.02849663 2.62551928,1.1595824 2.78703568,1.1595824 C2.94855208,1.1595824 3.07963785,1.02849663 3.07963785,0.866980232 C3.07963785,0.724482975 2.97576408,0.611245935 2.84116708,0.585204342 L4.4888099,0.585204342 C4.3539203,0.611245935 4.25033913,0.724482975 4.25033913,0.866980232 C4.25033913,1.02849663 4.38142491,1.1595824 4.54294131,1.1595824 C4.7044577,1.1595824 4.83554348,1.02849663 4.83554348,0.866980232 C4.83554348,0.724482975 4.73166971,0.611245935 4.59707271,0.585204342 L5.07021042,0.585204342 L4.83086184,1.90191411 L4.73869216,2.40811587 C4.68660897,2.36071431 4.61901787,2.32999109 4.54294131,2.32999109 C4.38142491,2.32999109 4.25033913,2.46107686 4.25033913,2.62259326 C4.25033913,2.78410966 4.38142491,2.91519543 4.54294131,2.91519543 C4.58097959,2.91519543 4.61696965,2.90670997 4.6503263,2.89354287 L4.59092806,3.21862388 L4.5426487,3.21862388 L1.17684593,3.21862388 L1.74654236,1.9815019 Z M1.08028721,13.1076995 C1.04341934,12.933016 1.00128463,12.7352169 1.01737775,12.5611186 C1.02030377,12.5298102 1.02527801,12.4976239 1.03347087,12.4660229 C1.10281758,12.1865878 1.04195633,11.8822816 0.870784061,11.6525889 C0.850301909,11.624499 0.831282768,11.5923128 0.816945261,11.5595414 C0.682933467,11.2540647 0.725360782,10.8391548 0.92052643,10.5506491 C1.08643186,10.3045707 1.13617423,10.0110907 1.05746425,9.74599311 C1.03200786,9.65967547 1.02674102,9.56633538 1.04195633,9.48323636 C1.06243848,9.37263274 1.11949591,9.27227019 1.19527987,9.20292348 L1.21459161,9.18741556 C1.24326662,9.16459259 1.26726,9.14879208 1.28803476,9.1388436 L1.55313232,8.922318 C1.57419968,8.90066544 1.59994867,8.88603533 1.62716067,8.87403864 C1.63359792,8.87111262 1.64003517,8.8687718 1.64647242,8.86643098 C1.70060382,8.84741184 1.75941685,8.8424376 1.80886662,8.84360801 C1.83871204,8.84448582 1.86767966,8.84682664 1.8864062,8.84916745 C1.99232818,8.86409017 2.0888869,8.89978763 2.1705229,8.95040781 L2.23489538,9.0036614 C2.26561861,9.02911779 2.29048979,9.05340377 2.31184975,9.07739715 C2.33291711,9.10314614 2.35427707,9.12889513 2.36949238,9.15786275 C2.41455311,9.24476559 2.42859802,9.36268426 2.40665286,9.46597283 C2.35047324,9.72872958 2.41777174,10.0084573 2.5871884,10.2141566 C2.62171545,10.2562913 2.64804965,10.3121783 2.65916853,10.3677727 C2.66648358,10.4040554 2.66999481,10.4423863 2.66999481,10.483058 C2.66970221,10.6053657 2.63663816,10.7484481 2.56963226,10.9172796 L2.56963226,10.9175722 C2.51316005,11.0606547 2.44849497,11.1823772 2.37797784,11.2795211 C2.23460278,11.4770276 2.18281219,11.7353953 2.22670252,11.993763 C2.24133263,12.079788 2.26649642,12.1661057 2.30277909,12.2500825 C2.33730614,12.3293777 2.35720309,12.4200843 2.36246993,12.5113762 C2.36773677,12.6029607 2.35778829,12.695423 2.33262451,12.7788146 C2.3185796,12.825631 2.30073087,12.8698139 2.28054132,12.9119486 C2.24016222,12.9959254 2.18661602,13.0758058 2.12019533,13.1510046 C2.11726931,13.1542232 2.11434329,13.1568566 2.11141727,13.1600752 C2.08157184,13.1931393 2.049093,13.2256181 2.01427334,13.2569266 C1.89869549,13.3605077 1.77785079,13.4345361 1.68889973,13.4807672 C1.68772932,13.4813524 1.68626631,13.4819376 1.6850959,13.4825228 C1.64003517,13.5053458 1.59175581,13.5249501 1.54318385,13.5407507 C1.42760599,13.5784963 1.31144293,13.5899078 1.24414443,13.5328504 C1.15343776,13.4541404 1.10954743,13.2458077 1.08028721,13.1076995 Z M2.24659947,16.9709259 L0.98665452,16.9709259 L0.791781474,15.8005172 L1.32402482,15.8005172 L2.44147251,15.8005172 L2.24659947,16.9709259 Z M1.90922917,15.2153129 L1.90922917,14.0244221 C1.92561489,14.0168144 1.94170801,14.0086215 1.95780113,14.0004287 C2.12165834,13.9158666 2.26766682,13.8143337 2.39524137,13.7010967 L2.39582658,13.7016819 C2.39845999,13.699341 2.40021561,13.6970002 2.40284903,13.6946594 C2.45902864,13.6443318 2.51169704,13.591956 2.55997639,13.5369468 C2.56729145,13.5284614 2.57343609,13.5193907 2.58075115,13.5109052 C2.61761902,13.4670149 2.65243868,13.4219542 2.68403971,13.375723 C2.69837722,13.3549483 2.71125172,13.3338809 2.72441881,13.3128136 C2.74811959,13.2747753 2.76977215,13.2355666 2.7899617,13.1960653 C2.80049538,13.1752906 2.81161426,13.1545158 2.82127013,13.1331558 C2.84877474,13.0728798 2.87306072,13.0114333 2.89237246,12.9482313 C2.91490283,12.8736177 2.93070334,12.7960781 2.93948141,12.7170756 C2.94825947,12.638073 2.95060029,12.5576074 2.94591866,12.477727 C2.93684799,12.3179662 2.90115052,12.1596684 2.83970407,12.0174638 C2.77737981,11.8735035 2.78206144,11.7187169 2.85140816,11.6233286 C2.88008317,11.5838273 2.90553956,11.5373036 2.93216635,11.4931207 C2.99829445,11.3845653 3.06032611,11.2672318 3.1132871,11.13322 C3.24554328,10.7996535 3.28475197,10.5120256 3.23266878,10.2527801 C3.20223816,10.1009195 3.13493966,9.95871489 3.03808834,9.84167402 C2.98395694,9.77583853 2.95996356,9.67430558 2.9783975,9.58857314 C2.99478322,9.51191137 2.99946485,9.43378659 2.99858705,9.35566181 C2.99829445,9.33547226 2.99741664,9.31586792 2.99595363,9.29567837 C2.9915646,9.22691686 2.98132352,9.15932576 2.96405999,9.09349027 C2.96201178,9.08617521 2.96259698,9.07827495 2.96054877,9.0709599 L9.5160078,9.0709599 L9.5160078,15.2156055 L3.13259884,15.2156055 L2.78557267,15.2156055 L1.90922917,15.2156055 L1.90922917,15.2153129 Z M11.2724986,16.9709259 L11.2724986,9.0706673 L15.368929,9.0706673 L15.368929,16.9709259 L11.2724986,16.9709259 Z M16.5393377,16.9709259 L15.9541334,16.9709259 L15.9541334,8.48546296 L10.6872943,8.48546296 L10.6872943,16.9709259 L2.83999667,16.9709259 L3.03516232,15.8005172 L10.1023826,15.8005172 L10.1023826,8.48546296 L2.52691235,8.48546296 C2.36656636,8.37515194 2.17637495,8.29907537 1.96892001,8.26952255 C1.89255084,8.25869627 1.8194003,8.25694066 1.74800537,8.25957408 C1.72898623,8.26015928 1.71055229,8.2622075 1.69182575,8.26367051 C1.63681654,8.26835215 1.58385555,8.27683761 1.53323538,8.2894195 C1.51831266,8.29322333 1.50309735,8.29585675 1.48846724,8.29995318 C1.43023941,8.31750931 1.3743524,8.33857667 1.32402482,8.36608127 L1.32402482,7.38732701 C1.49197847,7.52280181 1.67807345,7.63194242 1.87616512,7.71562664 C1.87704293,7.71591925 1.87762813,7.71621185 1.87850594,7.71650445 C1.94317102,7.74371645 2.00929911,7.76800243 2.07659761,7.78906979 C2.08800909,7.79258102 2.09942058,7.79609224 2.11083206,7.79960347 C2.16788948,7.816867 2.22582471,7.8314971 2.28463775,7.8443716 C2.30219388,7.84817543 2.31975001,7.85227186 2.33730614,7.85578308 C2.39231535,7.86631676 2.44820236,7.87480223 2.50467458,7.88153208 C2.52398633,7.88387289 2.54300547,7.88709152 2.56231721,7.88884713 C2.63663816,7.89586958 2.71154432,7.90025861 2.78703568,7.90025861 C2.88593521,7.90025861 2.98278653,7.89206575 3.07846744,7.88006906 C3.10597204,7.87655784 3.13318405,7.8718762 3.16039605,7.86748717 C3.23266878,7.85578308 3.30347851,7.84086037 3.37341043,7.82271904 C3.39769641,7.81657439 3.42198239,7.81101495 3.44597577,7.8039925 C3.53580463,7.7776583 3.62358528,7.74693508 3.70873252,7.71035981 C3.72189961,7.70480036 3.7338963,7.69777791 3.7467708,7.69192587 C3.81904353,7.65915443 3.88926806,7.62287176 3.95773696,7.58307786 C3.98143774,7.56932556 4.00426071,7.55528066 4.02737628,7.54065055 C4.08940794,7.50173446 4.14909878,7.46018495 4.20703401,7.41570942 C4.22312713,7.40342013 4.24009806,7.39200864 4.25589858,7.37913415 C4.3270009,7.32178412 4.394592,7.26033767 4.45837928,7.19508738 C4.47271678,7.18045727 4.48588388,7.16465676 4.49992879,7.14944144 C4.54937855,7.09618785 4.5961949,7.04088604 4.64067043,6.98353601 C4.65734875,6.96188345 4.67373448,6.94023089 4.68953499,6.91799313 C4.73547353,6.85391325 4.77819345,6.78778516 4.81740214,6.71931625 C4.82296158,6.70966038 4.82998404,6.70088232 4.83554348,6.69122644 C4.84110292,6.70088232 4.84812537,6.70966038 4.85368481,6.71931625 C4.8928935,6.78778516 4.93590602,6.85391325 4.98155196,6.91799313 C4.99735248,6.94023089 5.0137382,6.96188345 5.03041652,6.98353601 C5.07489205,7.04117864 5.1217084,7.09648045 5.17115817,7.14944144 C5.18520307,7.16465676 5.19807757,7.18045727 5.21270767,7.19508738 C5.27649495,7.26033767 5.34408605,7.32178412 5.41518838,7.37913415 C5.43098889,7.39200864 5.44795982,7.40342013 5.46405294,7.41570942 C5.52198817,7.46018495 5.58167901,7.50173446 5.64371067,7.54065055 C5.66682624,7.55498805 5.68964921,7.56932556 5.71334999,7.58307786 C5.78152629,7.62257915 5.85175082,7.65915443 5.92431615,7.69192587 C5.93719065,7.69777791 5.94947994,7.70480036 5.96235444,7.71035981 C6.04720907,7.74693508 6.13528232,7.7776583 6.22511119,7.8039925 C6.24910456,7.81101495 6.27339054,7.81628179 6.29767652,7.82271904 C6.36760844,7.84086037 6.43841817,7.85578308 6.5106909,7.86748717 C6.53790291,7.8718762 6.56511491,7.87655784 6.59261951,7.88006906 C6.68800782,7.89206575 6.78485914,7.90025861 6.88346607,7.90025861 C6.982073,7.90025861 7.07921692,7.89206575 7.17489783,7.88006906 C7.20240244,7.87655784 7.22961444,7.8718762 7.25682644,7.86748717 C7.32909918,7.85578308 7.3999089,7.84086037 7.46984082,7.82271904 C7.4941268,7.81657439 7.51841278,7.81101495 7.54240616,7.8039925 C7.63223503,7.7776583 7.72001568,7.74693508 7.80516291,7.71035981 C7.81833001,7.70480036 7.8303267,7.69777791 7.84320119,7.69192587 C7.91547393,7.65915443 7.98569845,7.62287176 8.05416736,7.58307786 C8.07786813,7.56932556 8.1006911,7.55528066 8.12380667,7.54065055 C8.18583833,7.50173446 8.24552918,7.46018495 8.30346441,7.41570942 C8.31955753,7.40342013 8.33652845,7.39200864 8.35232897,7.37913415 C8.4234313,7.32178412 8.4910224,7.26033767 8.55480967,7.19508738 C8.56914718,7.18045727 8.58231427,7.16465676 8.59635918,7.14944144 C8.64580895,7.09618785 8.69262529,7.04088604 8.73710082,6.98353601 C8.75377915,6.96188345 8.77016487,6.94023089 8.78596539,6.91799313 C8.83190393,6.85391325 8.87462384,6.78778516 8.91383253,6.71931625 C8.91939198,6.70966038 8.92641443,6.70088232 8.93197387,6.69122644 C8.93753331,6.70088232 8.94455576,6.70966038 8.9501152,6.71931625 C8.98932389,6.78778516 9.03233641,6.85391325 9.07798235,6.91799313 C9.09378287,6.94023089 9.11016859,6.96188345 9.12684691,6.98353601 C9.17132244,7.04117864 9.21813879,7.09648045 9.26758856,7.14944144 C9.28163346,7.16465676 9.29450796,7.18045727 9.30913807,7.19508738 C9.37292534,7.26033767 9.44051644,7.32178412 9.51161877,7.37913415 C9.52741929,7.39200864 9.54439021,7.40342013 9.56048333,7.41570942 C9.61841856,7.46018495 9.6781094,7.50173446 9.74014107,7.54065055 C9.76325664,7.55498805 9.78607961,7.56932556 9.80978038,7.58307786 C9.87795669,7.62257915 9.94818121,7.65915443 10.0207465,7.69192587 C10.033621,7.69777791 10.0459103,7.70480036 10.0587848,7.71035981 C10.1436395,7.74693508 10.2317127,7.7776583 10.3215416,7.8039925 C10.345535,7.81101495 10.3698209,7.81628179 10.3941069,7.82271904 C10.4640388,7.84086037 10.5348486,7.85578308 10.6071213,7.86748717 C10.6343333,7.8718762 10.6615453,7.87655784 10.6890499,7.88006906 C10.7844382,7.89206575 10.8812895,7.90025861 10.9798965,7.90025861 C11.0785034,7.90025861 11.1756473,7.89206575 11.2713282,7.88006906 C11.2988328,7.87655784 11.3260448,7.8718762 11.3532568,7.86748717 C11.4255296,7.85578308 11.4963393,7.84086037 11.5662712,7.82271904 C11.5905572,7.81657439 11.6148432,7.81101495 11.6388366,7.8039925 C11.7286654,7.7776583 11.8164461,7.74693508 11.9015933,7.71035981 C11.9147604,7.70480036 11.9267571,7.69777791 11.9396316,7.69192587 C12.0119043,7.65915443 12.0821288,7.62287176 12.1505977,7.58307786 C12.1742985,7.56932556 12.1971215,7.55528066 12.2202371,7.54065055 C12.2822687,7.50173446 12.3419596,7.46018495 12.3998948,7.41570942 C12.4159879,7.40342013 12.4329588,7.39200864 12.4487594,7.37913415 C12.5198617,7.32178412 12.5874528,7.26033767 12.6512401,7.19508738 C12.6655776,7.18045727 12.6787447,7.16465676 12.6927896,7.14944144 C12.7422393,7.09618785 12.7890557,7.04088604 12.8335312,6.98353601 C12.8502095,6.96188345 12.8665953,6.94023089 12.8823958,6.91799313 C12.9283343,6.85391325 12.9710542,6.78778516 13.0102629,6.71931625 C13.0158224,6.70966038 13.0228448,6.70088232 13.0284043,6.69122644 C13.0339637,6.70088232 13.0409862,6.70966038 13.0465456,6.71931625 C13.0857543,6.78778516 13.1287668,6.85391325 13.1744127,6.91799313 C13.1902133,6.94023089 13.206599,6.96188345 13.2232773,6.98353601 C13.2677528,7.04117864 13.3145692,7.09648045 13.364019,7.14944144 C13.3780639,7.16465676 13.3909384,7.18045727 13.4055685,7.19508738 C13.4693557,7.26033767 13.5369468,7.32178412 13.6080492,7.37913415 C13.6238497,7.39200864 13.6408206,7.40342013 13.6569137,7.41570942 C13.714849,7.46018495 13.7745398,7.50173446 13.8365715,7.54065055 C13.859687,7.55498805 13.88251,7.56932556 13.9062108,7.58307786 C13.9743871,7.62257915 14.0446116,7.65915443 14.1171769,7.69192587 C14.1300514,7.69777791 14.1423407,7.70480036 14.1552152,7.71035981 C14.2400699,7.74693508 14.3281431,7.7776583 14.417972,7.8039925 C14.4419653,7.81101495 14.4662513,7.81628179 14.4905373,7.82271904 C14.5604692,7.84086037 14.631279,7.85578308 14.7035517,7.86748717 C14.7307637,7.8718762 14.7579757,7.87655784 14.7854803,7.88006906 C14.8808686,7.89206575 14.9777199,7.90025861 15.0763269,7.90025861 C15.1521108,7.90025861 15.2267244,7.89586958 15.3010453,7.88884713 C15.3203571,7.88709152 15.3393762,7.88387289 15.358688,7.88153208 C15.4148676,7.87480223 15.4707546,7.86660936 15.5260564,7.85578308 C15.5439051,7.85227186 15.5611687,7.84817543 15.5787248,7.8443716 C15.6375378,7.8314971 15.695473,7.81657439 15.7525305,7.79960347 C15.763942,7.79609224 15.7753534,7.79287362 15.7867649,7.78906979 C15.8540634,7.76770983 15.9201915,7.74371645 15.9848566,7.71650445 C15.9857344,7.71621185 15.9863196,7.71591925 15.9871974,7.71562664 C16.1852891,7.63194242 16.3713841,7.52280181 16.5393377,7.38732701 L16.5393377,16.9709259 Z" id="Shape"></path>
                        <path d="M14.6389665,12.5818933 C14.3953998,12.5818933 14.1985203,12.7126865 14.1985203,12.8744955 L14.1985203,13.752302 C14.1985203,13.914111 14.3953998,14.0449042 14.6389665,14.0449042 C14.8825332,14.0449042 15.0794126,13.914111 15.0794126,13.752302 L15.0794126,12.8744955 C15.0794126,12.7126865 14.8825332,12.5818933 14.6389665,12.5818933 Z" id="Shape"></path>
                        <path d="M5.42045522,11.4114847 C5.49536137,11.4114847 5.57026753,11.3828097 5.62732495,11.3257522 L6.79773363,10.1553435 C6.91214108,10.0409361 6.91214108,9.85601152 6.79773363,9.74160408 C6.68332619,9.62719663 6.49840161,9.62719663 6.38399416,9.74160408 L5.21358548,10.9120128 C5.09917803,11.0264202 5.09917803,11.2113448 5.21358548,11.3257522 C5.27093551,11.3828097 5.34584166,11.4114847 5.42045522,11.4114847 Z" id="Shape"></path>
                        <path d="M5.42045522,12.8744955 C5.49536137,12.8744955 5.57026753,12.8458205 5.62732495,12.7887631 L6.21252929,12.2035587 C6.32693674,12.0891513 6.32693674,11.9042267 6.21252929,11.7898193 C6.09812184,11.6754118 5.91319727,11.6754118 5.79878982,11.7898193 L5.21358548,12.3750236 C5.09917803,12.4894311 5.09917803,12.6743556 5.21358548,12.7887631 C5.27093551,12.8458205 5.34584166,12.8744955 5.42045522,12.8744955 Z" id="Shape"></path>
                        <path d="M6.42599111,11.2455325 C6.34627036,11.3293004 6.29826173,11.4449798 6.29826173,11.5602161 C6.29826173,11.6754523 6.34627036,11.7906885 6.42599111,11.8704674 C6.50923543,11.9542353 6.61934697,12.0034323 6.73870787,12.0034323 C6.85322387,12.0034323 6.96773986,11.9546785 7.05142463,11.8748996 C7.13070494,11.7906885 7.17915401,11.6754523 7.17915401,11.5602161 C7.17915401,11.4449798 7.13070494,11.3293004 7.05142463,11.2455325 C6.88845956,11.0815425 6.58939663,11.0815425 6.42599111,11.2455325 Z" id="Shape"></path>
                        <path d="M6.96919851,11.0331501 C7.02654853,11.0902075 7.10145469,11.1188825 7.17606824,11.1188825 C7.2506818,11.1188825 7.32588055,11.0902075 7.38293798,11.0331501 L8.26074449,10.1553435 C8.37515194,10.0409361 8.37515194,9.85601152 8.26074449,9.74160408 C8.14633704,9.62719663 7.96141247,9.62719663 7.84700502,9.74160408 L6.96919851,10.6194106 C6.85508366,10.733818 6.85508366,10.9187426 6.96919851,11.0331501 Z" id="Shape"></path>
                        <path d="M5.42045522,14.3375064 C5.49536137,14.3375064 5.57026753,14.3088314 5.62732495,14.2517739 L8.26074449,11.6183544 C8.37515194,11.503947 8.37515194,11.3190224 8.26074449,11.2046149 C8.14633704,11.0902075 7.96141247,11.0902075 7.84700502,11.2046149 L5.21358548,13.8380345 C5.09917803,13.9524419 5.09917803,14.1373665 5.21358548,14.2517739 C5.27093551,14.3088314 5.34584166,14.3375064 5.42045522,14.3375064 Z" id="Shape"></path>
                        <path d="M8.47420631,11.2896953 C8.55745063,11.3694742 8.67240707,11.418228 8.78692307,11.418228 C8.90143906,11.418228 9.01595506,11.3694742 9.09963983,11.2896953 C9.17892013,11.2054842 9.22736921,11.0902479 9.22736921,10.9750117 C9.22736921,10.8597755 9.17892013,10.7440961 9.09963983,10.6603282 C8.93667475,10.4963382 8.63717138,10.4963382 8.47420631,10.6603282 C8.39448555,10.7440961 8.34647693,10.8597755 8.34647693,10.9750117 C8.34647693,11.0902479 8.394926,11.2054842 8.47420631,11.2896953 Z" id="Shape"></path>
                    </g>
                </g>
            </g>
        </g>
    </g>
</svg>