<?xml version="1.0" encoding="UTF-8"?>
<svg width="56px" height="56px" viewBox="0 0 56 56" version="1.1" xmlns="http://www.w3.org/2000/svg" xmlns:xlink="http://www.w3.org/1999/xlink">
    <!-- Generator: Sketch 45.2 (43514) - http://www.bohemiancoding.com/sketch -->
    <title>Plus Sign</title>
    <desc>Created with Sketch.</desc>
    <defs></defs>
    <g id="Welcome" stroke="none" stroke-width="1" fill="none" fill-rule="evenodd">
        <g id="Vendor-App-[Vendor-Side]" transform="translate(-213.000000, -355.000000)" fill-rule="nonzero" fill="#4A4A4A">
            <g id="Product-Boxes" transform="translate(182.000000, 328.000000)">
                <g id="Add-New-Products-Box">
                    <g id="Plus-Sign" transform="translate(31.000000, 27.000000)">
                        <path d="M28.0143166,55.7257758 C43.3086192,55.7257758 55.7257758,43.3086192 55.7257758,28.0143166 C55.7257758,12.720014 43.3086192,0.302857477 28.0143166,0.302857477 C12.720014,0.302857477 0.302857477,12.720014 0.302857477,28.0143166 C0.302857477,43.3086192 12.720014,55.7257758 28.0143166,55.7257758 Z M28.0143166,4.84571964 C40.8100451,4.84571964 51.1829137,15.2185882 51.1829137,28.0143166 C51.1829137,40.8100451 40.8100451,51.1829137 28.0143166,51.1829137 C15.2185882,51.1829137 4.84571964,40.8100451 4.84571964,28.0143166 C4.84571964,15.2185882 15.2185882,4.84571964 28.0143166,4.84571964 Z" id="Shape"></path>
                        <path d="M15.4457313,30.2857477 L26.045743,30.2857477 L26.045743,40.8857594 C26.045743,42.1729037 27.0300298,43.1571905 28.3171741,43.1571905 C29.6043184,43.1571905 30.5886052,42.1729037 30.5886052,40.8857594 L30.5886052,30.2857477 L41.1886169,30.2857477 C42.4757612,30.2857477 43.460048,29.3014609 43.460048,28.0143166 C43.460048,26.7271724 42.4757612,25.7428856 41.1886169,25.7428856 L30.5886052,25.7428856 L30.5886052,15.1428739 C30.5886052,13.8557296 29.6043184,12.8714428 28.3171741,12.8714428 C27.0300298,12.8714428 26.045743,13.8557296 26.045743,15.1428739 L26.045743,25.7428856 L15.4457313,25.7428856 C14.1585871,25.7428856 13.1743003,26.7271724 13.1743003,28.0143166 C13.1743003,29.3014609 14.2343014,30.2857477 15.4457313,30.2857477 Z" id="Shape"></path>
                    </g>
                </g>
            </g>
        </g>
    </g>
</svg>