<?xml version="1.0" encoding="iso-8859-1"?>
<!-- Generator: Adobe Illustrator 19.0.0, SVG Export Plug-In . SVG Version: 6.00 Build 0)  -->
<svg version="1.1" id="Layer_1" xmlns="http://www.w3.org/2000/svg" xmlns:xlink="http://www.w3.org/1999/xlink" x="0px" y="0px"
	 viewBox="0 0 512 512" style="enable-background:new 0 0 512 512;" xml:space="preserve">
<rect x="12.473" y="302.777" style="fill:#0071AB;" width="487.052" height="88.55"/>
<rect x="12.473" y="23.378" style="fill:#00CFA6;" width="487.052" height="279.392"/>
<polygon style="fill:#FF3D62;" points="331.861,177.225 291.548,177.225 291.548,264.11 220.452,264.11 220.452,177.225 
	180.139,177.225 256,66.16 "/>
<path d="M291.549,276.583h-71.096c-6.889,0-12.473-5.584-12.473-12.473v-74.413h-27.841c-4.625,0-8.871-2.559-11.03-6.649
	c-2.159-4.09-1.878-9.039,0.73-12.858L245.7,59.126c2.325-3.403,6.179-5.438,10.3-5.438s7.975,2.036,10.3,5.438l75.861,111.064
	c2.608,3.819,2.889,8.768,0.73,12.858c-2.159,4.09-6.405,6.649-11.03,6.649H304.02v74.413
	C304.022,270.998,298.438,276.583,291.549,276.583z M232.925,251.638h46.151v-74.413c0-6.889,5.584-12.473,12.473-12.473h16.689
	L256,88.275l-52.237,76.477h16.689c6.889,0,12.473,5.584,12.473,12.473v74.413H232.925z"/>
<path d="M446.809,358.975c-3.28,0-6.498-1.335-8.818-3.655c-0.574-0.574-1.098-1.222-1.559-1.896
	c-0.449-0.686-0.823-1.409-1.135-2.158c-0.312-0.748-0.561-1.534-0.711-2.332c-0.162-0.811-0.249-1.621-0.249-2.445
	c0-0.811,0.087-1.621,0.249-2.432c0.15-0.798,0.399-1.584,0.711-2.332s0.686-1.472,1.135-2.158c0.461-0.674,0.985-1.322,1.559-1.896
	c2.894-2.894,7.197-4.216,11.25-3.405c0.798,0.162,1.584,0.399,2.332,0.711c0.761,0.312,1.484,0.698,2.158,1.148
	c0.686,0.461,1.322,0.973,1.896,1.547c2.32,2.32,3.655,5.538,3.655,8.818c0,0.823-0.087,1.634-0.249,2.445
	c-0.15,0.798-0.399,1.584-0.711,2.332c-0.312,0.748-0.698,1.472-1.148,2.158c-0.449,0.674-0.973,1.322-1.547,1.896
	c-0.574,0.574-1.21,1.098-1.896,1.547c-0.674,0.449-1.397,0.836-2.158,1.148c-0.748,0.312-1.534,0.549-2.332,0.711
	C448.443,358.888,447.62,358.975,446.809,358.975z"/>
<rect x="199.254" y="391.322" style="fill:#FFD355;" width="113.503" height="58.635"/>
<rect x="91.962" y="449.957" style="fill:#FF9013;" width="328.086" height="38.665"/>
<path d="M499.527,10.906H12.473C5.584,10.906,0,16.49,0,23.378v279.394v88.55c0,6.889,5.584,12.473,12.473,12.473h174.303v33.689
	H91.958c-6.889,0-12.473,5.584-12.473,12.473v38.665c0,6.889,5.584,12.473,12.473,12.473h328.083
	c6.889,0,12.473-5.584,12.473-12.473v-38.665c0-6.889-5.584-12.473-12.473-12.473h-94.817v-33.689h174.303
	c6.889,0,12.473-5.584,12.473-12.473v-88.55V23.378C512,16.49,506.416,10.906,499.527,10.906z M24.946,35.851h462.109V290.3H24.946
	V35.851z M407.569,476.149H104.431V462.43h94.817h113.503h94.817V476.149z M300.279,437.484h-88.557v-33.689h88.557V437.484z
	 M487.054,378.849H312.751H199.249H24.946v-19.88h380.702c6.889,0,12.473-5.584,12.473-12.473c0-6.889-5.584-12.473-12.473-12.473
	H24.946v-18.778h462.109V378.849z"/>
<g>
</g>
<g>
</g>
<g>
</g>
<g>
</g>
<g>
</g>
<g>
</g>
<g>
</g>
<g>
</g>
<g>
</g>
<g>
</g>
<g>
</g>
<g>
</g>
<g>
</g>
<g>
</g>
<g>
</g>
</svg>
