<?xml version="1.0" encoding="UTF-8" standalone="no"?>
<svg
   xmlns:dc="http://purl.org/dc/elements/1.1/"
   xmlns:cc="http://creativecommons.org/ns#"
   xmlns:rdf="http://www.w3.org/1999/02/22-rdf-syntax-ns#"
   xmlns:svg="http://www.w3.org/2000/svg"
   xmlns="http://www.w3.org/2000/svg"
   xml:space="preserve"
   style="enable-background:new 0 0 512 512;"
   viewBox="0 0 512 512"
   y="0px"
   x="0px"
   id="Layer_1"
   version="1.1"><metadata
     id="metadata55"><rdf:RDF><cc:Work
         rdf:about=""><dc:format>image/svg+xml</dc:format><dc:type
           rdf:resource="http://purl.org/dc/dcmitype/StillImage" /><dc:title></dc:title></cc:Work></rdf:RDF></metadata><defs
     id="defs53" /><g
     style="fill:#666666"
     id="g3"><g
       style="fill:#666666"
       id="g5"><path
         style="fill:#666666"
         id="path7"
         d="M499.527,10.906H12.473C5.584,10.906,0,16.49,0,23.378v279.394v88.55c0,6.889,5.584,12.473,12.473,12.473h174.303v33.689    H91.958c-6.889,0-12.473,5.584-12.473,12.473v38.665c0,6.889,5.584,12.473,12.473,12.473h328.083    c6.889,0,12.473-5.584,12.473-12.473v-38.665c0-6.889-5.584-12.473-12.473-12.473h-94.817v-33.689h174.303    c6.889,0,12.473-5.584,12.473-12.473v-88.55V23.378C512,16.49,506.416,10.906,499.527,10.906z M407.569,462.43v13.719H104.431    V462.43h94.817h113.503H407.569z M211.721,437.484v-33.689h88.557v33.689H211.721z M487.054,378.849H312.751H199.249H24.946    v-19.88h380.702c6.889,0,12.473-5.584,12.473-12.473c0-6.889-5.584-12.473-12.473-12.473H24.946v-18.778h462.109V378.849z     M487.054,290.3H24.946V35.851h462.109V290.3z" /></g></g><g
     style="fill:#666666"
     id="g9"><g
       style="fill:#666666"
       id="g11"><path
         style="fill:#666666"
         id="path13"
         d="M342.162,170.189L266.3,59.124c-2.325-3.403-6.179-5.438-10.3-5.438s-7.975,2.036-10.3,5.438l-75.861,111.064    c-2.608,3.819-2.889,8.768-0.73,12.858c2.159,4.09,6.405,6.649,11.03,6.649h27.841v74.413c0,6.889,5.584,12.473,12.473,12.473    h71.096c6.889,0,12.473-5.584,12.473-12.473v-74.413h27.841c4.625,0,8.871-2.559,11.03-6.649    C345.051,178.957,344.77,174.008,342.162,170.189z M291.549,164.752c-6.889,0-12.473,5.584-12.473,12.473v74.413h-46.151v-74.413    c0-6.889-5.584-12.473-12.473-12.473h-16.689l52.237-76.477l52.237,76.477H291.549z" /></g></g><g
     style="fill:#666666"
     id="g15"><g
       style="fill:#666666"
       id="g17"><path
         style="fill:#666666"
         id="path19"
         d="M455.628,337.671c-0.574-0.574-1.21-1.085-1.896-1.547c-0.674-0.449-1.397-0.836-2.158-1.148    c-0.748-0.312-1.534-0.549-2.332-0.711c-4.054-0.811-8.357,0.511-11.25,3.405c-0.574,0.574-1.098,1.222-1.559,1.896    c-0.449,0.686-0.823,1.409-1.135,2.158c-0.312,0.748-0.561,1.534-0.711,2.332c-0.162,0.811-0.249,1.621-0.249,2.432    c0,0.823,0.087,1.634,0.249,2.445c0.15,0.798,0.399,1.584,0.711,2.332c0.312,0.748,0.686,1.472,1.135,2.158    c0.461,0.674,0.985,1.322,1.559,1.896c2.32,2.32,5.538,3.654,8.818,3.654c0.811,0,1.634-0.087,2.432-0.249    s1.584-0.399,2.332-0.711c0.761-0.312,1.484-0.698,2.158-1.148c0.686-0.449,1.322-0.973,1.896-1.547    c0.574-0.574,1.098-1.222,1.547-1.896c0.449-0.686,0.836-1.409,1.148-2.158c0.312-0.748,0.561-1.534,0.711-2.332    c0.162-0.811,0.249-1.621,0.249-2.445C459.282,343.209,457.948,339.991,455.628,337.671z" /></g></g><g
     id="g21" /><g
     id="g23" /><g
     id="g25" /><g
     id="g27" /><g
     id="g29" /><g
     id="g31" /><g
     id="g33" /><g
     id="g35" /><g
     id="g37" /><g
     id="g39" /><g
     id="g41" /><g
     id="g43" /><g
     id="g45" /><g
     id="g47" /><g
     id="g49" /></svg>